  0
SECTION
  2
BLOCKS
  0
ENDSEC
  0
SECTION
  2
ENTITIES
  0
LINE
  8
0
 10
2.43568
 20
-23.1741
 11
2.90831
 21
-23.1119
  0
LINE
  8
0
 10
2.90831
 20
-23.1119
 11
3.02823
 21
-23.0643
  0
LINE
  8
0
 10
3.02823
 20
-23.0643
 11
3.14394
 21
-22.9639
  0
LINE
  8
0
 10
3.14394
 20
-22.9639
 11
3.21823
 21
-22.833
  0
LINE
  8
0
 10
3.21823
 20
-22.833
 11
3.24219
 21
-22.6826
  0
LINE
  8
0
 10
3.24219
 20
-22.6826
 11
3.15738
 21
-22.0817
  0
LINE
  8
0
 10
3.15738
 20
-22.0817
 11
3.1601
 21
-21.9496
  0
LINE
  8
0
 10
3.1601
 20
-21.9496
 11
3.17462
 21
-21.8198
  0
LINE
  8
0
 10
3.17462
 20
-21.8198
 11
3.20055
 21
-21.6929
  0
LINE
  8
0
 10
3.20055
 20
-21.6929
 11
3.2374
 21
-21.5694
  0
LINE
  8
0
 10
3.2374
 20
-21.5694
 11
3.28473
 21
-21.4498
  0
LINE
  8
0
 10
3.28473
 20
-21.4498
 11
3.3421
 21
-21.3349
  0
LINE
  8
0
 10
3.3421
 20
-21.3349
 11
3.40909
 21
-21.225
  0
LINE
  8
0
 10
3.40909
 20
-21.225
 11
3.4852
 21
-21.1208
  0
LINE
  8
0
 10
3.4852
 20
-21.1208
 11
3.57002
 21
-21.0229
  0
LINE
  8
0
 10
3.57002
 20
-21.0229
 11
3.66309
 21
-20.9317
  0
LINE
  8
0
 10
3.66309
 20
-20.9317
 11
3.76396
 21
-20.8479
  0
LINE
  8
0
 10
3.76396
 20
-20.8479
 11
3.87219
 21
-20.772
  0
LINE
  8
0
 10
3.87219
 20
-20.772
 11
3.98732
 21
-20.7045
  0
LINE
  8
0
 10
3.98732
 20
-20.7045
 11
4.10892
 21
-20.6462
  0
LINE
  8
0
 10
4.10892
 20
-20.6462
 11
4.23654
 21
-20.5974
  0
LINE
  8
0
 10
4.23654
 20
-20.5974
 11
4.36972
 21
-20.5588
  0
LINE
  8
0
 10
4.36972
 20
-20.5588
 11
4.50719
 21
-20.5398
  0
LINE
  8
0
 10
4.50719
 20
-20.5398
 11
4.64371
 21
-20.5324
  0
LINE
  8
0
 10
4.64371
 20
-20.5324
 11
4.77863
 21
-20.5362
  0
LINE
  8
0
 10
4.77863
 20
-20.5362
 11
4.91129
 21
-20.5509
  0
LINE
  8
0
 10
4.91129
 20
-20.5509
 11
5.04109
 21
-20.5762
  0
LINE
  8
0
 10
5.04109
 20
-20.5762
 11
5.16737
 21
-20.6117
  0
LINE
  8
0
 10
5.16737
 20
-20.6117
 11
5.28954
 21
-20.6571
  0
LINE
  8
0
 10
5.28954
 20
-20.6571
 11
5.40688
 21
-20.7121
  0
LINE
  8
0
 10
5.40688
 20
-20.7121
 11
5.5188
 21
-20.7763
  0
LINE
  8
0
 10
5.5188
 20
-20.7763
 11
5.62468
 21
-20.8494
  0
LINE
  8
0
 10
5.62468
 20
-20.8494
 11
5.72385
 21
-20.9312
  0
LINE
  8
0
 10
5.72385
 20
-20.9312
 11
5.8157
 21
-21.0211
  0
LINE
  8
0
 10
5.8157
 20
-21.0211
 11
5.89957
 21
-21.119
  0
LINE
  8
0
 10
5.89957
 20
-21.119
 11
5.97484
 21
-21.2245
  0
LINE
  8
0
 10
5.97484
 20
-21.2245
 11
6.04086
 21
-21.3372
  0
LINE
  8
0
 10
6.04086
 20
-21.3372
 11
6.097
 21
-21.4568
  0
LINE
  8
0
 10
6.097
 20
-21.4568
 11
6.26393
 21
-22.0403
  0
LINE
  8
0
 10
6.26393
 20
-22.0403
 11
6.347
 21
-22.168
  0
LINE
  8
0
 10
6.347
 20
-22.168
 11
6.46812
 21
-22.2573
  0
LINE
  8
0
 10
6.46812
 20
-22.2573
 11
6.61464
 21
-22.302
  0
LINE
  8
0
 10
6.61464
 20
-22.302
 11
6.74356
 21
-22.2967
  0
LINE
  8
0
 10
6.74356
 20
-22.2967
 11
7.20062
 21
-22.1613
  0
LINE
  8
0
 10
7.20062
 20
-22.1613
 11
7.64998
 21
-22.0021
  0
LINE
  8
0
 10
7.64998
 20
-22.0021
 11
7.7574
 21
-21.9307
  0
LINE
  8
0
 10
7.7574
 20
-21.9307
 11
7.8497
 21
-21.8084
  0
LINE
  8
0
 10
7.8497
 20
-21.8084
 11
7.89516
 21
-21.6649
  0
LINE
  8
0
 10
7.89516
 20
-21.6649
 11
7.8873
 21
-21.5128
  0
LINE
  8
0
 10
7.8873
 20
-21.5128
 11
7.67943
 21
-20.9427
  0
LINE
  8
0
 10
7.67943
 20
-20.9427
 11
7.65462
 21
-20.8129
  0
LINE
  8
0
 10
7.65462
 20
-20.8129
 11
7.64185
 21
-20.683
  0
LINE
  8
0
 10
7.64185
 20
-20.683
 11
7.64081
 21
-20.5534
  0
LINE
  8
0
 10
7.64081
 20
-20.5534
 11
7.65117
 21
-20.4249
  0
LINE
  8
0
 10
7.65117
 20
-20.4249
 11
7.67262
 21
-20.2982
  0
LINE
  8
0
 10
7.67262
 20
-20.2982
 11
7.70485
 21
-20.1738
  0
LINE
  8
0
 10
7.70485
 20
-20.1738
 11
7.74753
 21
-20.0524
  0
LINE
  8
0
 10
7.74753
 20
-20.0524
 11
7.80031
 21
-19.9347
  0
LINE
  8
0
 10
7.80031
 20
-19.9347
 11
7.8629
 21
-19.8212
  0
LINE
  8
0
 10
7.8629
 20
-19.8212
 11
7.93498
 21
-19.7127
  0
LINE
  8
0
 10
7.93498
 20
-19.7127
 11
8.01624
 21
-19.6097
  0
LINE
  8
0
 10
8.01624
 20
-19.6097
 11
8.10631
 21
-19.513
  0
LINE
  8
0
 10
8.10631
 20
-19.513
 11
8.20491
 21
-19.4231
  0
LINE
  8
0
 10
8.20491
 20
-19.4231
 11
8.31171
 21
-19.3407
  0
LINE
  8
0
 10
8.31171
 20
-19.3407
 11
8.42641
 21
-19.2665
  0
LINE
  8
0
 10
8.42641
 20
-19.2665
 11
8.54865
 21
-19.201
  0
LINE
  8
0
 10
8.54865
 20
-19.201
 11
8.67917
 21
-19.1539
  0
LINE
  8
0
 10
8.67917
 20
-19.1539
 11
8.81116
 21
-19.1182
  0
LINE
  8
0
 10
8.81116
 20
-19.1182
 11
8.94391
 21
-19.0939
  0
LINE
  8
0
 10
8.94391
 20
-19.0939
 11
9.07674
 21
-19.0807
  0
LINE
  8
0
 10
9.07674
 20
-19.0807
 11
9.20897
 21
-19.0784
  0
LINE
  8
0
 10
9.20897
 20
-19.0784
 11
9.33987
 21
-19.0869
  0
LINE
  8
0
 10
9.33987
 20
-19.0869
 11
9.4688
 21
-19.1059
  0
LINE
  8
0
 10
9.4688
 20
-19.1059
 11
9.59502
 21
-19.1353
  0
LINE
  8
0
 10
9.59502
 20
-19.1353
 11
9.71783
 21
-19.1749
  0
LINE
  8
0
 10
9.71783
 20
-19.1749
 11
9.83661
 21
-19.2244
  0
LINE
  8
0
 10
9.83661
 20
-19.2244
 11
9.95061
 21
-19.2837
  0
LINE
  8
0
 10
9.95061
 20
-19.2837
 11
10.0592
 21
-19.3526
  0
LINE
  8
0
 10
10.0592
 20
-19.3526
 11
10.1615
 21
-19.4309
  0
LINE
  8
0
 10
10.1615
 20
-19.4309
 11
10.2571
 21
-19.5184
  0
LINE
  8
0
 10
10.2571
 20
-19.5184
 11
10.3451
 21
-19.615
  0
LINE
  8
0
 10
10.3451
 20
-19.615
 11
10.4249
 21
-19.7203
  0
LINE
  8
0
 10
10.4249
 20
-19.7203
 11
10.7095
 21
-20.2563
  0
LINE
  8
0
 10
10.7095
 20
-20.2563
 11
10.8173
 21
-20.3639
  0
LINE
  8
0
 10
10.8173
 20
-20.3639
 11
10.9543
 21
-20.4262
  0
LINE
  8
0
 10
10.9543
 20
-20.4262
 11
11.1069
 21
-20.4393
  0
LINE
  8
0
 10
11.1069
 20
-20.4393
 11
11.2319
 21
-20.4073
  0
LINE
  8
0
 10
11.2319
 20
-20.4073
 11
11.6509
 21
-20.1799
  0
LINE
  8
0
 10
11.6509
 20
-20.1799
 11
12.0573
 21
-19.9308
  0
LINE
  8
0
 10
12.0573
 20
-19.9308
 11
12.1475
 21
-19.8386
  0
LINE
  8
0
 10
12.1475
 20
-19.8386
 11
12.2124
 21
-19.6998
  0
LINE
  8
0
 10
12.2124
 20
-19.6998
 11
12.227
 21
-19.55
  0
LINE
  8
0
 10
12.227
 20
-19.55
 11
12.1877
 21
-19.4028
  0
LINE
  8
0
 10
12.1877
 20
-19.4028
 11
11.8658
 21
-18.8884
  0
LINE
  8
0
 10
11.8658
 20
-18.8884
 11
11.8146
 21
-18.7666
  0
LINE
  8
0
 10
11.8146
 20
-18.7666
 11
11.7751
 21
-18.6422
  0
LINE
  8
0
 10
11.7751
 20
-18.6422
 11
11.7471
 21
-18.5157
  0
LINE
  8
0
 10
11.7471
 20
-18.5157
 11
11.7306
 21
-18.3878
  0
LINE
  8
0
 10
11.7306
 20
-18.3878
 11
11.7252
 21
-18.2594
  0
LINE
  8
0
 10
11.7252
 20
-18.2594
 11
11.7309
 21
-18.131
  0
LINE
  8
0
 10
11.7309
 20
-18.131
 11
11.7473
 21
-18.0034
  0
LINE
  8
0
 10
11.7473
 20
-18.0034
 11
11.7745
 21
-17.8773
  0
LINE
  8
0
 10
11.7745
 20
-17.8773
 11
11.8121
 21
-17.7533
  0
LINE
  8
0
 10
11.8121
 20
-17.7533
 11
11.8601
 21
-17.6321
  0
LINE
  8
0
 10
11.8601
 20
-17.6321
 11
11.9182
 21
-17.5145
  0
LINE
  8
0
 10
11.9182
 20
-17.5145
 11
11.9861
 21
-17.4012
  0
LINE
  8
0
 10
11.9861
 20
-17.4012
 11
12.0639
 21
-17.2928
  0
LINE
  8
0
 10
12.0639
 20
-17.2928
 11
12.1512
 21
-17.19
  0
LINE
  8
0
 10
12.1512
 20
-17.19
 11
12.248
 21
-17.0935
  0
LINE
  8
0
 10
12.248
 20
-17.0935
 11
12.354
 21
-17.0041
  0
LINE
  8
0
 10
12.354
 20
-17.0041
 11
12.4718
 21
-16.9308
  0
LINE
  8
0
 10
12.4718
 20
-16.9308
 11
12.5935
 21
-16.8685
  0
LINE
  8
0
 10
12.5935
 20
-16.8685
 11
12.7183
 21
-16.8171
  0
LINE
  8
0
 10
12.7183
 20
-16.8171
 11
12.8455
 21
-16.7766
  0
LINE
  8
0
 10
12.8455
 20
-16.7766
 11
12.9743
 21
-16.7469
  0
LINE
  8
0
 10
12.9743
 20
-16.7469
 11
13.1042
 21
-16.7279
  0
LINE
  8
0
 10
13.1042
 20
-16.7279
 11
13.2342
 21
-16.7197
  0
LINE
  8
0
 10
13.2342
 20
-16.7197
 11
13.3638
 21
-16.7222
  0
LINE
  8
0
 10
13.3638
 20
-16.7222
 11
13.4922
 21
-16.7354
  0
LINE
  8
0
 10
13.4922
 20
-16.7354
 11
13.6186
 21
-16.7591
  0
LINE
  8
0
 10
13.6186
 20
-16.7591
 11
13.7425
 21
-16.7935
  0
LINE
  8
0
 10
13.7425
 20
-16.7935
 11
13.863
 21
-16.8383
  0
LINE
  8
0
 10
13.863
 20
-16.8383
 11
13.9794
 21
-16.8936
  0
LINE
  8
0
 10
13.9794
 20
-16.8936
 11
14.0911
 21
-16.9594
  0
LINE
  8
0
 10
14.0911
 20
-16.9594
 11
14.1972
 21
-17.0355
  0
LINE
  8
0
 10
14.1972
 20
-17.0355
 11
14.2972
 21
-17.1219
  0
LINE
  8
0
 10
14.2972
 20
-17.1219
 11
14.687
 21
-17.587
  0
LINE
  8
0
 10
14.687
 20
-17.587
 11
14.8148
 21
-17.6699
  0
LINE
  8
0
 10
14.8148
 20
-17.6699
 11
14.9618
 21
-17.7023
  0
LINE
  8
0
 10
14.9618
 20
-17.7023
 11
15.1138
 21
-17.6834
  0
LINE
  8
0
 10
15.1138
 20
-17.6834
 11
15.2294
 21
-17.6261
  0
LINE
  8
0
 10
15.2294
 20
-17.6261
 11
15.5919
 21
-17.3166
  0
LINE
  8
0
 10
15.5919
 20
-17.3166
 11
15.9377
 21
-16.9884
  0
LINE
  8
0
 10
15.9377
 20
-16.9884
 11
16.0067
 21
-16.8794
  0
LINE
  8
0
 10
16.0067
 20
-16.8794
 11
16.0414
 21
-16.7302
  0
LINE
  8
0
 10
16.0414
 20
-16.7302
 11
16.0245
 21
-16.5806
  0
LINE
  8
0
 10
16.0245
 20
-16.5806
 11
15.9555
 21
-16.4449
  0
LINE
  8
0
 10
15.9555
 20
-16.4449
 11
15.5337
 21
-16.0086
  0
LINE
  8
0
 10
15.5337
 20
-16.0086
 11
15.4582
 21
-15.9001
  0
LINE
  8
0
 10
15.4582
 20
-15.9001
 11
15.3937
 21
-15.7866
  0
LINE
  8
0
 10
15.3937
 20
-15.7866
 11
15.3401
 21
-15.6687
  0
LINE
  8
0
 10
15.3401
 20
-15.6687
 11
15.2973
 21
-15.5471
  0
LINE
  8
0
 10
15.2973
 20
-15.5471
 11
15.2653
 21
-15.4226
  0
LINE
  8
0
 10
15.2653
 20
-15.4226
 11
15.2442
 21
-15.2958
  0
LINE
  8
0
 10
15.2442
 20
-15.2958
 11
15.2338
 21
-15.1676
  0
LINE
  8
0
 10
15.2338
 20
-15.1676
 11
15.2341
 21
-15.0385
  0
LINE
  8
0
 10
15.2341
 20
-15.0385
 11
15.2451
 21
-14.9094
  0
LINE
  8
0
 10
15.2451
 20
-14.9094
 11
15.2668
 21
-14.781
  0
LINE
  8
0
 10
15.2668
 20
-14.781
 11
15.2992
 21
-14.6539
  0
LINE
  8
0
 10
15.2992
 20
-14.6539
 11
15.3421
 21
-14.5288
  0
LINE
  8
0
 10
15.3421
 20
-14.5288
 11
15.3956
 21
-14.4066
  0
LINE
  8
0
 10
15.3956
 20
-14.4066
 11
15.4597
 21
-14.2879
  0
LINE
  8
0
 10
15.4597
 20
-14.2879
 11
15.5343
 21
-14.1735
  0
LINE
  8
0
 10
15.5343
 20
-14.1735
 11
15.6193
 21
-14.0639
  0
LINE
  8
0
 10
15.6193
 20
-14.0639
 11
15.7194
 21
-13.9678
  0
LINE
  8
0
 10
15.7194
 20
-13.9678
 11
15.8255
 21
-13.8815
  0
LINE
  8
0
 10
15.8255
 20
-13.8815
 11
15.9369
 21
-13.8053
  0
LINE
  8
0
 10
15.9369
 20
-13.8053
 11
16.0528
 21
-13.7392
  0
LINE
  8
0
 10
16.0528
 20
-13.7392
 11
16.1727
 21
-13.6834
  0
LINE
  8
0
 10
16.1727
 20
-13.6834
 11
16.2957
 21
-13.6379
  0
LINE
  8
0
 10
16.2957
 20
-13.6379
 11
16.4213
 21
-13.6028
  0
LINE
  8
0
 10
16.4213
 20
-13.6028
 11
16.5485
 21
-13.5783
  0
LINE
  8
0
 10
16.5485
 20
-13.5783
 11
16.6768
 21
-13.5645
  0
LINE
  8
0
 10
16.6768
 20
-13.5645
 11
16.8055
 21
-13.5614
  0
LINE
  8
0
 10
16.8055
 20
-13.5614
 11
16.9337
 21
-13.5693
  0
LINE
  8
0
 10
16.9337
 20
-13.5693
 11
17.0609
 21
-13.5881
  0
LINE
  8
0
 10
17.0609
 20
-13.5881
 11
17.1863
 21
-13.618
  0
LINE
  8
0
 10
17.1863
 20
-13.618
 11
17.3092
 21
-13.659
  0
LINE
  8
0
 10
17.3092
 20
-13.659
 11
17.4288
 21
-13.7114
  0
LINE
  8
0
 10
17.4288
 20
-13.7114
 11
17.5446
 21
-13.7752
  0
LINE
  8
0
 10
17.5446
 20
-13.7752
 11
18.0226
 21
-14.1491
  0
LINE
  8
0
 10
18.0226
 20
-14.1491
 11
18.1648
 21
-14.2036
  0
LINE
  8
0
 10
18.1648
 20
-14.2036
 11
18.3154
 21
-14.2047
  0
LINE
  8
0
 10
18.3154
 20
-14.2047
 11
18.4601
 21
-14.1547
  0
LINE
  8
0
 10
18.4601
 20
-14.1547
 11
18.5613
 21
-14.0746
  0
LINE
  8
0
 10
18.5613
 20
-14.0746
 11
18.8515
 21
-13.6964
  0
LINE
  8
0
 10
18.8515
 20
-13.6964
 11
19.1215
 21
-13.3036
  0
LINE
  8
0
 10
19.1215
 20
-13.3036
 11
19.1664
 21
-13.1826
  0
LINE
  8
0
 10
19.1664
 20
-13.1826
 11
19.1692
 21
-13.0294
  0
LINE
  8
0
 10
19.1692
 20
-13.0294
 11
19.1216
 21
-12.8866
  0
LINE
  8
0
 10
19.1216
 20
-12.8866
 11
19.0259
 21
-12.7682
  0
LINE
  8
0
 10
19.0259
 20
-12.7682
 11
18.5226
 21
-12.4291
  0
LINE
  8
0
 10
18.5226
 20
-12.4291
 11
18.4262
 21
-12.3387
  0
LINE
  8
0
 10
18.4262
 20
-12.3387
 11
18.3395
 21
-12.2411
  0
LINE
  8
0
 10
18.3395
 20
-12.2411
 11
18.2625
 21
-12.1369
  0
LINE
  8
0
 10
18.2625
 20
-12.1369
 11
18.1954
 21
-12.0269
  0
LINE
  8
0
 10
18.1954
 20
-12.0269
 11
18.1383
 21
-11.9117
  0
LINE
  8
0
 10
18.1383
 20
-11.9117
 11
18.0912
 21
-11.7921
  0
LINE
  8
0
 10
18.0912
 20
-11.7921
 11
18.0544
 21
-11.6688
  0
LINE
  8
0
 10
18.0544
 20
-11.6688
 11
18.0279
 21
-11.5426
  0
LINE
  8
0
 10
18.0279
 20
-11.5426
 11
18.0118
 21
-11.414
  0
LINE
  8
0
 10
18.0118
 20
-11.414
 11
18.0063
 21
-11.2838
  0
LINE
  8
0
 10
18.0063
 20
-11.2838
 11
18.0116
 21
-11.1528
  0
LINE
  8
0
 10
18.0116
 20
-11.1528
 11
18.0276
 21
-11.0215
  0
LINE
  8
0
 10
18.0276
 20
-11.0215
 11
18.0545
 21
-10.8909
  0
LINE
  8
0
 10
18.0545
 20
-10.8909
 11
18.0925
 21
-10.7614
  0
LINE
  8
0
 10
18.0925
 20
-10.7614
 11
18.1417
 21
-10.634
  0
LINE
  8
0
 10
18.1417
 20
-10.634
 11
18.2021
 21
-10.5092
  0
LINE
  8
0
 10
18.2021
 20
-10.5092
 11
18.28
 21
-10.3943
  0
LINE
  8
0
 10
18.28
 20
-10.3943
 11
18.3658
 21
-10.2879
  0
LINE
  8
0
 10
18.3658
 20
-10.2879
 11
18.4589
 21
-10.1902
  0
LINE
  8
0
 10
18.4589
 20
-10.1902
 11
18.5586
 21
-10.1014
  0
LINE
  8
0
 10
18.5586
 20
-10.1014
 11
18.6642
 21
-10.0219
  0
LINE
  8
0
 10
18.6642
 20
-10.0219
 11
18.7751
 21
-9.95178
  0
LINE
  8
0
 10
18.7751
 20
-9.95178
 11
18.8906
 21
-9.8914
  0
LINE
  8
0
 10
18.8906
 20
-9.8914
 11
19.01
 21
-9.84099
  0
LINE
  8
0
 10
19.01
 20
-9.84099
 11
19.1326
 21
-9.80078
  0
LINE
  8
0
 10
19.1326
 20
-9.80078
 11
19.2578
 21
-9.77104
  0
LINE
  8
0
 10
19.2578
 20
-9.77104
 11
19.3849
 21
-9.75203
  0
LINE
  8
0
 10
19.3849
 20
-9.75203
 11
19.5132
 21
-9.74397
  0
LINE
  8
0
 10
19.5132
 20
-9.74397
 11
19.6421
 21
-9.74715
  0
LINE
  8
0
 10
19.6421
 20
-9.74715
 11
19.7708
 21
-9.76178
  0
LINE
  8
0
 10
19.7708
 20
-9.76178
 11
19.8988
 21
-9.78813
  0
LINE
  8
0
 10
19.8988
 20
-9.78813
 11
20.0252
 21
-9.82648
  0
LINE
  8
0
 10
20.0252
 20
-9.82648
 11
20.5705
 21
-10.0928
  0
LINE
  8
0
 10
20.5705
 20
-10.0928
 11
20.721
 21
-10.1165
  0
LINE
  8
0
 10
20.721
 20
-10.1165
 11
20.8685
 21
-10.0863
  0
LINE
  8
0
 10
20.8685
 20
-10.0863
 11
20.9996
 21
-10.0073
  0
LINE
  8
0
 10
20.9996
 20
-10.0073
 11
21.082
 21
-9.90793
  0
LINE
  8
0
 10
21.082
 20
-9.90793
 11
21.2872
 21
-9.47766
  0
LINE
  8
0
 10
21.2872
 20
-9.47766
 11
21.4696
 21
-9.03726
  0
LINE
  8
0
 10
21.4696
 20
-9.03726
 11
21.4884
 21
-8.90959
  0
LINE
  8
0
 10
21.4884
 20
-8.90959
 11
21.4593
 21
-8.75922
  0
LINE
  8
0
 10
21.4593
 20
-8.75922
 11
21.3831
 21
-8.62941
  0
LINE
  8
0
 10
21.3831
 20
-8.62941
 11
21.2648
 21
-8.53345
  0
LINE
  8
0
 10
21.2648
 20
-8.53345
 11
20.702
 21
-8.30646
  0
LINE
  8
0
 10
20.702
 20
-8.30646
 11
20.589
 21
-8.23807
  0
LINE
  8
0
 10
20.589
 20
-8.23807
 11
20.4838
 21
-8.1606
  0
LINE
  8
0
 10
20.4838
 20
-8.1606
 11
20.3869
 21
-8.07468
  0
LINE
  8
0
 10
20.3869
 20
-8.07468
 11
20.2983
 21
-7.98102
  0
LINE
  8
0
 10
20.2983
 20
-7.98102
 11
20.2185
 21
-7.88025
  0
LINE
  8
0
 10
20.2185
 20
-7.88025
 11
20.1476
 21
-7.77309
  0
LINE
  8
0
 10
20.1476
 20
-7.77309
 11
20.0859
 21
-7.66014
  0
LINE
  8
0
 10
20.0859
 20
-7.66014
 11
20.0338
 21
-7.54213
  0
LINE
  8
0
 10
20.0338
 20
-7.54213
 11
19.9913
 21
-7.41969
  0
LINE
  8
0
 10
19.9913
 20
-7.41969
 11
19.9589
 21
-7.2935
  0
LINE
  8
0
 10
19.9589
 20
-7.2935
 11
19.9368
 21
-7.16423
  0
LINE
  8
0
 10
19.9368
 20
-7.16423
 11
19.9251
 21
-7.03256
  0
LINE
  8
0
 10
19.9251
 20
-7.03256
 11
19.9243
 21
-6.89914
  0
LINE
  8
0
 10
19.9243
 20
-6.89914
 11
19.9346
 21
-6.76465
  0
LINE
  8
0
 10
19.9346
 20
-6.76465
 11
19.9561
 21
-6.62975
  0
LINE
  8
0
 10
19.9561
 20
-6.62975
 11
19.9893
 21
-6.4951
  0
LINE
  8
0
 10
19.9893
 20
-6.4951
 11
20.0416
 21
-6.36656
  0
LINE
  8
0
 10
20.0416
 20
-6.36656
 11
20.1034
 21
-6.24461
  0
LINE
  8
0
 10
20.1034
 20
-6.24461
 11
20.1742
 21
-6.12967
  0
LINE
  8
0
 10
20.1742
 20
-6.12967
 11
20.2532
 21
-6.02213
  0
LINE
  8
0
 10
20.2532
 20
-6.02213
 11
20.34
 21
-5.92235
  0
LINE
  8
0
 10
20.34
 20
-5.92235
 11
20.4339
 21
-5.83075
  0
LINE
  8
0
 10
20.4339
 20
-5.83075
 11
20.5343
 21
-5.74767
  0
LINE
  8
0
 10
20.5343
 20
-5.74767
 11
20.6406
 21
-5.67354
  0
LINE
  8
0
 10
20.6406
 20
-5.67354
 11
20.7522
 21
-5.60872
  0
LINE
  8
0
 10
20.7522
 20
-5.60872
 11
20.8685
 21
-5.55359
  0
LINE
  8
0
 10
20.8685
 20
-5.55359
 11
20.9888
 21
-5.50858
  0
LINE
  8
0
 10
20.9888
 20
-5.50858
 11
21.1127
 21
-5.47401
  0
LINE
  8
0
 10
21.1127
 20
-5.47401
 11
21.2394
 21
-5.45033
  0
LINE
  8
0
 10
21.2394
 20
-5.45033
 11
21.3684
 21
-5.43788
  0
LINE
  8
0
 10
21.3684
 20
-5.43788
 11
21.499
 21
-5.43706
  0
LINE
  8
0
 10
21.499
 20
-5.43706
 11
21.6307
 21
-5.44826
  0
LINE
  8
0
 10
21.6307
 20
-5.44826
 11
22.2194
 21
-5.5954
  0
LINE
  8
0
 10
22.2194
 20
-5.5954
 11
22.3715
 21
-5.58731
  0
LINE
  8
0
 10
22.3715
 20
-5.58731
 11
22.5095
 21
-5.5271
  0
LINE
  8
0
 10
22.5095
 20
-5.5271
 11
22.6214
 21
-5.42252
  0
LINE
  8
0
 10
22.6214
 20
-5.42252
 11
22.6813
 21
-5.30821
  0
LINE
  8
0
 10
22.6813
 20
-5.30821
 11
22.7925
 21
-4.8447
  0
LINE
  8
0
 10
22.7925
 20
-4.8447
 11
22.8794
 21
-4.37599
  0
LINE
  8
0
 10
22.8794
 20
-4.37599
 11
22.8712
 21
-4.24722
  0
LINE
  8
0
 10
22.8712
 20
-4.24722
 11
22.8115
 21
-4.10617
  0
LINE
  8
0
 10
22.8115
 20
-4.10617
 11
22.71
 21
-3.99504
  0
LINE
  8
0
 10
22.71
 20
-3.99504
 11
22.5743
 21
-3.92578
  0
LINE
  8
0
 10
22.5743
 20
-3.92578
 11
21.9766
 21
-3.82076
  0
LINE
  8
0
 10
21.9766
 20
-3.82076
 11
21.8518
 21
-3.77736
  0
LINE
  8
0
 10
21.8518
 20
-3.77736
 11
21.7329
 21
-3.72343
  0
LINE
  8
0
 10
21.7329
 20
-3.72343
 11
21.6202
 21
-3.65956
  0
LINE
  8
0
 10
21.6202
 20
-3.65956
 11
21.5141
 21
-3.58635
  0
LINE
  8
0
 10
21.5141
 20
-3.58635
 11
21.4151
 21
-3.50439
  0
LINE
  8
0
 10
21.4151
 20
-3.50439
 11
21.3235
 21
-3.41429
  0
LINE
  8
0
 10
21.3235
 20
-3.41429
 11
21.2397
 21
-3.31664
  0
LINE
  8
0
 10
21.2397
 20
-3.31664
 11
21.1641
 21
-3.21207
  0
LINE
  8
0
 10
21.1641
 20
-3.21207
 11
21.0971
 21
-3.10112
  0
LINE
  8
0
 10
21.0971
 20
-3.10112
 11
21.0392
 21
-2.98444
  0
LINE
  8
0
 10
21.0392
 20
-2.98444
 11
20.9906
 21
-2.86258
  0
LINE
  8
0
 10
20.9906
 20
-2.86258
 11
20.9519
 21
-2.73621
  0
LINE
  8
0
 10
20.9519
 20
-2.73621
 11
20.9233
 21
-2.60588
  0
LINE
  8
0
 10
20.9233
 20
-2.60588
 11
20.9054
 21
-2.47218
  0
LINE
  8
0
 10
20.9054
 20
-2.47218
 11
20.8985
 21
-2.33574
  0
LINE
  8
0
 10
20.8985
 20
-2.33574
 11
20.9029
 21
-2.19716
  0
LINE
  8
0
 10
20.9029
 20
-2.19716
 11
20.9273
 21
-2.06055
  0
LINE
  8
0
 10
20.9273
 20
-2.06055
 11
20.9624
 21
-1.92842
  0
LINE
  8
0
 10
20.9624
 20
-1.92842
 11
21.0078
 21
-1.80128
  0
LINE
  8
0
 10
21.0078
 20
-1.80128
 11
21.0627
 21
-1.67964
  0
LINE
  8
0
 10
21.0627
 20
-1.67964
 11
21.1269
 21
-1.564
  0
LINE
  8
0
 10
21.1269
 20
-1.564
 11
21.1997
 21
-1.45488
  0
LINE
  8
0
 10
21.1997
 20
-1.45488
 11
21.2806
 21
-1.35274
  0
LINE
  8
0
 10
21.2806
 20
-1.35274
 11
21.3692
 21
-1.25813
  0
LINE
  8
0
 10
21.3692
 20
-1.25813
 11
21.4648
 21
-1.17152
  0
LINE
  8
0
 10
21.4648
 20
-1.17152
 11
21.5671
 21
-1.09343
  0
LINE
  8
0
 10
21.5671
 20
-1.09343
 11
21.6755
 21
-1.02437
  0
LINE
  8
0
 10
21.6755
 20
-1.02437
 11
21.7894
 21
-0.964813
  0
LINE
  8
0
 10
21.7894
 20
-0.964813
 11
21.9085
 21
-0.915314
  0
LINE
  8
0
 10
21.9085
 20
-0.915314
 11
22.032
 21
-0.876312
  0
LINE
  8
0
 10
22.032
 20
-0.876312
 11
22.1596
 21
-0.848343
  0
LINE
  8
0
 10
22.1596
 20
-0.848343
 11
22.2908
 21
-0.831924
  0
LINE
  8
0
 10
22.2908
 20
-0.831924
 11
22.8972
 21
-0.853455
  0
LINE
  8
0
 10
22.8972
 20
-0.853455
 11
23.0443
 21
-0.813904
  0
LINE
  8
0
 10
23.0443
 20
-0.813904
 11
23.1667
 21
-0.726334
  0
LINE
  8
0
 10
23.1667
 20
-0.726334
 11
23.2545
 21
-0.600769
  0
LINE
  8
0
 10
23.2545
 20
-0.600769
 11
23.2893
 21
-0.476532
  0
LINE
  8
0
 10
23.2893
 20
-0.476532
 11
23.3017
 21
0
  0
LINE
  8
0
 10
23.3017
 20
0
 11
23.2893
 21
0.476532
  0
LINE
  8
0
 10
23.2893
 20
0.476532
 11
23.2545
 21
0.600769
  0
LINE
  8
0
 10
23.2545
 20
0.600769
 11
23.1667
 21
0.726334
  0
LINE
  8
0
 10
23.1667
 20
0.726334
 11
23.0443
 21
0.813904
  0
LINE
  8
0
 10
23.0443
 20
0.813904
 11
22.8972
 21
0.853455
  0
LINE
  8
0
 10
22.8972
 20
0.853455
 11
22.2908
 21
0.831924
  0
LINE
  8
0
 10
22.2908
 20
0.831924
 11
22.1597
 21
0.848419
  0
LINE
  8
0
 10
22.1597
 20
0.848419
 11
22.0321
 21
0.876434
  0
LINE
  8
0
 10
22.0321
 20
0.876434
 11
21.9086
 21
0.915482
  0
LINE
  8
0
 10
21.9086
 20
0.915482
 11
21.7896
 21
0.965042
  0
LINE
  8
0
 10
21.7896
 20
0.965042
 11
21.6757
 21
1.02461
  0
LINE
  8
0
 10
21.6757
 20
1.02461
 11
21.5674
 21
1.09369
  0
LINE
  8
0
 10
21.5674
 20
1.09369
 11
21.4651
 21
1.1718
  0
LINE
  8
0
 10
21.4651
 20
1.1718
 11
21.3694
 21
1.25838
  0
LINE
  8
0
 10
21.3694
 20
1.25838
 11
21.2809
 21
1.35298
  0
LINE
  8
0
 10
21.2809
 20
1.35298
 11
21.1999
 21
1.45506
  0
LINE
  8
0
 10
21.1999
 20
1.45506
 11
21.1271
 21
1.56415
  0
LINE
  8
0
 10
21.1271
 20
1.56415
 11
21.0629
 21
1.67972
  0
LINE
  8
0
 10
21.0629
 20
1.67972
 11
21.0079
 21
1.80125
  0
LINE
  8
0
 10
21.0079
 20
1.80125
 11
20.9626
 21
1.9283
  0
LINE
  8
0
 10
20.9626
 20
1.9283
 11
20.9274
 21
2.06032
  0
LINE
  8
0
 10
20.9274
 20
2.06032
 11
20.9029
 21
2.19681
  0
LINE
  8
0
 10
20.9029
 20
2.19681
 11
20.8984
 21
2.33549
  0
LINE
  8
0
 10
20.8984
 20
2.33549
 11
20.9053
 21
2.47205
  0
LINE
  8
0
 10
20.9053
 20
2.47205
 11
20.9232
 21
2.60583
  0
LINE
  8
0
 10
20.9232
 20
2.60583
 11
20.9517
 21
2.73624
  0
LINE
  8
0
 10
20.9517
 20
2.73624
 11
20.9904
 21
2.86269
  0
LINE
  8
0
 10
20.9904
 20
2.86269
 11
21.0389
 21
2.98457
  0
LINE
  8
0
 10
21.0389
 20
2.98457
 11
21.0968
 21
3.1013
  0
LINE
  8
0
 10
21.0968
 20
3.1013
 11
21.1638
 21
3.21225
  0
LINE
  8
0
 10
21.1638
 20
3.21225
 11
21.2394
 21
3.31685
  0
LINE
  8
0
 10
21.2394
 20
3.31685
 11
21.3232
 21
3.41451
  0
LINE
  8
0
 10
21.3232
 20
3.41451
 11
21.4148
 21
3.50459
  0
LINE
  8
0
 10
21.4148
 20
3.50459
 11
21.5139
 21
3.58653
  0
LINE
  8
0
 10
21.5139
 20
3.58653
 11
21.62
 21
3.6597
  0
LINE
  8
0
 10
21.62
 20
3.6597
 11
21.7328
 21
3.72354
  0
LINE
  8
0
 10
21.7328
 20
3.72354
 11
21.8518
 21
3.77742
  0
LINE
  8
0
 10
21.8518
 20
3.77742
 11
21.9766
 21
3.82076
  0
LINE
  8
0
 10
21.9766
 20
3.82076
 11
22.5743
 21
3.92578
  0
LINE
  8
0
 10
22.5743
 20
3.92578
 11
22.71
 21
3.99504
  0
LINE
  8
0
 10
22.71
 20
3.99504
 11
22.8115
 21
4.10617
  0
LINE
  8
0
 10
22.8115
 20
4.10617
 11
22.8712
 21
4.24722
  0
LINE
  8
0
 10
22.8712
 20
4.24722
 11
22.8794
 21
4.37599
  0
LINE
  8
0
 10
22.8794
 20
4.37599
 11
22.7925
 21
4.8447
  0
LINE
  8
0
 10
22.7925
 20
4.8447
 11
22.6813
 21
5.30821
  0
LINE
  8
0
 10
22.6813
 20
5.30821
 11
22.6214
 21
5.42252
  0
LINE
  8
0
 10
22.6214
 20
5.42252
 11
22.5095
 21
5.5271
  0
LINE
  8
0
 10
22.5095
 20
5.5271
 11
22.3715
 21
5.58731
  0
LINE
  8
0
 10
22.3715
 20
5.58731
 11
22.2194
 21
5.5954
  0
LINE
  8
0
 10
22.2194
 20
5.5954
 11
21.6307
 21
5.44826
  0
LINE
  8
0
 10
21.6307
 20
5.44826
 11
21.499
 21
5.43713
  0
LINE
  8
0
 10
21.499
 20
5.43713
 11
21.3685
 21
5.43802
  0
LINE
  8
0
 10
21.3685
 20
5.43802
 11
21.2395
 21
5.45053
  0
LINE
  8
0
 10
21.2395
 20
5.45053
 11
21.1128
 21
5.47427
  0
LINE
  8
0
 10
21.1128
 20
5.47427
 11
20.989
 21
5.50887
  0
LINE
  8
0
 10
20.989
 20
5.50887
 11
20.8687
 21
5.55391
  0
LINE
  8
0
 10
20.8687
 20
5.55391
 11
20.7524
 21
5.60904
  0
LINE
  8
0
 10
20.7524
 20
5.60904
 11
20.6408
 21
5.67383
  0
LINE
  8
0
 10
20.6408
 20
5.67383
 11
20.5345
 21
5.74796
  0
LINE
  8
0
 10
20.5345
 20
5.74796
 11
20.4341
 21
5.83098
  0
LINE
  8
0
 10
20.4341
 20
5.83098
 11
20.3402
 21
5.92255
  0
LINE
  8
0
 10
20.3402
 20
5.92255
 11
20.2534
 21
6.02223
  0
LINE
  8
0
 10
20.2534
 20
6.02223
 11
20.1743
 21
6.12968
  0
LINE
  8
0
 10
20.1743
 20
6.12968
 11
20.1036
 21
6.24452
  0
LINE
  8
0
 10
20.1036
 20
6.24452
 11
20.0417
 21
6.36635
  0
LINE
  8
0
 10
20.0417
 20
6.36635
 11
19.9894
 21
6.49477
  0
LINE
  8
0
 10
19.9894
 20
6.49477
 11
19.9562
 21
6.62949
  0
LINE
  8
0
 10
19.9562
 20
6.62949
 11
19.9345
 21
6.76448
  0
LINE
  8
0
 10
19.9345
 20
6.76448
 11
19.9242
 21
6.89906
  0
LINE
  8
0
 10
19.9242
 20
6.89906
 11
19.9249
 21
7.03255
  0
LINE
  8
0
 10
19.9249
 20
7.03255
 11
19.9365
 21
7.16428
  0
LINE
  8
0
 10
19.9365
 20
7.16428
 11
19.9586
 21
7.29358
  0
LINE
  8
0
 10
19.9586
 20
7.29358
 11
19.991
 21
7.41982
  0
LINE
  8
0
 10
19.991
 20
7.41982
 11
20.0334
 21
7.54227
  0
LINE
  8
0
 10
20.0334
 20
7.54227
 11
20.0856
 21
7.66028
  0
LINE
  8
0
 10
20.0856
 20
7.66028
 11
20.1473
 21
7.77322
  0
LINE
  8
0
 10
20.1473
 20
7.77322
 11
20.2182
 21
7.8804
  0
LINE
  8
0
 10
20.2182
 20
7.8804
 11
20.2981
 21
7.98116
  0
LINE
  8
0
 10
20.2981
 20
7.98116
 11
20.3867
 21
8.07478
  0
LINE
  8
0
 10
20.3867
 20
8.07478
 11
20.4837
 21
8.16068
  0
LINE
  8
0
 10
20.4837
 20
8.16068
 11
20.5889
 21
8.23811
  0
LINE
  8
0
 10
20.5889
 20
8.23811
 11
20.702
 21
8.30646
  0
LINE
  8
0
 10
20.702
 20
8.30646
 11
21.2648
 21
8.53345
  0
LINE
  8
0
 10
21.2648
 20
8.53345
 11
21.3831
 21
8.62941
  0
LINE
  8
0
 10
21.3831
 20
8.62941
 11
21.4593
 21
8.75922
  0
LINE
  8
0
 10
21.4593
 20
8.75922
 11
21.4884
 21
8.90959
  0
LINE
  8
0
 10
21.4884
 20
8.90959
 11
21.4696
 21
9.03726
  0
LINE
  8
0
 10
21.4696
 20
9.03726
 11
21.2872
 21
9.47766
  0
LINE
  8
0
 10
21.2872
 20
9.47766
 11
21.082
 21
9.90793
  0
LINE
  8
0
 10
21.082
 20
9.90793
 11
20.9996
 21
10.0073
  0
LINE
  8
0
 10
20.9996
 20
10.0073
 11
20.8685
 21
10.0863
  0
LINE
  8
0
 10
20.8685
 20
10.0863
 11
20.721
 21
10.1165
  0
LINE
  8
0
 10
20.721
 20
10.1165
 11
20.5705
 21
10.0928
  0
LINE
  8
0
 10
20.5705
 20
10.0928
 11
20.0252
 21
9.82648
  0
LINE
  8
0
 10
20.0252
 20
9.82648
 11
19.8988
 21
9.78822
  0
LINE
  8
0
 10
19.8988
 20
9.78822
 11
19.7709
 21
9.76193
  0
LINE
  8
0
 10
19.7709
 20
9.76193
 11
19.6421
 21
9.74736
  0
LINE
  8
0
 10
19.6421
 20
9.74736
 11
19.5133
 21
9.74425
  0
LINE
  8
0
 10
19.5133
 20
9.74425
 11
19.385
 21
9.75233
  0
LINE
  8
0
 10
19.385
 20
9.75233
 11
19.2579
 21
9.77138
  0
LINE
  8
0
 10
19.2579
 20
9.77138
 11
19.1327
 21
9.80113
  0
LINE
  8
0
 10
19.1327
 20
9.80113
 11
19.0101
 21
9.84131
  0
LINE
  8
0
 10
19.0101
 20
9.84131
 11
18.8907
 21
9.89171
  0
LINE
  8
0
 10
18.8907
 20
9.89171
 11
18.7753
 21
9.95204
  0
LINE
  8
0
 10
18.7753
 20
9.95204
 11
18.6644
 21
10.0221
  0
LINE
  8
0
 10
18.6644
 20
10.0221
 11
18.5587
 21
10.1016
  0
LINE
  8
0
 10
18.5587
 20
10.1016
 11
18.459
 21
10.1902
  0
LINE
  8
0
 10
18.459
 20
10.1902
 11
18.366
 21
10.2878
  0
LINE
  8
0
 10
18.366
 20
10.2878
 11
18.2801
 21
10.3941
  0
LINE
  8
0
 10
18.2801
 20
10.3941
 11
18.2023
 21
10.5089
  0
LINE
  8
0
 10
18.2023
 20
10.5089
 11
18.1417
 21
10.6337
  0
LINE
  8
0
 10
18.1417
 20
10.6337
 11
18.0925
 21
10.7613
  0
LINE
  8
0
 10
18.0925
 20
10.7613
 11
18.0544
 21
10.8908
  0
LINE
  8
0
 10
18.0544
 20
10.8908
 11
18.0274
 21
11.0215
  0
LINE
  8
0
 10
18.0274
 20
11.0215
 11
18.0113
 21
11.1528
  0
LINE
  8
0
 10
18.0113
 20
11.1528
 11
18.0061
 21
11.2838
  0
LINE
  8
0
 10
18.0061
 20
11.2838
 11
18.0115
 21
11.414
  0
LINE
  8
0
 10
18.0115
 20
11.414
 11
18.0275
 21
11.5426
  0
LINE
  8
0
 10
18.0275
 20
11.5426
 11
18.054
 21
11.6689
  0
LINE
  8
0
 10
18.054
 20
11.6689
 11
18.0909
 21
11.7922
  0
LINE
  8
0
 10
18.0909
 20
11.7922
 11
18.138
 21
11.9118
  0
LINE
  8
0
 10
18.138
 20
11.9118
 11
18.1951
 21
12.0269
  0
LINE
  8
0
 10
18.1951
 20
12.0269
 11
18.2623
 21
12.137
  0
LINE
  8
0
 10
18.2623
 20
12.137
 11
18.3394
 21
12.2411
  0
LINE
  8
0
 10
18.3394
 20
12.2411
 11
18.4262
 21
12.3388
  0
LINE
  8
0
 10
18.4262
 20
12.3388
 11
18.5226
 21
12.4291
  0
LINE
  8
0
 10
18.5226
 20
12.4291
 11
19.0259
 21
12.7682
  0
LINE
  8
0
 10
19.0259
 20
12.7682
 11
19.1216
 21
12.8866
  0
LINE
  8
0
 10
19.1216
 20
12.8866
 11
19.1692
 21
13.0294
  0
LINE
  8
0
 10
19.1692
 20
13.0294
 11
19.1664
 21
13.1826
  0
LINE
  8
0
 10
19.1664
 20
13.1826
 11
19.1215
 21
13.3036
  0
LINE
  8
0
 10
19.1215
 20
13.3036
 11
18.8515
 21
13.6964
  0
LINE
  8
0
 10
18.8515
 20
13.6964
 11
18.5613
 21
14.0746
  0
LINE
  8
0
 10
18.5613
 20
14.0746
 11
18.4601
 21
14.1547
  0
LINE
  8
0
 10
18.4601
 20
14.1547
 11
18.3154
 21
14.2047
  0
LINE
  8
0
 10
18.3154
 20
14.2047
 11
18.1648
 21
14.2036
  0
LINE
  8
0
 10
18.1648
 20
14.2036
 11
18.0226
 21
14.1491
  0
LINE
  8
0
 10
18.0226
 20
14.1491
 11
17.5446
 21
13.7752
  0
LINE
  8
0
 10
17.5446
 20
13.7752
 11
17.4289
 21
13.7115
  0
LINE
  8
0
 10
17.4289
 20
13.7115
 11
17.3092
 21
13.6592
  0
LINE
  8
0
 10
17.3092
 20
13.6592
 11
17.1863
 21
13.6182
  0
LINE
  8
0
 10
17.1863
 20
13.6182
 11
17.0609
 21
13.5883
  0
LINE
  8
0
 10
17.0609
 20
13.5883
 11
16.9337
 21
13.5696
  0
LINE
  8
0
 10
16.9337
 20
13.5696
 11
16.8055
 21
13.5618
  0
LINE
  8
0
 10
16.8055
 20
13.5618
 11
16.6768
 21
13.5649
  0
LINE
  8
0
 10
16.6768
 20
13.5649
 11
16.5486
 21
13.5787
  0
LINE
  8
0
 10
16.5486
 20
13.5787
 11
16.4213
 21
13.6031
  0
LINE
  8
0
 10
16.4213
 20
13.6031
 11
16.2958
 21
13.6382
  0
LINE
  8
0
 10
16.2958
 20
13.6382
 11
16.1728
 21
13.6836
  0
LINE
  8
0
 10
16.1728
 20
13.6836
 11
16.0529
 21
13.7394
  0
LINE
  8
0
 10
16.0529
 20
13.7394
 11
15.937
 21
13.8054
  0
LINE
  8
0
 10
15.937
 20
13.8054
 11
15.8256
 21
13.8815
  0
LINE
  8
0
 10
15.8256
 20
13.8815
 11
15.7196
 21
13.9677
  0
LINE
  8
0
 10
15.7196
 20
13.9677
 11
15.6196
 21
14.0637
  0
LINE
  8
0
 10
15.6196
 20
14.0637
 11
15.5344
 21
14.1732
  0
LINE
  8
0
 10
15.5344
 20
14.1732
 11
15.4597
 21
14.2878
  0
LINE
  8
0
 10
15.4597
 20
14.2878
 11
15.3955
 21
14.4065
  0
LINE
  8
0
 10
15.3955
 20
14.4065
 11
15.3419
 21
14.5287
  0
LINE
  8
0
 10
15.3419
 20
14.5287
 11
15.2989
 21
14.6538
  0
LINE
  8
0
 10
15.2989
 20
14.6538
 11
15.2665
 21
14.7809
  0
LINE
  8
0
 10
15.2665
 20
14.7809
 11
15.2448
 21
14.9094
  0
LINE
  8
0
 10
15.2448
 20
14.9094
 11
15.2337
 21
15.0385
  0
LINE
  8
0
 10
15.2337
 20
15.0385
 11
15.2334
 21
15.1676
  0
LINE
  8
0
 10
15.2334
 20
15.1676
 11
15.2438
 21
15.2958
  0
LINE
  8
0
 10
15.2438
 20
15.2958
 11
15.265
 21
15.4226
  0
LINE
  8
0
 10
15.265
 20
15.4226
 11
15.297
 21
15.5471
  0
LINE
  8
0
 10
15.297
 20
15.5471
 11
15.3398
 21
15.6687
  0
LINE
  8
0
 10
15.3398
 20
15.6687
 11
15.3935
 21
15.7866
  0
LINE
  8
0
 10
15.3935
 20
15.7866
 11
15.4581
 21
15.9001
  0
LINE
  8
0
 10
15.4581
 20
15.9001
 11
15.5337
 21
16.0086
  0
LINE
  8
0
 10
15.5337
 20
16.0086
 11
15.9555
 21
16.4449
  0
LINE
  8
0
 10
15.9555
 20
16.4449
 11
16.0245
 21
16.5806
  0
LINE
  8
0
 10
16.0245
 20
16.5806
 11
16.0414
 21
16.7302
  0
LINE
  8
0
 10
16.0414
 20
16.7302
 11
16.0067
 21
16.8794
  0
LINE
  8
0
 10
16.0067
 20
16.8794
 11
15.9377
 21
16.9884
  0
LINE
  8
0
 10
15.9377
 20
16.9884
 11
15.5919
 21
17.3166
  0
LINE
  8
0
 10
15.5919
 20
17.3166
 11
15.2294
 21
17.6261
  0
LINE
  8
0
 10
15.2294
 20
17.6261
 11
15.1138
 21
17.6834
  0
LINE
  8
0
 10
15.1138
 20
17.6834
 11
14.9618
 21
17.7023
  0
LINE
  8
0
 10
14.9618
 20
17.7023
 11
14.8148
 21
17.6699
  0
LINE
  8
0
 10
14.8148
 20
17.6699
 11
14.687
 21
17.587
  0
LINE
  8
0
 10
14.687
 20
17.587
 11
14.2972
 21
17.1219
  0
LINE
  8
0
 10
14.2972
 20
17.1219
 11
14.1972
 21
17.0356
  0
LINE
  8
0
 10
14.1972
 20
17.0356
 11
14.091
 21
16.9595
  0
LINE
  8
0
 10
14.091
 20
16.9595
 11
13.9794
 21
16.8938
  0
LINE
  8
0
 10
13.9794
 20
16.8938
 11
13.8629
 21
16.8386
  0
LINE
  8
0
 10
13.8629
 20
16.8386
 11
13.7424
 21
16.7938
  0
LINE
  8
0
 10
13.7424
 20
16.7938
 11
13.6186
 21
16.7595
  0
LINE
  8
0
 10
13.6186
 20
16.7595
 11
13.4921
 21
16.7357
  0
LINE
  8
0
 10
13.4921
 20
16.7357
 11
13.3638
 21
16.7226
  0
LINE
  8
0
 10
13.3638
 20
16.7226
 11
13.2342
 21
16.7201
  0
LINE
  8
0
 10
13.2342
 20
16.7201
 11
13.1042
 21
16.7282
  0
LINE
  8
0
 10
13.1042
 20
16.7282
 11
12.9744
 21
16.7471
  0
LINE
  8
0
 10
12.9744
 20
16.7471
 11
12.8456
 21
16.7767
  0
LINE
  8
0
 10
12.8456
 20
16.7767
 11
12.7184
 21
16.8172
  0
LINE
  8
0
 10
12.7184
 20
16.8172
 11
12.5937
 21
16.8685
  0
LINE
  8
0
 10
12.5937
 20
16.8685
 11
12.472
 21
16.9307
  0
LINE
  8
0
 10
12.472
 20
16.9307
 11
12.3542
 21
17.0039
  0
LINE
  8
0
 10
12.3542
 20
17.0039
 11
12.2482
 21
17.0933
  0
LINE
  8
0
 10
12.2482
 20
17.0933
 11
12.1513
 21
17.1898
  0
LINE
  8
0
 10
12.1513
 20
17.1898
 11
12.0638
 21
17.2926
  0
LINE
  8
0
 10
12.0638
 20
17.2926
 11
11.986
 21
17.401
  0
LINE
  8
0
 10
11.986
 20
17.401
 11
11.9179
 21
17.5144
  0
LINE
  8
0
 10
11.9179
 20
17.5144
 11
11.8598
 21
17.632
  0
LINE
  8
0
 10
11.8598
 20
17.632
 11
11.8118
 21
17.7532
  0
LINE
  8
0
 10
11.8118
 20
17.7532
 11
11.7742
 21
17.8772
  0
LINE
  8
0
 10
11.7742
 20
17.8772
 11
11.747
 21
18.0033
  0
LINE
  8
0
 10
11.747
 20
18.0033
 11
11.7305
 21
18.131
  0
LINE
  8
0
 10
11.7305
 20
18.131
 11
11.7249
 21
18.2593
  0
LINE
  8
0
 10
11.7249
 20
18.2593
 11
11.7303
 21
18.3878
  0
LINE
  8
0
 10
11.7303
 20
18.3878
 11
11.7469
 21
18.5156
  0
LINE
  8
0
 10
11.7469
 20
18.5156
 11
11.7749
 21
18.6421
  0
LINE
  8
0
 10
11.7749
 20
18.6421
 11
11.8145
 21
18.7666
  0
LINE
  8
0
 10
11.8145
 20
18.7666
 11
11.8658
 21
18.8884
  0
LINE
  8
0
 10
11.8658
 20
18.8884
 11
12.1877
 21
19.4028
  0
LINE
  8
0
 10
12.1877
 20
19.4028
 11
12.227
 21
19.55
  0
LINE
  8
0
 10
12.227
 20
19.55
 11
12.2124
 21
19.6998
  0
LINE
  8
0
 10
12.2124
 20
19.6998
 11
12.1475
 21
19.8386
  0
LINE
  8
0
 10
12.1475
 20
19.8386
 11
12.0573
 21
19.9308
  0
LINE
  8
0
 10
12.0573
 20
19.9308
 11
11.6509
 21
20.1799
  0
LINE
  8
0
 10
11.6509
 20
20.1799
 11
11.2319
 21
20.4073
  0
LINE
  8
0
 10
11.2319
 20
20.4073
 11
11.1069
 21
20.4393
  0
LINE
  8
0
 10
11.1069
 20
20.4393
 11
10.9543
 21
20.4262
  0
LINE
  8
0
 10
10.9543
 20
20.4262
 11
10.8173
 21
20.3639
  0
LINE
  8
0
 10
10.8173
 20
20.3639
 11
10.7095
 21
20.2563
  0
LINE
  8
0
 10
10.7095
 20
20.2563
 11
10.4249
 21
19.7203
  0
LINE
  8
0
 10
10.4249
 20
19.7203
 11
10.3451
 21
19.6151
  0
LINE
  8
0
 10
10.3451
 20
19.6151
 11
10.257
 21
19.5186
  0
LINE
  8
0
 10
10.257
 20
19.5186
 11
10.1615
 21
19.4311
  0
LINE
  8
0
 10
10.1615
 20
19.4311
 11
10.0591
 21
19.3529
  0
LINE
  8
0
 10
10.0591
 20
19.3529
 11
9.95049
 21
19.284
  0
LINE
  8
0
 10
9.95049
 20
19.284
 11
9.8365
 21
19.2247
  0
LINE
  8
0
 10
9.8365
 20
19.2247
 11
9.71773
 21
19.1752
  0
LINE
  8
0
 10
9.71773
 20
19.1752
 11
9.59491
 21
19.1357
  0
LINE
  8
0
 10
9.59491
 20
19.1357
 11
9.4687
 21
19.1062
  0
LINE
  8
0
 10
9.4687
 20
19.1062
 11
9.33983
 21
19.0872
  0
LINE
  8
0
 10
9.33983
 20
19.0872
 11
9.20894
 21
19.0787
  0
LINE
  8
0
 10
9.20894
 20
19.0787
 11
9.07678
 21
19.0809
  0
LINE
  8
0
 10
9.07678
 20
19.0809
 11
8.944
 21
19.094
  0
LINE
  8
0
 10
8.944
 20
19.094
 11
8.81131
 21
19.1183
  0
LINE
  8
0
 10
8.81131
 20
19.1183
 11
8.67941
 21
19.1538
  0
LINE
  8
0
 10
8.67941
 20
19.1538
 11
8.54897
 21
19.2009
  0
LINE
  8
0
 10
8.54897
 20
19.2009
 11
8.42661
 21
19.2663
  0
LINE
  8
0
 10
8.42661
 20
19.2663
 11
8.31178
 21
19.3406
  0
LINE
  8
0
 10
8.31178
 20
19.3406
 11
8.20486
 21
19.4229
  0
LINE
  8
0
 10
8.20486
 20
19.4229
 11
8.10619
 21
19.5128
  0
LINE
  8
0
 10
8.10619
 20
19.5128
 11
8.01602
 21
19.6096
  0
LINE
  8
0
 10
8.01602
 20
19.6096
 11
7.93472
 21
19.7125
  0
LINE
  8
0
 10
7.93472
 20
19.7125
 11
7.86261
 21
19.821
  0
LINE
  8
0
 10
7.86261
 20
19.821
 11
7.79999
 21
19.9345
  0
LINE
  8
0
 10
7.79999
 20
19.9345
 11
7.74719
 21
20.0523
  0
LINE
  8
0
 10
7.74719
 20
20.0523
 11
7.70453
 21
20.1737
  0
LINE
  8
0
 10
7.70453
 20
20.1737
 11
7.67233
 21
20.2981
  0
LINE
  8
0
 10
7.67233
 20
20.2981
 11
7.65091
 21
20.4249
  0
LINE
  8
0
 10
7.65091
 20
20.4249
 11
7.64059
 21
20.5533
  0
LINE
  8
0
 10
7.64059
 20
20.5533
 11
7.64169
 21
20.6829
  0
LINE
  8
0
 10
7.64169
 20
20.6829
 11
7.65453
 21
20.8129
  0
LINE
  8
0
 10
7.65453
 20
20.8129
 11
7.67943
 21
20.9427
  0
LINE
  8
0
 10
7.67943
 20
20.9427
 11
7.8873
 21
21.5128
  0
LINE
  8
0
 10
7.8873
 20
21.5128
 11
7.89516
 21
21.6649
  0
LINE
  8
0
 10
7.89516
 20
21.6649
 11
7.8497
 21
21.8084
  0
LINE
  8
0
 10
7.8497
 20
21.8084
 11
7.7574
 21
21.9307
  0
LINE
  8
0
 10
7.7574
 20
21.9307
 11
7.64998
 21
22.0021
  0
LINE
  8
0
 10
7.64998
 20
22.0021
 11
7.20062
 21
22.1613
  0
LINE
  8
0
 10
7.20062
 20
22.1613
 11
6.74356
 21
22.2967
  0
LINE
  8
0
 10
6.74356
 20
22.2967
 11
6.61464
 21
22.302
  0
LINE
  8
0
 10
6.61464
 20
22.302
 11
6.46812
 21
22.2573
  0
LINE
  8
0
 10
6.46812
 20
22.2573
 11
6.347
 21
22.168
  0
LINE
  8
0
 10
6.347
 20
22.168
 11
6.26393
 21
22.0403
  0
LINE
  8
0
 10
6.26393
 20
22.0403
 11
6.097
 21
21.4568
  0
LINE
  8
0
 10
6.097
 20
21.4568
 11
6.0408
 21
21.3373
  0
LINE
  8
0
 10
6.0408
 20
21.3373
 11
5.97475
 21
21.2246
  0
LINE
  8
0
 10
5.97475
 20
21.2246
 11
5.89944
 21
21.1192
  0
LINE
  8
0
 10
5.89944
 20
21.1192
 11
5.81554
 21
21.0214
  0
LINE
  8
0
 10
5.81554
 20
21.0214
 11
5.72368
 21
20.9314
  0
LINE
  8
0
 10
5.72368
 20
20.9314
 11
5.6245
 21
20.8497
  0
LINE
  8
0
 10
5.6245
 20
20.8497
 11
5.51862
 21
20.7766
  0
LINE
  8
0
 10
5.51862
 20
20.7766
 11
5.40671
 21
20.7124
  0
LINE
  8
0
 10
5.40671
 20
20.7124
 11
5.28938
 21
20.6574
  0
LINE
  8
0
 10
5.28938
 20
20.6574
 11
5.16728
 21
20.612
  0
LINE
  8
0
 10
5.16728
 20
20.612
 11
5.04102
 21
20.5764
  0
LINE
  8
0
 10
5.04102
 20
20.5764
 11
4.91129
 21
20.5511
  0
LINE
  8
0
 10
4.91129
 20
20.5511
 11
4.77869
 21
20.5363
  0
LINE
  8
0
 10
4.77869
 20
20.5363
 11
4.64386
 21
20.5325
  0
LINE
  8
0
 10
4.64386
 20
20.5325
 11
4.50743
 21
20.5398
  0
LINE
  8
0
 10
4.50743
 20
20.5398
 11
4.37007
 21
20.5587
  0
LINE
  8
0
 10
4.37007
 20
20.5587
 11
4.23677
 21
20.5973
  0
LINE
  8
0
 10
4.23677
 20
20.5973
 11
4.10902
 21
20.646
  0
LINE
  8
0
 10
4.10902
 20
20.646
 11
3.98732
 21
20.7044
  0
LINE
  8
0
 10
3.98732
 20
20.7044
 11
3.8721
 21
20.7718
  0
LINE
  8
0
 10
3.8721
 20
20.7718
 11
3.76379
 21
20.8477
  0
LINE
  8
0
 10
3.76379
 20
20.8477
 11
3.66287
 21
20.9315
  0
LINE
  8
0
 10
3.66287
 20
20.9315
 11
3.56976
 21
21.0226
  0
LINE
  8
0
 10
3.56976
 20
21.0226
 11
3.48492
 21
21.1206
  0
LINE
  8
0
 10
3.48492
 20
21.1206
 11
3.4088
 21
21.2248
  0
LINE
  8
0
 10
3.4088
 20
21.2248
 11
3.34181
 21
21.3347
  0
LINE
  8
0
 10
3.34181
 20
21.3347
 11
3.28447
 21
21.4497
  0
LINE
  8
0
 10
3.28447
 20
21.4497
 11
3.23715
 21
21.5692
  0
LINE
  8
0
 10
3.23715
 20
21.5692
 11
3.20035
 21
21.6928
  0
LINE
  8
0
 10
3.20035
 20
21.6928
 11
3.17448
 21
21.8197
  0
LINE
  8
0
 10
3.17448
 20
21.8197
 11
3.16002
 21
21.9495
  0
LINE
  8
0
 10
3.16002
 20
21.9495
 11
3.15738
 21
22.0817
  0
LINE
  8
0
 10
3.15738
 20
22.0817
 11
3.24219
 21
22.6826
  0
LINE
  8
0
 10
3.24219
 20
22.6826
 11
3.21823
 21
22.833
  0
LINE
  8
0
 10
3.21823
 20
22.833
 11
3.14394
 21
22.9639
  0
LINE
  8
0
 10
3.14394
 20
22.9639
 11
3.02823
 21
23.0643
  0
LINE
  8
0
 10
3.02823
 20
23.0643
 11
2.90831
 21
23.1119
  0
LINE
  8
0
 10
2.90831
 20
23.1119
 11
2.43568
 21
23.1741
  0
LINE
  8
0
 10
2.43568
 20
23.1741
 11
1.96046
 21
23.2115
  0
LINE
  8
0
 10
1.96046
 20
23.2115
 11
1.83325
 21
23.1899
  0
LINE
  8
0
 10
1.83325
 20
23.1899
 11
1.69922
 21
23.1158
  0
LINE
  8
0
 10
1.69922
 20
23.1158
 11
1.59932
 21
23.0032
  0
LINE
  8
0
 10
1.59932
 20
23.0032
 11
1.54462
 21
22.861
  0
LINE
  8
0
 10
1.54462
 20
22.861
 11
1.50264
 21
22.2556
  0
LINE
  8
0
 10
1.50264
 20
22.2556
 11
1.47253
 21
22.127
  0
LINE
  8
0
 10
1.47253
 20
22.127
 11
1.43134
 21
22.0031
  0
LINE
  8
0
 10
1.43134
 20
22.0031
 11
1.37959
 21
21.8843
  0
LINE
  8
0
 10
1.37959
 20
21.8843
 11
1.31787
 21
21.7711
  0
LINE
  8
0
 10
1.31787
 20
21.7711
 11
1.2467
 21
21.6641
  0
LINE
  8
0
 10
1.2467
 20
21.6641
 11
1.16669
 21
21.5635
  0
LINE
  8
0
 10
1.16669
 20
21.5635
 11
1.07832
 21
21.47
  0
LINE
  8
0
 10
1.07832
 20
21.47
 11
0.982208
 21
21.3839
  0
LINE
  8
0
 10
0.982208
 20
21.3839
 11
0.878876
 21
21.3057
  0
LINE
  8
0
 10
0.878876
 20
21.3057
 11
0.76889
 21
21.2359
  0
LINE
  8
0
 10
0.76889
 20
21.2359
 11
0.652786
 21
21.1749
  0
LINE
  8
0
 10
0.652786
 20
21.1749
 11
0.531143
 21
21.1231
  0
LINE
  8
0
 10
0.531143
 20
21.1231
 11
0.40451
 21
21.0811
  0
LINE
  8
0
 10
0.40451
 20
21.0811
 11
0.273438
 21
21.0493
  0
LINE
  8
0
 10
0.273438
 20
21.0493
 11
0.138458
 21
21.0281
  0
LINE
  8
0
 10
0.138458
 20
21.0281
 11
0.000167847
 21
21.0181
  0
LINE
  8
0
 10
0.000167847
 20
21.0181
 11
-0.138229
 21
21.0281
  0
LINE
  8
0
 10
-0.138229
 20
21.0281
 11
-0.2733
 21
21.0492
  0
LINE
  8
0
 10
-0.2733
 20
21.0492
 11
-0.40448
 21
21.081
  0
LINE
  8
0
 10
-0.40448
 20
21.081
 11
-0.531189
 21
21.1229
  0
LINE
  8
0
 10
-0.531189
 20
21.1229
 11
-0.652908
 21
21.1746
  0
LINE
  8
0
 10
-0.652908
 20
21.1746
 11
-0.769058
 21
21.2356
  0
LINE
  8
0
 10
-0.769058
 20
21.2356
 11
-0.879089
 21
21.3055
  0
LINE
  8
0
 10
-0.879089
 20
21.3055
 11
-0.982437
 21
21.3836
  0
LINE
  8
0
 10
-0.982437
 20
21.3836
 11
-1.07857
 21
21.4697
  0
LINE
  8
0
 10
-1.07857
 20
21.4697
 11
-1.16693
 21
21.5633
  0
LINE
  8
0
 10
-1.16693
 20
21.5633
 11
-1.24693
 21
21.6638
  0
LINE
  8
0
 10
-1.24693
 20
21.6638
 11
-1.31807
 21
21.7709
  0
LINE
  8
0
 10
-1.31807
 20
21.7709
 11
-1.37975
 21
21.8841
  0
LINE
  8
0
 10
-1.37975
 20
21.8841
 11
-1.43144
 21
22.0029
  0
LINE
  8
0
 10
-1.43144
 20
22.0029
 11
-1.4726
 21
22.1269
  0
LINE
  8
0
 10
-1.4726
 20
22.1269
 11
-1.50264
 21
22.2556
  0
LINE
  8
0
 10
-1.50264
 20
22.2556
 11
-1.54462
 21
22.861
  0
LINE
  8
0
 10
-1.54462
 20
22.861
 11
-1.59932
 21
23.0032
  0
LINE
  8
0
 10
-1.59932
 20
23.0032
 11
-1.69922
 21
23.1158
  0
LINE
  8
0
 10
-1.69922
 20
23.1158
 11
-1.83325
 21
23.1899
  0
LINE
  8
0
 10
-1.83325
 20
23.1899
 11
-1.96046
 21
23.2115
  0
LINE
  8
0
 10
-1.96046
 20
23.2115
 11
-2.43568
 21
23.1741
  0
LINE
  8
0
 10
-2.43568
 20
23.1741
 11
-2.90831
 21
23.1119
  0
LINE
  8
0
 10
-2.90831
 20
23.1119
 11
-3.02823
 21
23.0643
  0
LINE
  8
0
 10
-3.02823
 20
23.0643
 11
-3.14394
 21
22.9639
  0
LINE
  8
0
 10
-3.14394
 20
22.9639
 11
-3.21823
 21
22.833
  0
LINE
  8
0
 10
-3.21823
 20
22.833
 11
-3.24219
 21
22.6826
  0
LINE
  8
0
 10
-3.24219
 20
22.6826
 11
-3.15738
 21
22.0817
  0
LINE
  8
0
 10
-3.15738
 20
22.0817
 11
-3.1601
 21
21.9496
  0
LINE
  8
0
 10
-3.1601
 20
21.9496
 11
-3.17462
 21
21.8198
  0
LINE
  8
0
 10
-3.17462
 20
21.8198
 11
-3.20055
 21
21.6929
  0
LINE
  8
0
 10
-3.20055
 20
21.6929
 11
-3.2374
 21
21.5694
  0
LINE
  8
0
 10
-3.2374
 20
21.5694
 11
-3.28473
 21
21.4498
  0
LINE
  8
0
 10
-3.28473
 20
21.4498
 11
-3.3421
 21
21.3349
  0
LINE
  8
0
 10
-3.3421
 20
21.3349
 11
-3.40909
 21
21.225
  0
LINE
  8
0
 10
-3.40909
 20
21.225
 11
-3.4852
 21
21.1208
  0
LINE
  8
0
 10
-3.4852
 20
21.1208
 11
-3.57002
 21
21.0229
  0
LINE
  8
0
 10
-3.57002
 20
21.0229
 11
-3.66309
 21
20.9317
  0
LINE
  8
0
 10
-3.66309
 20
20.9317
 11
-3.76396
 21
20.8479
  0
LINE
  8
0
 10
-3.76396
 20
20.8479
 11
-3.87219
 21
20.772
  0
LINE
  8
0
 10
-3.87219
 20
20.772
 11
-3.98732
 21
20.7045
  0
LINE
  8
0
 10
-3.98732
 20
20.7045
 11
-4.10892
 21
20.6462
  0
LINE
  8
0
 10
-4.10892
 20
20.6462
 11
-4.23654
 21
20.5974
  0
LINE
  8
0
 10
-4.23654
 20
20.5974
 11
-4.36972
 21
20.5588
  0
LINE
  8
0
 10
-4.36972
 20
20.5588
 11
-4.50719
 21
20.5398
  0
LINE
  8
0
 10
-4.50719
 20
20.5398
 11
-4.64371
 21
20.5324
  0
LINE
  8
0
 10
-4.64371
 20
20.5324
 11
-4.77863
 21
20.5362
  0
LINE
  8
0
 10
-4.77863
 20
20.5362
 11
-4.91129
 21
20.5509
  0
LINE
  8
0
 10
-4.91129
 20
20.5509
 11
-5.04109
 21
20.5762
  0
LINE
  8
0
 10
-5.04109
 20
20.5762
 11
-5.16737
 21
20.6117
  0
LINE
  8
0
 10
-5.16737
 20
20.6117
 11
-5.28954
 21
20.6571
  0
LINE
  8
0
 10
-5.28954
 20
20.6571
 11
-5.40688
 21
20.7121
  0
LINE
  8
0
 10
-5.40688
 20
20.7121
 11
-5.5188
 21
20.7763
  0
LINE
  8
0
 10
-5.5188
 20
20.7763
 11
-5.62468
 21
20.8494
  0
LINE
  8
0
 10
-5.62468
 20
20.8494
 11
-5.72385
 21
20.9312
  0
LINE
  8
0
 10
-5.72385
 20
20.9312
 11
-5.8157
 21
21.0211
  0
LINE
  8
0
 10
-5.8157
 20
21.0211
 11
-5.89957
 21
21.119
  0
LINE
  8
0
 10
-5.89957
 20
21.119
 11
-5.97484
 21
21.2245
  0
LINE
  8
0
 10
-5.97484
 20
21.2245
 11
-6.04086
 21
21.3372
  0
LINE
  8
0
 10
-6.04086
 20
21.3372
 11
-6.097
 21
21.4568
  0
LINE
  8
0
 10
-6.097
 20
21.4568
 11
-6.26393
 21
22.0403
  0
LINE
  8
0
 10
-6.26393
 20
22.0403
 11
-6.347
 21
22.168
  0
LINE
  8
0
 10
-6.347
 20
22.168
 11
-6.46812
 21
22.2573
  0
LINE
  8
0
 10
-6.46812
 20
22.2573
 11
-6.61464
 21
22.302
  0
LINE
  8
0
 10
-6.61464
 20
22.302
 11
-6.74356
 21
22.2967
  0
LINE
  8
0
 10
-6.74356
 20
22.2967
 11
-7.20062
 21
22.1613
  0
LINE
  8
0
 10
-7.20062
 20
22.1613
 11
-7.64998
 21
22.0021
  0
LINE
  8
0
 10
-7.64998
 20
22.0021
 11
-7.7574
 21
21.9307
  0
LINE
  8
0
 10
-7.7574
 20
21.9307
 11
-7.8497
 21
21.8084
  0
LINE
  8
0
 10
-7.8497
 20
21.8084
 11
-7.89516
 21
21.6649
  0
LINE
  8
0
 10
-7.89516
 20
21.6649
 11
-7.8873
 21
21.5128
  0
LINE
  8
0
 10
-7.8873
 20
21.5128
 11
-7.67943
 21
20.9427
  0
LINE
  8
0
 10
-7.67943
 20
20.9427
 11
-7.65462
 21
20.8129
  0
LINE
  8
0
 10
-7.65462
 20
20.8129
 11
-7.64185
 21
20.683
  0
LINE
  8
0
 10
-7.64185
 20
20.683
 11
-7.64081
 21
20.5534
  0
LINE
  8
0
 10
-7.64081
 20
20.5534
 11
-7.65117
 21
20.4249
  0
LINE
  8
0
 10
-7.65117
 20
20.4249
 11
-7.67262
 21
20.2982
  0
LINE
  8
0
 10
-7.67262
 20
20.2982
 11
-7.70485
 21
20.1738
  0
LINE
  8
0
 10
-7.70485
 20
20.1738
 11
-7.74753
 21
20.0524
  0
LINE
  8
0
 10
-7.74753
 20
20.0524
 11
-7.80031
 21
19.9347
  0
LINE
  8
0
 10
-7.80031
 20
19.9347
 11
-7.8629
 21
19.8212
  0
LINE
  8
0
 10
-7.8629
 20
19.8212
 11
-7.93498
 21
19.7127
  0
LINE
  8
0
 10
-7.93498
 20
19.7127
 11
-8.01624
 21
19.6097
  0
LINE
  8
0
 10
-8.01624
 20
19.6097
 11
-8.10631
 21
19.513
  0
LINE
  8
0
 10
-8.10631
 20
19.513
 11
-8.20491
 21
19.4231
  0
LINE
  8
0
 10
-8.20491
 20
19.4231
 11
-8.31171
 21
19.3407
  0
LINE
  8
0
 10
-8.31171
 20
19.3407
 11
-8.42641
 21
19.2665
  0
LINE
  8
0
 10
-8.42641
 20
19.2665
 11
-8.54865
 21
19.201
  0
LINE
  8
0
 10
-8.54865
 20
19.201
 11
-8.67917
 21
19.1539
  0
LINE
  8
0
 10
-8.67917
 20
19.1539
 11
-8.81116
 21
19.1182
  0
LINE
  8
0
 10
-8.81116
 20
19.1182
 11
-8.94391
 21
19.0939
  0
LINE
  8
0
 10
-8.94391
 20
19.0939
 11
-9.07674
 21
19.0807
  0
LINE
  8
0
 10
-9.07674
 20
19.0807
 11
-9.20897
 21
19.0784
  0
LINE
  8
0
 10
-9.20897
 20
19.0784
 11
-9.33987
 21
19.0869
  0
LINE
  8
0
 10
-9.33987
 20
19.0869
 11
-9.4688
 21
19.1059
  0
LINE
  8
0
 10
-9.4688
 20
19.1059
 11
-9.59502
 21
19.1353
  0
LINE
  8
0
 10
-9.59502
 20
19.1353
 11
-9.71783
 21
19.1749
  0
LINE
  8
0
 10
-9.71783
 20
19.1749
 11
-9.83661
 21
19.2244
  0
LINE
  8
0
 10
-9.83661
 20
19.2244
 11
-9.95061
 21
19.2837
  0
LINE
  8
0
 10
-9.95061
 20
19.2837
 11
-10.0592
 21
19.3526
  0
LINE
  8
0
 10
-10.0592
 20
19.3526
 11
-10.1615
 21
19.4309
  0
LINE
  8
0
 10
-10.1615
 20
19.4309
 11
-10.2571
 21
19.5184
  0
LINE
  8
0
 10
-10.2571
 20
19.5184
 11
-10.3451
 21
19.615
  0
LINE
  8
0
 10
-10.3451
 20
19.615
 11
-10.4249
 21
19.7203
  0
LINE
  8
0
 10
-10.4249
 20
19.7203
 11
-10.7095
 21
20.2563
  0
LINE
  8
0
 10
-10.7095
 20
20.2563
 11
-10.8173
 21
20.3639
  0
LINE
  8
0
 10
-10.8173
 20
20.3639
 11
-10.9543
 21
20.4262
  0
LINE
  8
0
 10
-10.9543
 20
20.4262
 11
-11.1069
 21
20.4393
  0
LINE
  8
0
 10
-11.1069
 20
20.4393
 11
-11.2319
 21
20.4073
  0
LINE
  8
0
 10
-11.2319
 20
20.4073
 11
-11.6509
 21
20.1799
  0
LINE
  8
0
 10
-11.6509
 20
20.1799
 11
-12.0573
 21
19.9308
  0
LINE
  8
0
 10
-12.0573
 20
19.9308
 11
-12.1475
 21
19.8386
  0
LINE
  8
0
 10
-12.1475
 20
19.8386
 11
-12.2124
 21
19.6998
  0
LINE
  8
0
 10
-12.2124
 20
19.6998
 11
-12.227
 21
19.55
  0
LINE
  8
0
 10
-12.227
 20
19.55
 11
-12.1877
 21
19.4028
  0
LINE
  8
0
 10
-12.1877
 20
19.4028
 11
-11.8658
 21
18.8884
  0
LINE
  8
0
 10
-11.8658
 20
18.8884
 11
-11.8146
 21
18.7666
  0
LINE
  8
0
 10
-11.8146
 20
18.7666
 11
-11.7751
 21
18.6422
  0
LINE
  8
0
 10
-11.7751
 20
18.6422
 11
-11.7471
 21
18.5157
  0
LINE
  8
0
 10
-11.7471
 20
18.5157
 11
-11.7306
 21
18.3878
  0
LINE
  8
0
 10
-11.7306
 20
18.3878
 11
-11.7252
 21
18.2594
  0
LINE
  8
0
 10
-11.7252
 20
18.2594
 11
-11.7309
 21
18.131
  0
LINE
  8
0
 10
-11.7309
 20
18.131
 11
-11.7473
 21
18.0034
  0
LINE
  8
0
 10
-11.7473
 20
18.0034
 11
-11.7745
 21
17.8773
  0
LINE
  8
0
 10
-11.7745
 20
17.8773
 11
-11.8121
 21
17.7533
  0
LINE
  8
0
 10
-11.8121
 20
17.7533
 11
-11.8601
 21
17.6321
  0
LINE
  8
0
 10
-11.8601
 20
17.6321
 11
-11.9182
 21
17.5145
  0
LINE
  8
0
 10
-11.9182
 20
17.5145
 11
-11.9861
 21
17.4012
  0
LINE
  8
0
 10
-11.9861
 20
17.4012
 11
-12.0639
 21
17.2928
  0
LINE
  8
0
 10
-12.0639
 20
17.2928
 11
-12.1512
 21
17.19
  0
LINE
  8
0
 10
-12.1512
 20
17.19
 11
-12.248
 21
17.0935
  0
LINE
  8
0
 10
-12.248
 20
17.0935
 11
-12.354
 21
17.0041
  0
LINE
  8
0
 10
-12.354
 20
17.0041
 11
-12.4718
 21
16.9308
  0
LINE
  8
0
 10
-12.4718
 20
16.9308
 11
-12.5935
 21
16.8685
  0
LINE
  8
0
 10
-12.5935
 20
16.8685
 11
-12.7183
 21
16.8171
  0
LINE
  8
0
 10
-12.7183
 20
16.8171
 11
-12.8455
 21
16.7766
  0
LINE
  8
0
 10
-12.8455
 20
16.7766
 11
-12.9743
 21
16.7469
  0
LINE
  8
0
 10
-12.9743
 20
16.7469
 11
-13.1042
 21
16.7279
  0
LINE
  8
0
 10
-13.1042
 20
16.7279
 11
-13.2342
 21
16.7197
  0
LINE
  8
0
 10
-13.2342
 20
16.7197
 11
-13.3638
 21
16.7222
  0
LINE
  8
0
 10
-13.3638
 20
16.7222
 11
-13.4922
 21
16.7354
  0
LINE
  8
0
 10
-13.4922
 20
16.7354
 11
-13.6186
 21
16.7591
  0
LINE
  8
0
 10
-13.6186
 20
16.7591
 11
-13.7425
 21
16.7935
  0
LINE
  8
0
 10
-13.7425
 20
16.7935
 11
-13.863
 21
16.8383
  0
LINE
  8
0
 10
-13.863
 20
16.8383
 11
-13.9794
 21
16.8936
  0
LINE
  8
0
 10
-13.9794
 20
16.8936
 11
-14.0911
 21
16.9594
  0
LINE
  8
0
 10
-14.0911
 20
16.9594
 11
-14.1972
 21
17.0355
  0
LINE
  8
0
 10
-14.1972
 20
17.0355
 11
-14.2972
 21
17.1219
  0
LINE
  8
0
 10
-14.2972
 20
17.1219
 11
-14.687
 21
17.587
  0
LINE
  8
0
 10
-14.687
 20
17.587
 11
-14.8148
 21
17.6699
  0
LINE
  8
0
 10
-14.8148
 20
17.6699
 11
-14.9618
 21
17.7023
  0
LINE
  8
0
 10
-14.9618
 20
17.7023
 11
-15.1138
 21
17.6834
  0
LINE
  8
0
 10
-15.1138
 20
17.6834
 11
-15.2294
 21
17.6261
  0
LINE
  8
0
 10
-15.2294
 20
17.6261
 11
-15.5919
 21
17.3166
  0
LINE
  8
0
 10
-15.5919
 20
17.3166
 11
-15.9377
 21
16.9884
  0
LINE
  8
0
 10
-15.9377
 20
16.9884
 11
-16.0067
 21
16.8794
  0
LINE
  8
0
 10
-16.0067
 20
16.8794
 11
-16.0414
 21
16.7302
  0
LINE
  8
0
 10
-16.0414
 20
16.7302
 11
-16.0245
 21
16.5806
  0
LINE
  8
0
 10
-16.0245
 20
16.5806
 11
-15.9555
 21
16.4449
  0
LINE
  8
0
 10
-15.9555
 20
16.4449
 11
-15.5337
 21
16.0086
  0
LINE
  8
0
 10
-15.5337
 20
16.0086
 11
-15.4582
 21
15.9001
  0
LINE
  8
0
 10
-15.4582
 20
15.9001
 11
-15.3937
 21
15.7866
  0
LINE
  8
0
 10
-15.3937
 20
15.7866
 11
-15.3401
 21
15.6687
  0
LINE
  8
0
 10
-15.3401
 20
15.6687
 11
-15.2973
 21
15.5471
  0
LINE
  8
0
 10
-15.2973
 20
15.5471
 11
-15.2653
 21
15.4226
  0
LINE
  8
0
 10
-15.2653
 20
15.4226
 11
-15.2442
 21
15.2958
  0
LINE
  8
0
 10
-15.2442
 20
15.2958
 11
-15.2338
 21
15.1676
  0
LINE
  8
0
 10
-15.2338
 20
15.1676
 11
-15.2341
 21
15.0385
  0
LINE
  8
0
 10
-15.2341
 20
15.0385
 11
-15.2451
 21
14.9094
  0
LINE
  8
0
 10
-15.2451
 20
14.9094
 11
-15.2668
 21
14.781
  0
LINE
  8
0
 10
-15.2668
 20
14.781
 11
-15.2992
 21
14.6539
  0
LINE
  8
0
 10
-15.2992
 20
14.6539
 11
-15.3421
 21
14.5288
  0
LINE
  8
0
 10
-15.3421
 20
14.5288
 11
-15.3956
 21
14.4066
  0
LINE
  8
0
 10
-15.3956
 20
14.4066
 11
-15.4597
 21
14.2879
  0
LINE
  8
0
 10
-15.4597
 20
14.2879
 11
-15.5343
 21
14.1735
  0
LINE
  8
0
 10
-15.5343
 20
14.1735
 11
-15.6193
 21
14.0639
  0
LINE
  8
0
 10
-15.6193
 20
14.0639
 11
-15.7194
 21
13.9678
  0
LINE
  8
0
 10
-15.7194
 20
13.9678
 11
-15.8255
 21
13.8815
  0
LINE
  8
0
 10
-15.8255
 20
13.8815
 11
-15.9369
 21
13.8053
  0
LINE
  8
0
 10
-15.9369
 20
13.8053
 11
-16.0528
 21
13.7392
  0
LINE
  8
0
 10
-16.0528
 20
13.7392
 11
-16.1727
 21
13.6834
  0
LINE
  8
0
 10
-16.1727
 20
13.6834
 11
-16.2957
 21
13.6379
  0
LINE
  8
0
 10
-16.2957
 20
13.6379
 11
-16.4213
 21
13.6028
  0
LINE
  8
0
 10
-16.4213
 20
13.6028
 11
-16.5485
 21
13.5783
  0
LINE
  8
0
 10
-16.5485
 20
13.5783
 11
-16.6768
 21
13.5645
  0
LINE
  8
0
 10
-16.6768
 20
13.5645
 11
-16.8055
 21
13.5614
  0
LINE
  8
0
 10
-16.8055
 20
13.5614
 11
-16.9337
 21
13.5693
  0
LINE
  8
0
 10
-16.9337
 20
13.5693
 11
-17.0609
 21
13.5881
  0
LINE
  8
0
 10
-17.0609
 20
13.5881
 11
-17.1863
 21
13.618
  0
LINE
  8
0
 10
-17.1863
 20
13.618
 11
-17.3092
 21
13.659
  0
LINE
  8
0
 10
-17.3092
 20
13.659
 11
-17.4288
 21
13.7114
  0
LINE
  8
0
 10
-17.4288
 20
13.7114
 11
-17.5446
 21
13.7752
  0
LINE
  8
0
 10
-17.5446
 20
13.7752
 11
-18.0226
 21
14.1491
  0
LINE
  8
0
 10
-18.0226
 20
14.1491
 11
-18.1648
 21
14.2036
  0
LINE
  8
0
 10
-18.1648
 20
14.2036
 11
-18.3154
 21
14.2047
  0
LINE
  8
0
 10
-18.3154
 20
14.2047
 11
-18.4601
 21
14.1547
  0
LINE
  8
0
 10
-18.4601
 20
14.1547
 11
-18.5613
 21
14.0746
  0
LINE
  8
0
 10
-18.5613
 20
14.0746
 11
-18.8515
 21
13.6964
  0
LINE
  8
0
 10
-18.8515
 20
13.6964
 11
-19.1215
 21
13.3036
  0
LINE
  8
0
 10
-19.1215
 20
13.3036
 11
-19.1664
 21
13.1826
  0
LINE
  8
0
 10
-19.1664
 20
13.1826
 11
-19.1692
 21
13.0294
  0
LINE
  8
0
 10
-19.1692
 20
13.0294
 11
-19.1216
 21
12.8866
  0
LINE
  8
0
 10
-19.1216
 20
12.8866
 11
-19.0259
 21
12.7682
  0
LINE
  8
0
 10
-19.0259
 20
12.7682
 11
-18.5226
 21
12.4291
  0
LINE
  8
0
 10
-18.5226
 20
12.4291
 11
-18.4262
 21
12.3387
  0
LINE
  8
0
 10
-18.4262
 20
12.3387
 11
-18.3395
 21
12.2411
  0
LINE
  8
0
 10
-18.3395
 20
12.2411
 11
-18.2625
 21
12.1369
  0
LINE
  8
0
 10
-18.2625
 20
12.1369
 11
-18.1954
 21
12.0269
  0
LINE
  8
0
 10
-18.1954
 20
12.0269
 11
-18.1383
 21
11.9117
  0
LINE
  8
0
 10
-18.1383
 20
11.9117
 11
-18.0912
 21
11.7921
  0
LINE
  8
0
 10
-18.0912
 20
11.7921
 11
-18.0544
 21
11.6688
  0
LINE
  8
0
 10
-18.0544
 20
11.6688
 11
-18.0279
 21
11.5426
  0
LINE
  8
0
 10
-18.0279
 20
11.5426
 11
-18.0118
 21
11.414
  0
LINE
  8
0
 10
-18.0118
 20
11.414
 11
-18.0063
 21
11.2838
  0
LINE
  8
0
 10
-18.0063
 20
11.2838
 11
-18.0116
 21
11.1528
  0
LINE
  8
0
 10
-18.0116
 20
11.1528
 11
-18.0276
 21
11.0215
  0
LINE
  8
0
 10
-18.0276
 20
11.0215
 11
-18.0545
 21
10.8909
  0
LINE
  8
0
 10
-18.0545
 20
10.8909
 11
-18.0925
 21
10.7614
  0
LINE
  8
0
 10
-18.0925
 20
10.7614
 11
-18.1417
 21
10.634
  0
LINE
  8
0
 10
-18.1417
 20
10.634
 11
-18.2021
 21
10.5092
  0
LINE
  8
0
 10
-18.2021
 20
10.5092
 11
-18.28
 21
10.3943
  0
LINE
  8
0
 10
-18.28
 20
10.3943
 11
-18.3658
 21
10.2879
  0
LINE
  8
0
 10
-18.3658
 20
10.2879
 11
-18.4589
 21
10.1902
  0
LINE
  8
0
 10
-18.4589
 20
10.1902
 11
-18.5586
 21
10.1014
  0
LINE
  8
0
 10
-18.5586
 20
10.1014
 11
-18.6642
 21
10.0219
  0
LINE
  8
0
 10
-18.6642
 20
10.0219
 11
-18.7751
 21
9.95178
  0
LINE
  8
0
 10
-18.7751
 20
9.95178
 11
-18.8906
 21
9.8914
  0
LINE
  8
0
 10
-18.8906
 20
9.8914
 11
-19.01
 21
9.84099
  0
LINE
  8
0
 10
-19.01
 20
9.84099
 11
-19.1326
 21
9.80078
  0
LINE
  8
0
 10
-19.1326
 20
9.80078
 11
-19.2578
 21
9.77104
  0
LINE
  8
0
 10
-19.2578
 20
9.77104
 11
-19.3849
 21
9.75203
  0
LINE
  8
0
 10
-19.3849
 20
9.75203
 11
-19.5132
 21
9.74397
  0
LINE
  8
0
 10
-19.5132
 20
9.74397
 11
-19.6421
 21
9.74715
  0
LINE
  8
0
 10
-19.6421
 20
9.74715
 11
-19.7708
 21
9.76178
  0
LINE
  8
0
 10
-19.7708
 20
9.76178
 11
-19.8988
 21
9.78813
  0
LINE
  8
0
 10
-19.8988
 20
9.78813
 11
-20.0252
 21
9.82648
  0
LINE
  8
0
 10
-20.0252
 20
9.82648
 11
-20.5705
 21
10.0928
  0
LINE
  8
0
 10
-20.5705
 20
10.0928
 11
-20.721
 21
10.1165
  0
LINE
  8
0
 10
-20.721
 20
10.1165
 11
-20.8685
 21
10.0863
  0
LINE
  8
0
 10
-20.8685
 20
10.0863
 11
-20.9996
 21
10.0073
  0
LINE
  8
0
 10
-20.9996
 20
10.0073
 11
-21.082
 21
9.90793
  0
LINE
  8
0
 10
-21.082
 20
9.90793
 11
-21.2872
 21
9.47766
  0
LINE
  8
0
 10
-21.2872
 20
9.47766
 11
-21.4696
 21
9.03726
  0
LINE
  8
0
 10
-21.4696
 20
9.03726
 11
-21.4884
 21
8.90959
  0
LINE
  8
0
 10
-21.4884
 20
8.90959
 11
-21.4593
 21
8.75922
  0
LINE
  8
0
 10
-21.4593
 20
8.75922
 11
-21.3831
 21
8.62941
  0
LINE
  8
0
 10
-21.3831
 20
8.62941
 11
-21.2648
 21
8.53345
  0
LINE
  8
0
 10
-21.2648
 20
8.53345
 11
-20.702
 21
8.30646
  0
LINE
  8
0
 10
-20.702
 20
8.30646
 11
-20.589
 21
8.23807
  0
LINE
  8
0
 10
-20.589
 20
8.23807
 11
-20.4838
 21
8.1606
  0
LINE
  8
0
 10
-20.4838
 20
8.1606
 11
-20.3869
 21
8.07468
  0
LINE
  8
0
 10
-20.3869
 20
8.07468
 11
-20.2983
 21
7.98102
  0
LINE
  8
0
 10
-20.2983
 20
7.98102
 11
-20.2185
 21
7.88025
  0
LINE
  8
0
 10
-20.2185
 20
7.88025
 11
-20.1476
 21
7.77309
  0
LINE
  8
0
 10
-20.1476
 20
7.77309
 11
-20.0859
 21
7.66014
  0
LINE
  8
0
 10
-20.0859
 20
7.66014
 11
-20.0338
 21
7.54213
  0
LINE
  8
0
 10
-20.0338
 20
7.54213
 11
-19.9913
 21
7.41969
  0
LINE
  8
0
 10
-19.9913
 20
7.41969
 11
-19.9589
 21
7.2935
  0
LINE
  8
0
 10
-19.9589
 20
7.2935
 11
-19.9368
 21
7.16423
  0
LINE
  8
0
 10
-19.9368
 20
7.16423
 11
-19.9251
 21
7.03256
  0
LINE
  8
0
 10
-19.9251
 20
7.03256
 11
-19.9243
 21
6.89914
  0
LINE
  8
0
 10
-19.9243
 20
6.89914
 11
-19.9346
 21
6.76465
  0
LINE
  8
0
 10
-19.9346
 20
6.76465
 11
-19.9561
 21
6.62975
  0
LINE
  8
0
 10
-19.9561
 20
6.62975
 11
-19.9893
 21
6.4951
  0
LINE
  8
0
 10
-19.9893
 20
6.4951
 11
-20.0416
 21
6.36656
  0
LINE
  8
0
 10
-20.0416
 20
6.36656
 11
-20.1034
 21
6.24461
  0
LINE
  8
0
 10
-20.1034
 20
6.24461
 11
-20.1742
 21
6.12967
  0
LINE
  8
0
 10
-20.1742
 20
6.12967
 11
-20.2532
 21
6.02213
  0
LINE
  8
0
 10
-20.2532
 20
6.02213
 11
-20.34
 21
5.92235
  0
LINE
  8
0
 10
-20.34
 20
5.92235
 11
-20.4339
 21
5.83075
  0
LINE
  8
0
 10
-20.4339
 20
5.83075
 11
-20.5343
 21
5.74767
  0
LINE
  8
0
 10
-20.5343
 20
5.74767
 11
-20.6406
 21
5.67354
  0
LINE
  8
0
 10
-20.6406
 20
5.67354
 11
-20.7522
 21
5.60872
  0
LINE
  8
0
 10
-20.7522
 20
5.60872
 11
-20.8685
 21
5.55359
  0
LINE
  8
0
 10
-20.8685
 20
5.55359
 11
-20.9888
 21
5.50858
  0
LINE
  8
0
 10
-20.9888
 20
5.50858
 11
-21.1127
 21
5.47401
  0
LINE
  8
0
 10
-21.1127
 20
5.47401
 11
-21.2394
 21
5.45033
  0
LINE
  8
0
 10
-21.2394
 20
5.45033
 11
-21.3684
 21
5.43788
  0
LINE
  8
0
 10
-21.3684
 20
5.43788
 11
-21.499
 21
5.43706
  0
LINE
  8
0
 10
-21.499
 20
5.43706
 11
-21.6307
 21
5.44826
  0
LINE
  8
0
 10
-21.6307
 20
5.44826
 11
-22.2194
 21
5.5954
  0
LINE
  8
0
 10
-22.2194
 20
5.5954
 11
-22.3715
 21
5.58731
  0
LINE
  8
0
 10
-22.3715
 20
5.58731
 11
-22.5095
 21
5.5271
  0
LINE
  8
0
 10
-22.5095
 20
5.5271
 11
-22.6214
 21
5.42252
  0
LINE
  8
0
 10
-22.6214
 20
5.42252
 11
-22.6813
 21
5.30821
  0
LINE
  8
0
 10
-22.6813
 20
5.30821
 11
-22.7925
 21
4.8447
  0
LINE
  8
0
 10
-22.7925
 20
4.8447
 11
-22.8794
 21
4.37599
  0
LINE
  8
0
 10
-22.8794
 20
4.37599
 11
-22.8712
 21
4.24722
  0
LINE
  8
0
 10
-22.8712
 20
4.24722
 11
-22.8115
 21
4.10617
  0
LINE
  8
0
 10
-22.8115
 20
4.10617
 11
-22.71
 21
3.99504
  0
LINE
  8
0
 10
-22.71
 20
3.99504
 11
-22.5743
 21
3.92578
  0
LINE
  8
0
 10
-22.5743
 20
3.92578
 11
-21.9766
 21
3.82076
  0
LINE
  8
0
 10
-21.9766
 20
3.82076
 11
-21.8518
 21
3.77736
  0
LINE
  8
0
 10
-21.8518
 20
3.77736
 11
-21.7329
 21
3.72343
  0
LINE
  8
0
 10
-21.7329
 20
3.72343
 11
-21.6202
 21
3.65956
  0
LINE
  8
0
 10
-21.6202
 20
3.65956
 11
-21.5141
 21
3.58635
  0
LINE
  8
0
 10
-21.5141
 20
3.58635
 11
-21.4151
 21
3.50439
  0
LINE
  8
0
 10
-21.4151
 20
3.50439
 11
-21.3235
 21
3.41429
  0
LINE
  8
0
 10
-21.3235
 20
3.41429
 11
-21.2397
 21
3.31664
  0
LINE
  8
0
 10
-21.2397
 20
3.31664
 11
-21.1641
 21
3.21207
  0
LINE
  8
0
 10
-21.1641
 20
3.21207
 11
-21.0971
 21
3.10112
  0
LINE
  8
0
 10
-21.0971
 20
3.10112
 11
-21.0392
 21
2.98444
  0
LINE
  8
0
 10
-21.0392
 20
2.98444
 11
-20.9906
 21
2.86258
  0
LINE
  8
0
 10
-20.9906
 20
2.86258
 11
-20.9519
 21
2.73621
  0
LINE
  8
0
 10
-20.9519
 20
2.73621
 11
-20.9233
 21
2.60588
  0
LINE
  8
0
 10
-20.9233
 20
2.60588
 11
-20.9054
 21
2.47218
  0
LINE
  8
0
 10
-20.9054
 20
2.47218
 11
-20.8985
 21
2.33574
  0
LINE
  8
0
 10
-20.8985
 20
2.33574
 11
-20.9029
 21
2.19716
  0
LINE
  8
0
 10
-20.9029
 20
2.19716
 11
-20.9273
 21
2.06055
  0
LINE
  8
0
 10
-20.9273
 20
2.06055
 11
-20.9624
 21
1.92842
  0
LINE
  8
0
 10
-20.9624
 20
1.92842
 11
-21.0078
 21
1.80128
  0
LINE
  8
0
 10
-21.0078
 20
1.80128
 11
-21.0627
 21
1.67964
  0
LINE
  8
0
 10
-21.0627
 20
1.67964
 11
-21.1269
 21
1.564
  0
LINE
  8
0
 10
-21.1269
 20
1.564
 11
-21.1997
 21
1.45488
  0
LINE
  8
0
 10
-21.1997
 20
1.45488
 11
-21.2806
 21
1.35274
  0
LINE
  8
0
 10
-21.2806
 20
1.35274
 11
-21.3692
 21
1.25813
  0
LINE
  8
0
 10
-21.3692
 20
1.25813
 11
-21.4648
 21
1.17152
  0
LINE
  8
0
 10
-21.4648
 20
1.17152
 11
-21.5671
 21
1.09343
  0
LINE
  8
0
 10
-21.5671
 20
1.09343
 11
-21.6755
 21
1.02437
  0
LINE
  8
0
 10
-21.6755
 20
1.02437
 11
-21.7894
 21
0.964813
  0
LINE
  8
0
 10
-21.7894
 20
0.964813
 11
-21.9085
 21
0.915314
  0
LINE
  8
0
 10
-21.9085
 20
0.915314
 11
-22.032
 21
0.876312
  0
LINE
  8
0
 10
-22.032
 20
0.876312
 11
-22.1596
 21
0.848343
  0
LINE
  8
0
 10
-22.1596
 20
0.848343
 11
-22.2908
 21
0.831924
  0
LINE
  8
0
 10
-22.2908
 20
0.831924
 11
-22.8972
 21
0.853455
  0
LINE
  8
0
 10
-22.8972
 20
0.853455
 11
-23.0443
 21
0.813904
  0
LINE
  8
0
 10
-23.0443
 20
0.813904
 11
-23.1667
 21
0.726334
  0
LINE
  8
0
 10
-23.1667
 20
0.726334
 11
-23.2545
 21
0.600769
  0
LINE
  8
0
 10
-23.2545
 20
0.600769
 11
-23.2893
 21
0.476532
  0
LINE
  8
0
 10
-23.2893
 20
0.476532
 11
-23.3017
 21
0
  0
LINE
  8
0
 10
-23.3017
 20
0
 11
-23.2893
 21
-0.476532
  0
LINE
  8
0
 10
-23.2893
 20
-0.476532
 11
-23.2545
 21
-0.600769
  0
LINE
  8
0
 10
-23.2545
 20
-0.600769
 11
-23.1667
 21
-0.726334
  0
LINE
  8
0
 10
-23.1667
 20
-0.726334
 11
-23.0443
 21
-0.813904
  0
LINE
  8
0
 10
-23.0443
 20
-0.813904
 11
-22.8972
 21
-0.853455
  0
LINE
  8
0
 10
-22.8972
 20
-0.853455
 11
-22.2908
 21
-0.831924
  0
LINE
  8
0
 10
-22.2908
 20
-0.831924
 11
-22.1597
 21
-0.848419
  0
LINE
  8
0
 10
-22.1597
 20
-0.848419
 11
-22.0321
 21
-0.876434
  0
LINE
  8
0
 10
-22.0321
 20
-0.876434
 11
-21.9086
 21
-0.915482
  0
LINE
  8
0
 10
-21.9086
 20
-0.915482
 11
-21.7896
 21
-0.965042
  0
LINE
  8
0
 10
-21.7896
 20
-0.965042
 11
-21.6757
 21
-1.02461
  0
LINE
  8
0
 10
-21.6757
 20
-1.02461
 11
-21.5674
 21
-1.09369
  0
LINE
  8
0
 10
-21.5674
 20
-1.09369
 11
-21.4651
 21
-1.1718
  0
LINE
  8
0
 10
-21.4651
 20
-1.1718
 11
-21.3694
 21
-1.25838
  0
LINE
  8
0
 10
-21.3694
 20
-1.25838
 11
-21.2809
 21
-1.35298
  0
LINE
  8
0
 10
-21.2809
 20
-1.35298
 11
-21.1999
 21
-1.45506
  0
LINE
  8
0
 10
-21.1999
 20
-1.45506
 11
-21.1271
 21
-1.56415
  0
LINE
  8
0
 10
-21.1271
 20
-1.56415
 11
-21.0629
 21
-1.67972
  0
LINE
  8
0
 10
-21.0629
 20
-1.67972
 11
-21.0079
 21
-1.80125
  0
LINE
  8
0
 10
-21.0079
 20
-1.80125
 11
-20.9626
 21
-1.9283
  0
LINE
  8
0
 10
-20.9626
 20
-1.9283
 11
-20.9274
 21
-2.06032
  0
LINE
  8
0
 10
-20.9274
 20
-2.06032
 11
-20.9029
 21
-2.19681
  0
LINE
  8
0
 10
-20.9029
 20
-2.19681
 11
-20.8984
 21
-2.33549
  0
LINE
  8
0
 10
-20.8984
 20
-2.33549
 11
-20.9053
 21
-2.47205
  0
LINE
  8
0
 10
-20.9053
 20
-2.47205
 11
-20.9232
 21
-2.60583
  0
LINE
  8
0
 10
-20.9232
 20
-2.60583
 11
-20.9517
 21
-2.73624
  0
LINE
  8
0
 10
-20.9517
 20
-2.73624
 11
-20.9904
 21
-2.86269
  0
LINE
  8
0
 10
-20.9904
 20
-2.86269
 11
-21.0389
 21
-2.98457
  0
LINE
  8
0
 10
-21.0389
 20
-2.98457
 11
-21.0968
 21
-3.1013
  0
LINE
  8
0
 10
-21.0968
 20
-3.1013
 11
-21.1638
 21
-3.21225
  0
LINE
  8
0
 10
-21.1638
 20
-3.21225
 11
-21.2394
 21
-3.31685
  0
LINE
  8
0
 10
-21.2394
 20
-3.31685
 11
-21.3232
 21
-3.41451
  0
LINE
  8
0
 10
-21.3232
 20
-3.41451
 11
-21.4148
 21
-3.50459
  0
LINE
  8
0
 10
-21.4148
 20
-3.50459
 11
-21.5139
 21
-3.58653
  0
LINE
  8
0
 10
-21.5139
 20
-3.58653
 11
-21.62
 21
-3.6597
  0
LINE
  8
0
 10
-21.62
 20
-3.6597
 11
-21.7328
 21
-3.72354
  0
LINE
  8
0
 10
-21.7328
 20
-3.72354
 11
-21.8518
 21
-3.77742
  0
LINE
  8
0
 10
-21.8518
 20
-3.77742
 11
-21.9766
 21
-3.82076
  0
LINE
  8
0
 10
-21.9766
 20
-3.82076
 11
-22.5743
 21
-3.92578
  0
LINE
  8
0
 10
-22.5743
 20
-3.92578
 11
-22.71
 21
-3.99504
  0
LINE
  8
0
 10
-22.71
 20
-3.99504
 11
-22.8115
 21
-4.10617
  0
LINE
  8
0
 10
-22.8115
 20
-4.10617
 11
-22.8712
 21
-4.24722
  0
LINE
  8
0
 10
-22.8712
 20
-4.24722
 11
-22.8794
 21
-4.37599
  0
LINE
  8
0
 10
-22.8794
 20
-4.37599
 11
-22.7925
 21
-4.8447
  0
LINE
  8
0
 10
-22.7925
 20
-4.8447
 11
-22.6813
 21
-5.30821
  0
LINE
  8
0
 10
-22.6813
 20
-5.30821
 11
-22.6214
 21
-5.42252
  0
LINE
  8
0
 10
-22.6214
 20
-5.42252
 11
-22.5095
 21
-5.5271
  0
LINE
  8
0
 10
-22.5095
 20
-5.5271
 11
-22.3715
 21
-5.58731
  0
LINE
  8
0
 10
-22.3715
 20
-5.58731
 11
-22.2194
 21
-5.5954
  0
LINE
  8
0
 10
-22.2194
 20
-5.5954
 11
-21.6307
 21
-5.44826
  0
LINE
  8
0
 10
-21.6307
 20
-5.44826
 11
-21.499
 21
-5.43713
  0
LINE
  8
0
 10
-21.499
 20
-5.43713
 11
-21.3685
 21
-5.43802
  0
LINE
  8
0
 10
-21.3685
 20
-5.43802
 11
-21.2395
 21
-5.45053
  0
LINE
  8
0
 10
-21.2395
 20
-5.45053
 11
-21.1128
 21
-5.47427
  0
LINE
  8
0
 10
-21.1128
 20
-5.47427
 11
-20.989
 21
-5.50887
  0
LINE
  8
0
 10
-20.989
 20
-5.50887
 11
-20.8687
 21
-5.55391
  0
LINE
  8
0
 10
-20.8687
 20
-5.55391
 11
-20.7524
 21
-5.60904
  0
LINE
  8
0
 10
-20.7524
 20
-5.60904
 11
-20.6408
 21
-5.67383
  0
LINE
  8
0
 10
-20.6408
 20
-5.67383
 11
-20.5345
 21
-5.74796
  0
LINE
  8
0
 10
-20.5345
 20
-5.74796
 11
-20.4341
 21
-5.83098
  0
LINE
  8
0
 10
-20.4341
 20
-5.83098
 11
-20.3402
 21
-5.92255
  0
LINE
  8
0
 10
-20.3402
 20
-5.92255
 11
-20.2534
 21
-6.02223
  0
LINE
  8
0
 10
-20.2534
 20
-6.02223
 11
-20.1743
 21
-6.12968
  0
LINE
  8
0
 10
-20.1743
 20
-6.12968
 11
-20.1036
 21
-6.24452
  0
LINE
  8
0
 10
-20.1036
 20
-6.24452
 11
-20.0417
 21
-6.36635
  0
LINE
  8
0
 10
-20.0417
 20
-6.36635
 11
-19.9894
 21
-6.49477
  0
LINE
  8
0
 10
-19.9894
 20
-6.49477
 11
-19.9562
 21
-6.62949
  0
LINE
  8
0
 10
-19.9562
 20
-6.62949
 11
-19.9345
 21
-6.76448
  0
LINE
  8
0
 10
-19.9345
 20
-6.76448
 11
-19.9242
 21
-6.89906
  0
LINE
  8
0
 10
-19.9242
 20
-6.89906
 11
-19.9249
 21
-7.03255
  0
LINE
  8
0
 10
-19.9249
 20
-7.03255
 11
-19.9365
 21
-7.16428
  0
LINE
  8
0
 10
-19.9365
 20
-7.16428
 11
-19.9586
 21
-7.29358
  0
LINE
  8
0
 10
-19.9586
 20
-7.29358
 11
-19.991
 21
-7.41982
  0
LINE
  8
0
 10
-19.991
 20
-7.41982
 11
-20.0334
 21
-7.54227
  0
LINE
  8
0
 10
-20.0334
 20
-7.54227
 11
-20.0856
 21
-7.66028
  0
LINE
  8
0
 10
-20.0856
 20
-7.66028
 11
-20.1473
 21
-7.77322
  0
LINE
  8
0
 10
-20.1473
 20
-7.77322
 11
-20.2182
 21
-7.8804
  0
LINE
  8
0
 10
-20.2182
 20
-7.8804
 11
-20.2981
 21
-7.98116
  0
LINE
  8
0
 10
-20.2981
 20
-7.98116
 11
-20.3867
 21
-8.07478
  0
LINE
  8
0
 10
-20.3867
 20
-8.07478
 11
-20.4837
 21
-8.16068
  0
LINE
  8
0
 10
-20.4837
 20
-8.16068
 11
-20.5889
 21
-8.23811
  0
LINE
  8
0
 10
-20.5889
 20
-8.23811
 11
-20.702
 21
-8.30646
  0
LINE
  8
0
 10
-20.702
 20
-8.30646
 11
-21.2648
 21
-8.53345
  0
LINE
  8
0
 10
-21.2648
 20
-8.53345
 11
-21.3831
 21
-8.62941
  0
LINE
  8
0
 10
-21.3831
 20
-8.62941
 11
-21.4593
 21
-8.75922
  0
LINE
  8
0
 10
-21.4593
 20
-8.75922
 11
-21.4884
 21
-8.90959
  0
LINE
  8
0
 10
-21.4884
 20
-8.90959
 11
-21.4696
 21
-9.03726
  0
LINE
  8
0
 10
-21.4696
 20
-9.03726
 11
-21.2872
 21
-9.47766
  0
LINE
  8
0
 10
-21.2872
 20
-9.47766
 11
-21.082
 21
-9.90793
  0
LINE
  8
0
 10
-21.082
 20
-9.90793
 11
-20.9996
 21
-10.0073
  0
LINE
  8
0
 10
-20.9996
 20
-10.0073
 11
-20.8685
 21
-10.0863
  0
LINE
  8
0
 10
-20.8685
 20
-10.0863
 11
-20.721
 21
-10.1165
  0
LINE
  8
0
 10
-20.721
 20
-10.1165
 11
-20.5705
 21
-10.0928
  0
LINE
  8
0
 10
-20.5705
 20
-10.0928
 11
-20.0252
 21
-9.82648
  0
LINE
  8
0
 10
-20.0252
 20
-9.82648
 11
-19.8988
 21
-9.78822
  0
LINE
  8
0
 10
-19.8988
 20
-9.78822
 11
-19.7709
 21
-9.76193
  0
LINE
  8
0
 10
-19.7709
 20
-9.76193
 11
-19.6421
 21
-9.74736
  0
LINE
  8
0
 10
-19.6421
 20
-9.74736
 11
-19.5133
 21
-9.74425
  0
LINE
  8
0
 10
-19.5133
 20
-9.74425
 11
-19.385
 21
-9.75233
  0
LINE
  8
0
 10
-19.385
 20
-9.75233
 11
-19.2579
 21
-9.77138
  0
LINE
  8
0
 10
-19.2579
 20
-9.77138
 11
-19.1327
 21
-9.80113
  0
LINE
  8
0
 10
-19.1327
 20
-9.80113
 11
-19.0101
 21
-9.84131
  0
LINE
  8
0
 10
-19.0101
 20
-9.84131
 11
-18.8907
 21
-9.89171
  0
LINE
  8
0
 10
-18.8907
 20
-9.89171
 11
-18.7753
 21
-9.95204
  0
LINE
  8
0
 10
-18.7753
 20
-9.95204
 11
-18.6644
 21
-10.0221
  0
LINE
  8
0
 10
-18.6644
 20
-10.0221
 11
-18.5587
 21
-10.1016
  0
LINE
  8
0
 10
-18.5587
 20
-10.1016
 11
-18.459
 21
-10.1902
  0
LINE
  8
0
 10
-18.459
 20
-10.1902
 11
-18.366
 21
-10.2878
  0
LINE
  8
0
 10
-18.366
 20
-10.2878
 11
-18.2801
 21
-10.3941
  0
LINE
  8
0
 10
-18.2801
 20
-10.3941
 11
-18.2023
 21
-10.5089
  0
LINE
  8
0
 10
-18.2023
 20
-10.5089
 11
-18.1417
 21
-10.6337
  0
LINE
  8
0
 10
-18.1417
 20
-10.6337
 11
-18.0925
 21
-10.7613
  0
LINE
  8
0
 10
-18.0925
 20
-10.7613
 11
-18.0544
 21
-10.8908
  0
LINE
  8
0
 10
-18.0544
 20
-10.8908
 11
-18.0274
 21
-11.0215
  0
LINE
  8
0
 10
-18.0274
 20
-11.0215
 11
-18.0113
 21
-11.1528
  0
LINE
  8
0
 10
-18.0113
 20
-11.1528
 11
-18.0061
 21
-11.2838
  0
LINE
  8
0
 10
-18.0061
 20
-11.2838
 11
-18.0115
 21
-11.414
  0
LINE
  8
0
 10
-18.0115
 20
-11.414
 11
-18.0275
 21
-11.5426
  0
LINE
  8
0
 10
-18.0275
 20
-11.5426
 11
-18.054
 21
-11.6689
  0
LINE
  8
0
 10
-18.054
 20
-11.6689
 11
-18.0909
 21
-11.7922
  0
LINE
  8
0
 10
-18.0909
 20
-11.7922
 11
-18.138
 21
-11.9118
  0
LINE
  8
0
 10
-18.138
 20
-11.9118
 11
-18.1951
 21
-12.0269
  0
LINE
  8
0
 10
-18.1951
 20
-12.0269
 11
-18.2623
 21
-12.137
  0
LINE
  8
0
 10
-18.2623
 20
-12.137
 11
-18.3394
 21
-12.2411
  0
LINE
  8
0
 10
-18.3394
 20
-12.2411
 11
-18.4262
 21
-12.3388
  0
LINE
  8
0
 10
-18.4262
 20
-12.3388
 11
-18.5226
 21
-12.4291
  0
LINE
  8
0
 10
-18.5226
 20
-12.4291
 11
-19.0259
 21
-12.7682
  0
LINE
  8
0
 10
-19.0259
 20
-12.7682
 11
-19.1216
 21
-12.8866
  0
LINE
  8
0
 10
-19.1216
 20
-12.8866
 11
-19.1692
 21
-13.0294
  0
LINE
  8
0
 10
-19.1692
 20
-13.0294
 11
-19.1664
 21
-13.1826
  0
LINE
  8
0
 10
-19.1664
 20
-13.1826
 11
-19.1215
 21
-13.3036
  0
LINE
  8
0
 10
-19.1215
 20
-13.3036
 11
-18.8515
 21
-13.6964
  0
LINE
  8
0
 10
-18.8515
 20
-13.6964
 11
-18.5613
 21
-14.0746
  0
LINE
  8
0
 10
-18.5613
 20
-14.0746
 11
-18.4601
 21
-14.1547
  0
LINE
  8
0
 10
-18.4601
 20
-14.1547
 11
-18.3154
 21
-14.2047
  0
LINE
  8
0
 10
-18.3154
 20
-14.2047
 11
-18.1648
 21
-14.2036
  0
LINE
  8
0
 10
-18.1648
 20
-14.2036
 11
-18.0226
 21
-14.1491
  0
LINE
  8
0
 10
-18.0226
 20
-14.1491
 11
-17.5446
 21
-13.7752
  0
LINE
  8
0
 10
-17.5446
 20
-13.7752
 11
-17.4289
 21
-13.7115
  0
LINE
  8
0
 10
-17.4289
 20
-13.7115
 11
-17.3092
 21
-13.6592
  0
LINE
  8
0
 10
-17.3092
 20
-13.6592
 11
-17.1863
 21
-13.6182
  0
LINE
  8
0
 10
-17.1863
 20
-13.6182
 11
-17.0609
 21
-13.5883
  0
LINE
  8
0
 10
-17.0609
 20
-13.5883
 11
-16.9337
 21
-13.5696
  0
LINE
  8
0
 10
-16.9337
 20
-13.5696
 11
-16.8055
 21
-13.5618
  0
LINE
  8
0
 10
-16.8055
 20
-13.5618
 11
-16.6768
 21
-13.5649
  0
LINE
  8
0
 10
-16.6768
 20
-13.5649
 11
-16.5486
 21
-13.5787
  0
LINE
  8
0
 10
-16.5486
 20
-13.5787
 11
-16.4213
 21
-13.6031
  0
LINE
  8
0
 10
-16.4213
 20
-13.6031
 11
-16.2958
 21
-13.6382
  0
LINE
  8
0
 10
-16.2958
 20
-13.6382
 11
-16.1728
 21
-13.6836
  0
LINE
  8
0
 10
-16.1728
 20
-13.6836
 11
-16.0529
 21
-13.7394
  0
LINE
  8
0
 10
-16.0529
 20
-13.7394
 11
-15.937
 21
-13.8054
  0
LINE
  8
0
 10
-15.937
 20
-13.8054
 11
-15.8256
 21
-13.8815
  0
LINE
  8
0
 10
-15.8256
 20
-13.8815
 11
-15.7196
 21
-13.9677
  0
LINE
  8
0
 10
-15.7196
 20
-13.9677
 11
-15.6196
 21
-14.0637
  0
LINE
  8
0
 10
-15.6196
 20
-14.0637
 11
-15.5344
 21
-14.1732
  0
LINE
  8
0
 10
-15.5344
 20
-14.1732
 11
-15.4597
 21
-14.2878
  0
LINE
  8
0
 10
-15.4597
 20
-14.2878
 11
-15.3955
 21
-14.4065
  0
LINE
  8
0
 10
-15.3955
 20
-14.4065
 11
-15.3419
 21
-14.5287
  0
LINE
  8
0
 10
-15.3419
 20
-14.5287
 11
-15.2989
 21
-14.6538
  0
LINE
  8
0
 10
-15.2989
 20
-14.6538
 11
-15.2665
 21
-14.7809
  0
LINE
  8
0
 10
-15.2665
 20
-14.7809
 11
-15.2448
 21
-14.9094
  0
LINE
  8
0
 10
-15.2448
 20
-14.9094
 11
-15.2337
 21
-15.0385
  0
LINE
  8
0
 10
-15.2337
 20
-15.0385
 11
-15.2334
 21
-15.1676
  0
LINE
  8
0
 10
-15.2334
 20
-15.1676
 11
-15.2438
 21
-15.2958
  0
LINE
  8
0
 10
-15.2438
 20
-15.2958
 11
-15.265
 21
-15.4226
  0
LINE
  8
0
 10
-15.265
 20
-15.4226
 11
-15.297
 21
-15.5471
  0
LINE
  8
0
 10
-15.297
 20
-15.5471
 11
-15.3398
 21
-15.6687
  0
LINE
  8
0
 10
-15.3398
 20
-15.6687
 11
-15.3935
 21
-15.7866
  0
LINE
  8
0
 10
-15.3935
 20
-15.7866
 11
-15.4581
 21
-15.9001
  0
LINE
  8
0
 10
-15.4581
 20
-15.9001
 11
-15.5337
 21
-16.0086
  0
LINE
  8
0
 10
-15.5337
 20
-16.0086
 11
-15.9555
 21
-16.4449
  0
LINE
  8
0
 10
-15.9555
 20
-16.4449
 11
-16.0245
 21
-16.5806
  0
LINE
  8
0
 10
-16.0245
 20
-16.5806
 11
-16.0414
 21
-16.7302
  0
LINE
  8
0
 10
-16.0414
 20
-16.7302
 11
-16.0067
 21
-16.8794
  0
LINE
  8
0
 10
-16.0067
 20
-16.8794
 11
-15.9377
 21
-16.9884
  0
LINE
  8
0
 10
-15.9377
 20
-16.9884
 11
-15.5919
 21
-17.3166
  0
LINE
  8
0
 10
-15.5919
 20
-17.3166
 11
-15.2294
 21
-17.6261
  0
LINE
  8
0
 10
-15.2294
 20
-17.6261
 11
-15.1138
 21
-17.6834
  0
LINE
  8
0
 10
-15.1138
 20
-17.6834
 11
-14.9618
 21
-17.7023
  0
LINE
  8
0
 10
-14.9618
 20
-17.7023
 11
-14.8148
 21
-17.6699
  0
LINE
  8
0
 10
-14.8148
 20
-17.6699
 11
-14.687
 21
-17.587
  0
LINE
  8
0
 10
-14.687
 20
-17.587
 11
-14.2972
 21
-17.1219
  0
LINE
  8
0
 10
-14.2972
 20
-17.1219
 11
-14.1972
 21
-17.0356
  0
LINE
  8
0
 10
-14.1972
 20
-17.0356
 11
-14.091
 21
-16.9595
  0
LINE
  8
0
 10
-14.091
 20
-16.9595
 11
-13.9794
 21
-16.8938
  0
LINE
  8
0
 10
-13.9794
 20
-16.8938
 11
-13.8629
 21
-16.8386
  0
LINE
  8
0
 10
-13.8629
 20
-16.8386
 11
-13.7424
 21
-16.7938
  0
LINE
  8
0
 10
-13.7424
 20
-16.7938
 11
-13.6186
 21
-16.7595
  0
LINE
  8
0
 10
-13.6186
 20
-16.7595
 11
-13.4921
 21
-16.7357
  0
LINE
  8
0
 10
-13.4921
 20
-16.7357
 11
-13.3638
 21
-16.7226
  0
LINE
  8
0
 10
-13.3638
 20
-16.7226
 11
-13.2342
 21
-16.7201
  0
LINE
  8
0
 10
-13.2342
 20
-16.7201
 11
-13.1042
 21
-16.7282
  0
LINE
  8
0
 10
-13.1042
 20
-16.7282
 11
-12.9744
 21
-16.7471
  0
LINE
  8
0
 10
-12.9744
 20
-16.7471
 11
-12.8456
 21
-16.7767
  0
LINE
  8
0
 10
-12.8456
 20
-16.7767
 11
-12.7184
 21
-16.8172
  0
LINE
  8
0
 10
-12.7184
 20
-16.8172
 11
-12.5937
 21
-16.8685
  0
LINE
  8
0
 10
-12.5937
 20
-16.8685
 11
-12.472
 21
-16.9307
  0
LINE
  8
0
 10
-12.472
 20
-16.9307
 11
-12.3542
 21
-17.0039
  0
LINE
  8
0
 10
-12.3542
 20
-17.0039
 11
-12.2482
 21
-17.0933
  0
LINE
  8
0
 10
-12.2482
 20
-17.0933
 11
-12.1513
 21
-17.1898
  0
LINE
  8
0
 10
-12.1513
 20
-17.1898
 11
-12.0638
 21
-17.2926
  0
LINE
  8
0
 10
-12.0638
 20
-17.2926
 11
-11.986
 21
-17.401
  0
LINE
  8
0
 10
-11.986
 20
-17.401
 11
-11.9179
 21
-17.5144
  0
LINE
  8
0
 10
-11.9179
 20
-17.5144
 11
-11.8598
 21
-17.632
  0
LINE
  8
0
 10
-11.8598
 20
-17.632
 11
-11.8118
 21
-17.7532
  0
LINE
  8
0
 10
-11.8118
 20
-17.7532
 11
-11.7742
 21
-17.8772
  0
LINE
  8
0
 10
-11.7742
 20
-17.8772
 11
-11.747
 21
-18.0033
  0
LINE
  8
0
 10
-11.747
 20
-18.0033
 11
-11.7305
 21
-18.131
  0
LINE
  8
0
 10
-11.7305
 20
-18.131
 11
-11.7249
 21
-18.2593
  0
LINE
  8
0
 10
-11.7249
 20
-18.2593
 11
-11.7303
 21
-18.3878
  0
LINE
  8
0
 10
-11.7303
 20
-18.3878
 11
-11.7469
 21
-18.5156
  0
LINE
  8
0
 10
-11.7469
 20
-18.5156
 11
-11.7749
 21
-18.6421
  0
LINE
  8
0
 10
-11.7749
 20
-18.6421
 11
-11.8145
 21
-18.7666
  0
LINE
  8
0
 10
-11.8145
 20
-18.7666
 11
-11.8658
 21
-18.8884
  0
LINE
  8
0
 10
-11.8658
 20
-18.8884
 11
-12.1877
 21
-19.4028
  0
LINE
  8
0
 10
-12.1877
 20
-19.4028
 11
-12.227
 21
-19.55
  0
LINE
  8
0
 10
-12.227
 20
-19.55
 11
-12.2124
 21
-19.6998
  0
LINE
  8
0
 10
-12.2124
 20
-19.6998
 11
-12.1475
 21
-19.8386
  0
LINE
  8
0
 10
-12.1475
 20
-19.8386
 11
-12.0573
 21
-19.9308
  0
LINE
  8
0
 10
-12.0573
 20
-19.9308
 11
-11.6509
 21
-20.1799
  0
LINE
  8
0
 10
-11.6509
 20
-20.1799
 11
-11.2319
 21
-20.4073
  0
LINE
  8
0
 10
-11.2319
 20
-20.4073
 11
-11.1069
 21
-20.4393
  0
LINE
  8
0
 10
-11.1069
 20
-20.4393
 11
-10.9543
 21
-20.4262
  0
LINE
  8
0
 10
-10.9543
 20
-20.4262
 11
-10.8173
 21
-20.3639
  0
LINE
  8
0
 10
-10.8173
 20
-20.3639
 11
-10.7095
 21
-20.2563
  0
LINE
  8
0
 10
-10.7095
 20
-20.2563
 11
-10.4249
 21
-19.7203
  0
LINE
  8
0
 10
-10.4249
 20
-19.7203
 11
-10.3451
 21
-19.6151
  0
LINE
  8
0
 10
-10.3451
 20
-19.6151
 11
-10.257
 21
-19.5186
  0
LINE
  8
0
 10
-10.257
 20
-19.5186
 11
-10.1615
 21
-19.4311
  0
LINE
  8
0
 10
-10.1615
 20
-19.4311
 11
-10.0591
 21
-19.3529
  0
LINE
  8
0
 10
-10.0591
 20
-19.3529
 11
-9.95049
 21
-19.284
  0
LINE
  8
0
 10
-9.95049
 20
-19.284
 11
-9.8365
 21
-19.2247
  0
LINE
  8
0
 10
-9.8365
 20
-19.2247
 11
-9.71773
 21
-19.1752
  0
LINE
  8
0
 10
-9.71773
 20
-19.1752
 11
-9.59491
 21
-19.1357
  0
LINE
  8
0
 10
-9.59491
 20
-19.1357
 11
-9.4687
 21
-19.1062
  0
LINE
  8
0
 10
-9.4687
 20
-19.1062
 11
-9.33983
 21
-19.0872
  0
LINE
  8
0
 10
-9.33983
 20
-19.0872
 11
-9.20894
 21
-19.0787
  0
LINE
  8
0
 10
-9.20894
 20
-19.0787
 11
-9.07678
 21
-19.0809
  0
LINE
  8
0
 10
-9.07678
 20
-19.0809
 11
-8.944
 21
-19.094
  0
LINE
  8
0
 10
-8.944
 20
-19.094
 11
-8.81131
 21
-19.1183
  0
LINE
  8
0
 10
-8.81131
 20
-19.1183
 11
-8.67941
 21
-19.1538
  0
LINE
  8
0
 10
-8.67941
 20
-19.1538
 11
-8.54897
 21
-19.2009
  0
LINE
  8
0
 10
-8.54897
 20
-19.2009
 11
-8.42661
 21
-19.2663
  0
LINE
  8
0
 10
-8.42661
 20
-19.2663
 11
-8.31178
 21
-19.3406
  0
LINE
  8
0
 10
-8.31178
 20
-19.3406
 11
-8.20486
 21
-19.4229
  0
LINE
  8
0
 10
-8.20486
 20
-19.4229
 11
-8.10619
 21
-19.5128
  0
LINE
  8
0
 10
-8.10619
 20
-19.5128
 11
-8.01602
 21
-19.6096
  0
LINE
  8
0
 10
-8.01602
 20
-19.6096
 11
-7.93472
 21
-19.7125
  0
LINE
  8
0
 10
-7.93472
 20
-19.7125
 11
-7.86261
 21
-19.821
  0
LINE
  8
0
 10
-7.86261
 20
-19.821
 11
-7.79999
 21
-19.9345
  0
LINE
  8
0
 10
-7.79999
 20
-19.9345
 11
-7.74719
 21
-20.0523
  0
LINE
  8
0
 10
-7.74719
 20
-20.0523
 11
-7.70453
 21
-20.1737
  0
LINE
  8
0
 10
-7.70453
 20
-20.1737
 11
-7.67233
 21
-20.2981
  0
LINE
  8
0
 10
-7.67233
 20
-20.2981
 11
-7.65091
 21
-20.4249
  0
LINE
  8
0
 10
-7.65091
 20
-20.4249
 11
-7.64059
 21
-20.5533
  0
LINE
  8
0
 10
-7.64059
 20
-20.5533
 11
-7.64169
 21
-20.6829
  0
LINE
  8
0
 10
-7.64169
 20
-20.6829
 11
-7.65453
 21
-20.8129
  0
LINE
  8
0
 10
-7.65453
 20
-20.8129
 11
-7.67943
 21
-20.9427
  0
LINE
  8
0
 10
-7.67943
 20
-20.9427
 11
-7.8873
 21
-21.5128
  0
LINE
  8
0
 10
-7.8873
 20
-21.5128
 11
-7.89516
 21
-21.6649
  0
LINE
  8
0
 10
-7.89516
 20
-21.6649
 11
-7.8497
 21
-21.8084
  0
LINE
  8
0
 10
-7.8497
 20
-21.8084
 11
-7.7574
 21
-21.9307
  0
LINE
  8
0
 10
-7.7574
 20
-21.9307
 11
-7.64998
 21
-22.0021
  0
LINE
  8
0
 10
-7.64998
 20
-22.0021
 11
-7.20062
 21
-22.1613
  0
LINE
  8
0
 10
-7.20062
 20
-22.1613
 11
-6.74356
 21
-22.2967
  0
LINE
  8
0
 10
-6.74356
 20
-22.2967
 11
-6.61464
 21
-22.302
  0
LINE
  8
0
 10
-6.61464
 20
-22.302
 11
-6.46812
 21
-22.2573
  0
LINE
  8
0
 10
-6.46812
 20
-22.2573
 11
-6.347
 21
-22.168
  0
LINE
  8
0
 10
-6.347
 20
-22.168
 11
-6.26393
 21
-22.0403
  0
LINE
  8
0
 10
-6.26393
 20
-22.0403
 11
-6.097
 21
-21.4568
  0
LINE
  8
0
 10
-6.097
 20
-21.4568
 11
-6.0408
 21
-21.3373
  0
LINE
  8
0
 10
-6.0408
 20
-21.3373
 11
-5.97475
 21
-21.2246
  0
LINE
  8
0
 10
-5.97475
 20
-21.2246
 11
-5.89944
 21
-21.1192
  0
LINE
  8
0
 10
-5.89944
 20
-21.1192
 11
-5.81554
 21
-21.0214
  0
LINE
  8
0
 10
-5.81554
 20
-21.0214
 11
-5.72368
 21
-20.9314
  0
LINE
  8
0
 10
-5.72368
 20
-20.9314
 11
-5.6245
 21
-20.8497
  0
LINE
  8
0
 10
-5.6245
 20
-20.8497
 11
-5.51862
 21
-20.7766
  0
LINE
  8
0
 10
-5.51862
 20
-20.7766
 11
-5.40671
 21
-20.7124
  0
LINE
  8
0
 10
-5.40671
 20
-20.7124
 11
-5.28938
 21
-20.6574
  0
LINE
  8
0
 10
-5.28938
 20
-20.6574
 11
-5.16728
 21
-20.612
  0
LINE
  8
0
 10
-5.16728
 20
-20.612
 11
-5.04102
 21
-20.5764
  0
LINE
  8
0
 10
-5.04102
 20
-20.5764
 11
-4.91129
 21
-20.5511
  0
LINE
  8
0
 10
-4.91129
 20
-20.5511
 11
-4.77869
 21
-20.5363
  0
LINE
  8
0
 10
-4.77869
 20
-20.5363
 11
-4.64386
 21
-20.5325
  0
LINE
  8
0
 10
-4.64386
 20
-20.5325
 11
-4.50743
 21
-20.5398
  0
LINE
  8
0
 10
-4.50743
 20
-20.5398
 11
-4.37007
 21
-20.5587
  0
LINE
  8
0
 10
-4.37007
 20
-20.5587
 11
-4.23677
 21
-20.5973
  0
LINE
  8
0
 10
-4.23677
 20
-20.5973
 11
-4.10902
 21
-20.646
  0
LINE
  8
0
 10
-4.10902
 20
-20.646
 11
-3.98732
 21
-20.7044
  0
LINE
  8
0
 10
-3.98732
 20
-20.7044
 11
-3.8721
 21
-20.7718
  0
LINE
  8
0
 10
-3.8721
 20
-20.7718
 11
-3.76379
 21
-20.8477
  0
LINE
  8
0
 10
-3.76379
 20
-20.8477
 11
-3.66287
 21
-20.9315
  0
LINE
  8
0
 10
-3.66287
 20
-20.9315
 11
-3.56976
 21
-21.0226
  0
LINE
  8
0
 10
-3.56976
 20
-21.0226
 11
-3.48492
 21
-21.1206
  0
LINE
  8
0
 10
-3.48492
 20
-21.1206
 11
-3.4088
 21
-21.2248
  0
LINE
  8
0
 10
-3.4088
 20
-21.2248
 11
-3.34181
 21
-21.3347
  0
LINE
  8
0
 10
-3.34181
 20
-21.3347
 11
-3.28447
 21
-21.4497
  0
LINE
  8
0
 10
-3.28447
 20
-21.4497
 11
-3.23715
 21
-21.5692
  0
LINE
  8
0
 10
-3.23715
 20
-21.5692
 11
-3.20035
 21
-21.6928
  0
LINE
  8
0
 10
-3.20035
 20
-21.6928
 11
-3.17448
 21
-21.8197
  0
LINE
  8
0
 10
-3.17448
 20
-21.8197
 11
-3.16002
 21
-21.9495
  0
LINE
  8
0
 10
-3.16002
 20
-21.9495
 11
-3.15738
 21
-22.0817
  0
LINE
  8
0
 10
-3.15738
 20
-22.0817
 11
-3.24219
 21
-22.6826
  0
LINE
  8
0
 10
-3.24219
 20
-22.6826
 11
-3.21823
 21
-22.833
  0
LINE
  8
0
 10
-3.21823
 20
-22.833
 11
-3.14394
 21
-22.9639
  0
LINE
  8
0
 10
-3.14394
 20
-22.9639
 11
-3.02823
 21
-23.0643
  0
LINE
  8
0
 10
-3.02823
 20
-23.0643
 11
-2.90831
 21
-23.1119
  0
LINE
  8
0
 10
-2.90831
 20
-23.1119
 11
-2.43568
 21
-23.1741
  0
LINE
  8
0
 10
-2.43568
 20
-23.1741
 11
-1.96046
 21
-23.2115
  0
LINE
  8
0
 10
-1.96046
 20
-23.2115
 11
-1.83325
 21
-23.1899
  0
LINE
  8
0
 10
-1.83325
 20
-23.1899
 11
-1.69922
 21
-23.1158
  0
LINE
  8
0
 10
-1.69922
 20
-23.1158
 11
-1.59932
 21
-23.0032
  0
LINE
  8
0
 10
-1.59932
 20
-23.0032
 11
-1.54462
 21
-22.861
  0
LINE
  8
0
 10
-1.54462
 20
-22.861
 11
-1.50264
 21
-22.2556
  0
LINE
  8
0
 10
-1.50264
 20
-22.2556
 11
-1.47253
 21
-22.127
  0
LINE
  8
0
 10
-1.47253
 20
-22.127
 11
-1.43134
 21
-22.0031
  0
LINE
  8
0
 10
-1.43134
 20
-22.0031
 11
-1.37959
 21
-21.8843
  0
LINE
  8
0
 10
-1.37959
 20
-21.8843
 11
-1.31787
 21
-21.7711
  0
LINE
  8
0
 10
-1.31787
 20
-21.7711
 11
-1.2467
 21
-21.6641
  0
LINE
  8
0
 10
-1.2467
 20
-21.6641
 11
-1.16669
 21
-21.5635
  0
LINE
  8
0
 10
-1.16669
 20
-21.5635
 11
-1.07832
 21
-21.47
  0
LINE
  8
0
 10
-1.07832
 20
-21.47
 11
-0.982208
 21
-21.3839
  0
LINE
  8
0
 10
-0.982208
 20
-21.3839
 11
-0.878876
 21
-21.3057
  0
LINE
  8
0
 10
-0.878876
 20
-21.3057
 11
-0.76889
 21
-21.2359
  0
LINE
  8
0
 10
-0.76889
 20
-21.2359
 11
-0.652786
 21
-21.1749
  0
LINE
  8
0
 10
-0.652786
 20
-21.1749
 11
-0.531143
 21
-21.1231
  0
LINE
  8
0
 10
-0.531143
 20
-21.1231
 11
-0.40451
 21
-21.0811
  0
LINE
  8
0
 10
-0.40451
 20
-21.0811
 11
-0.273438
 21
-21.0493
  0
LINE
  8
0
 10
-0.273438
 20
-21.0493
 11
-0.138458
 21
-21.0281
  0
LINE
  8
0
 10
-0.138458
 20
-21.0281
 11
-0.000167847
 21
-21.0181
  0
LINE
  8
0
 10
-0.000167847
 20
-21.0181
 11
0.138229
 21
-21.0281
  0
LINE
  8
0
 10
0.138229
 20
-21.0281
 11
0.2733
 21
-21.0492
  0
LINE
  8
0
 10
0.2733
 20
-21.0492
 11
0.40448
 21
-21.081
  0
LINE
  8
0
 10
0.40448
 20
-21.081
 11
0.531189
 21
-21.1229
  0
LINE
  8
0
 10
0.531189
 20
-21.1229
 11
0.652908
 21
-21.1746
  0
LINE
  8
0
 10
0.652908
 20
-21.1746
 11
0.769058
 21
-21.2356
  0
LINE
  8
0
 10
0.769058
 20
-21.2356
 11
0.879089
 21
-21.3055
  0
LINE
  8
0
 10
0.879089
 20
-21.3055
 11
0.982437
 21
-21.3836
  0
LINE
  8
0
 10
0.982437
 20
-21.3836
 11
1.07857
 21
-21.4697
  0
LINE
  8
0
 10
1.07857
 20
-21.4697
 11
1.16693
 21
-21.5633
  0
LINE
  8
0
 10
1.16693
 20
-21.5633
 11
1.24693
 21
-21.6638
  0
LINE
  8
0
 10
1.24693
 20
-21.6638
 11
1.31807
 21
-21.7709
  0
LINE
  8
0
 10
1.31807
 20
-21.7709
 11
1.37975
 21
-21.8841
  0
LINE
  8
0
 10
1.37975
 20
-21.8841
 11
1.43144
 21
-22.0029
  0
LINE
  8
0
 10
1.43144
 20
-22.0029
 11
1.4726
 21
-22.1269
  0
LINE
  8
0
 10
1.4726
 20
-22.1269
 11
1.50264
 21
-22.2556
  0
LINE
  8
0
 10
1.50264
 20
-22.2556
 11
1.54462
 21
-22.861
  0
LINE
  8
0
 10
1.54462
 20
-22.861
 11
1.59932
 21
-23.0032
  0
LINE
  8
0
 10
1.59932
 20
-23.0032
 11
1.69922
 21
-23.1158
  0
LINE
  8
0
 10
1.69922
 20
-23.1158
 11
1.83325
 21
-23.1899
  0
LINE
  8
0
 10
1.83325
 20
-23.1899
 11
1.96046
 21
-23.2115
  0
LINE
  8
0
 10
1.96046
 20
-23.2115
 11
2.43568
 21
-23.1741
  0
ENDSEC
  0
SECTION
  2
OBJECTS
  0
DICTIONARY
  0
ENDSEC
  0
EOF
