  0
SECTION
  2
BLOCKS
  0
ENDSEC
  0
SECTION
  2
ENTITIES
  0
LINE
  8
0
 10
2.44701
 20
-27.9695
 11
2.92844
 21
-27.9168
  0
LINE
  8
0
 10
2.92844
 20
-27.9168
 11
3.05309
 21
-27.8723
  0
LINE
  8
0
 10
3.05309
 20
-27.8723
 11
3.17223
 21
-27.7761
  0
LINE
  8
0
 10
3.17223
 20
-27.7761
 11
3.25105
 21
-27.6478
  0
LINE
  8
0
 10
3.25105
 20
-27.6478
 11
3.28023
 21
-27.4983
  0
LINE
  8
0
 10
3.28023
 20
-27.4983
 11
3.21646
 21
-26.8948
  0
LINE
  8
0
 10
3.21646
 20
-26.8948
 11
3.22377
 21
-26.7629
  0
LINE
  8
0
 10
3.22377
 20
-26.7629
 11
3.24281
 21
-26.6337
  0
LINE
  8
0
 10
3.24281
 20
-26.6337
 11
3.27315
 21
-26.5078
  0
LINE
  8
0
 10
3.27315
 20
-26.5078
 11
3.31429
 21
-26.3856
  0
LINE
  8
0
 10
3.31429
 20
-26.3856
 11
3.36577
 21
-26.2678
  0
LINE
  8
0
 10
3.36577
 20
-26.2678
 11
3.42712
 21
-26.1549
  0
LINE
  8
0
 10
3.42712
 20
-26.1549
 11
3.49789
 21
-26.0475
  0
LINE
  8
0
 10
3.49789
 20
-26.0475
 11
3.57759
 21
-25.946
  0
LINE
  8
0
 10
3.57759
 20
-25.946
 11
3.66579
 21
-25.8511
  0
LINE
  8
0
 10
3.66579
 20
-25.8511
 11
3.76198
 21
-25.7632
  0
LINE
  8
0
 10
3.76198
 20
-25.7632
 11
3.86572
 21
-25.6829
  0
LINE
  8
0
 10
3.86572
 20
-25.6829
 11
3.97653
 21
-25.6109
  0
LINE
  8
0
 10
3.97653
 20
-25.6109
 11
4.09395
 21
-25.5475
  0
LINE
  8
0
 10
4.09395
 20
-25.5475
 11
4.21751
 21
-25.4934
  0
LINE
  8
0
 10
4.21751
 20
-25.4934
 11
4.34676
 21
-25.4491
  0
LINE
  8
0
 10
4.34676
 20
-25.4491
 11
4.4812
 21
-25.4152
  0
LINE
  8
0
 10
4.4812
 20
-25.4152
 11
4.61925
 21
-25.401
  0
LINE
  8
0
 10
4.61925
 20
-25.401
 11
4.75594
 21
-25.3984
  0
LINE
  8
0
 10
4.75594
 20
-25.3984
 11
4.89064
 21
-25.4069
  0
LINE
  8
0
 10
4.89064
 20
-25.4069
 11
5.02272
 21
-25.4262
  0
LINE
  8
0
 10
5.02272
 20
-25.4262
 11
5.15157
 21
-25.456
  0
LINE
  8
0
 10
5.15157
 20
-25.456
 11
5.27652
 21
-25.4959
  0
LINE
  8
0
 10
5.27652
 20
-25.4959
 11
5.39702
 21
-25.5455
  0
LINE
  8
0
 10
5.39702
 20
-25.5455
 11
5.51237
 21
-25.6046
  0
LINE
  8
0
 10
5.51237
 20
-25.6046
 11
5.62198
 21
-25.6727
  0
LINE
  8
0
 10
5.62198
 20
-25.6727
 11
5.72525
 21
-25.7495
  0
LINE
  8
0
 10
5.72525
 20
-25.7495
 11
5.8215
 21
-25.8346
  0
LINE
  8
0
 10
5.8215
 20
-25.8346
 11
5.91016
 21
-25.9277
  0
LINE
  8
0
 10
5.91016
 20
-25.9277
 11
5.99055
 21
-26.0285
  0
LINE
  8
0
 10
5.99055
 20
-26.0285
 11
6.0621
 21
-26.1365
  0
LINE
  8
0
 10
6.0621
 20
-26.1365
 11
6.12415
 21
-26.2514
  0
LINE
  8
0
 10
6.12415
 20
-26.2514
 11
6.17609
 21
-26.373
  0
LINE
  8
0
 10
6.17609
 20
-26.373
 11
6.32256
 21
-26.9619
  0
LINE
  8
0
 10
6.32256
 20
-26.9619
 11
6.40111
 21
-27.0924
  0
LINE
  8
0
 10
6.40111
 20
-27.0924
 11
6.51904
 21
-27.1859
  0
LINE
  8
0
 10
6.51904
 20
-27.1859
 11
6.66393
 21
-27.2356
  0
LINE
  8
0
 10
6.66393
 20
-27.2356
 11
6.79628
 21
-27.2348
  0
LINE
  8
0
 10
6.79628
 20
-27.2348
 11
7.26669
 21
-27.1197
  0
LINE
  8
0
 10
7.26669
 20
-27.1197
 11
7.73164
 21
-26.9842
  0
LINE
  8
0
 10
7.73164
 20
-26.9842
 11
7.84668
 21
-26.9187
  0
LINE
  8
0
 10
7.84668
 20
-26.9187
 11
7.9473
 21
-26.8032
  0
LINE
  8
0
 10
7.9473
 20
-26.8032
 11
8.00266
 21
-26.6632
  0
LINE
  8
0
 10
8.00266
 20
-26.6632
 11
8.00543
 21
-26.5109
  0
LINE
  8
0
 10
8.00543
 20
-26.5109
 11
7.83783
 21
-25.9277
  0
LINE
  8
0
 10
7.83783
 20
-25.9277
 11
7.82213
 21
-25.7965
  0
LINE
  8
0
 10
7.82213
 20
-25.7965
 11
7.81845
 21
-25.666
  0
LINE
  8
0
 10
7.81845
 20
-25.666
 11
7.82645
 21
-25.5367
  0
LINE
  8
0
 10
7.82645
 20
-25.5367
 11
7.84576
 21
-25.4093
  0
LINE
  8
0
 10
7.84576
 20
-25.4093
 11
7.87601
 21
-25.2843
  0
LINE
  8
0
 10
7.87601
 20
-25.2843
 11
7.91682
 21
-25.1625
  0
LINE
  8
0
 10
7.91682
 20
-25.1625
 11
7.96785
 21
-25.0443
  0
LINE
  8
0
 10
7.96785
 20
-25.0443
 11
8.02872
 21
-24.9306
  0
LINE
  8
0
 10
8.02872
 20
-24.9306
 11
8.09909
 21
-24.8218
  0
LINE
  8
0
 10
8.09909
 20
-24.8218
 11
8.17856
 21
-24.7185
  0
LINE
  8
0
 10
8.17856
 20
-24.7185
 11
8.2668
 21
-24.6215
  0
LINE
  8
0
 10
8.2668
 20
-24.6215
 11
8.3634
 21
-24.5312
  0
LINE
  8
0
 10
8.3634
 20
-24.5312
 11
8.46802
 21
-24.4485
  0
LINE
  8
0
 10
8.46802
 20
-24.4485
 11
8.58032
 21
-24.3737
  0
LINE
  8
0
 10
8.58032
 20
-24.3737
 11
8.69991
 21
-24.3077
  0
LINE
  8
0
 10
8.69991
 20
-24.3077
 11
8.82642
 21
-24.2509
  0
LINE
  8
0
 10
8.82642
 20
-24.2509
 11
8.9599
 21
-24.213
  0
LINE
  8
0
 10
8.9599
 20
-24.213
 11
9.09407
 21
-24.1866
  0
LINE
  8
0
 10
9.09407
 20
-24.1866
 11
9.2282
 21
-24.1716
  0
LINE
  8
0
 10
9.2282
 20
-24.1716
 11
9.36162
 21
-24.1677
  0
LINE
  8
0
 10
9.36162
 20
-24.1677
 11
9.49368
 21
-24.1747
  0
LINE
  8
0
 10
9.49368
 20
-24.1747
 11
9.62367
 21
-24.1923
  0
LINE
  8
0
 10
9.62367
 20
-24.1923
 11
9.75096
 21
-24.2202
  0
LINE
  8
0
 10
9.75096
 20
-24.2202
 11
9.87482
 21
-24.2584
  0
LINE
  8
0
 10
9.87482
 20
-24.2584
 11
9.99458
 21
-24.3064
  0
LINE
  8
0
 10
9.99458
 20
-24.3064
 11
10.1096
 21
-24.3641
  0
LINE
  8
0
 10
10.1096
 20
-24.3641
 11
10.2192
 21
-24.4312
  0
LINE
  8
0
 10
10.2192
 20
-24.4312
 11
10.3227
 21
-24.5075
  0
LINE
  8
0
 10
10.3227
 20
-24.5075
 11
10.4193
 21
-24.5928
  0
LINE
  8
0
 10
10.4193
 20
-24.5928
 11
10.5086
 21
-24.6868
  0
LINE
  8
0
 10
10.5086
 20
-24.6868
 11
10.5896
 21
-24.7892
  0
LINE
  8
0
 10
10.5896
 20
-24.7892
 11
10.6619
 21
-24.8998
  0
LINE
  8
0
 10
10.6619
 20
-24.8998
 11
10.9084
 21
-25.4543
  0
LINE
  8
0
 10
10.9084
 20
-25.4543
 11
11.0084
 21
-25.5692
  0
LINE
  8
0
 10
11.0084
 20
-25.5692
 11
11.1408
 21
-25.6409
  0
LINE
  8
0
 10
11.1408
 20
-25.6409
 11
11.2921
 21
-25.6647
  0
LINE
  8
0
 10
11.2921
 20
-25.6647
 11
11.4223
 21
-25.6409
  0
LINE
  8
0
 10
11.4223
 20
-25.6409
 11
11.8656
 21
-25.4458
  0
LINE
  8
0
 10
11.8656
 20
-25.4458
 11
12.2999
 21
-25.2316
  0
LINE
  8
0
 10
12.2999
 20
-25.2316
 11
12.4019
 21
-25.1472
  0
LINE
  8
0
 10
12.4019
 20
-25.1472
 11
12.4809
 21
-25.016
  0
LINE
  8
0
 10
12.4809
 20
-25.016
 11
12.5111
 21
-24.8685
  0
LINE
  8
0
 10
12.5111
 20
-24.8685
 11
12.4874
 21
-24.718
  0
LINE
  8
0
 10
12.4874
 20
-24.718
 11
12.2211
 21
-24.1728
  0
LINE
  8
0
 10
12.2211
 20
-24.1728
 11
12.1828
 21
-24.0463
  0
LINE
  8
0
 10
12.1828
 20
-24.0463
 11
12.1565
 21
-23.9184
  0
LINE
  8
0
 10
12.1565
 20
-23.9184
 11
12.142
 21
-23.7897
  0
LINE
  8
0
 10
12.142
 20
-23.7897
 11
12.1388
 21
-23.6608
  0
LINE
  8
0
 10
12.1388
 20
-23.6608
 11
12.1469
 21
-23.5325
  0
LINE
  8
0
 10
12.1469
 20
-23.5325
 11
12.166
 21
-23.4055
  0
LINE
  8
0
 10
12.166
 20
-23.4055
 11
12.1957
 21
-23.2803
  0
LINE
  8
0
 10
12.1957
 20
-23.2803
 11
12.2359
 21
-23.1577
  0
LINE
  8
0
 10
12.2359
 20
-23.1577
 11
12.2863
 21
-23.0383
  0
LINE
  8
0
 10
12.2863
 20
-23.0383
 11
12.3466
 21
-22.9228
  0
LINE
  8
0
 10
12.3466
 20
-22.9228
 11
12.4167
 21
-22.8119
  0
LINE
  8
0
 10
12.4167
 20
-22.8119
 11
12.4961
 21
-22.7063
  0
LINE
  8
0
 10
12.4961
 20
-22.7063
 11
12.5848
 21
-22.6066
  0
LINE
  8
0
 10
12.5848
 20
-22.6066
 11
12.6824
 21
-22.5135
  0
LINE
  8
0
 10
12.6824
 20
-22.5135
 11
12.7887
 21
-22.4277
  0
LINE
  8
0
 10
12.7887
 20
-22.4277
 11
12.9035
 21
-22.3498
  0
LINE
  8
0
 10
12.9035
 20
-22.3498
 11
13.0283
 21
-22.2893
  0
LINE
  8
0
 10
13.0283
 20
-22.2893
 11
13.1559
 21
-22.24
  0
LINE
  8
0
 10
13.1559
 20
-22.24
 11
13.2854
 21
-22.202
  0
LINE
  8
0
 10
13.2854
 20
-22.202
 11
13.4161
 21
-22.1749
  0
LINE
  8
0
 10
13.4161
 20
-22.1749
 11
13.5473
 21
-22.1589
  0
LINE
  8
0
 10
13.5473
 20
-22.1589
 11
13.6784
 21
-22.1536
  0
LINE
  8
0
 10
13.6784
 20
-22.1536
 11
13.8086
 21
-22.1591
  0
LINE
  8
0
 10
13.8086
 20
-22.1591
 11
13.9372
 21
-22.1751
  0
LINE
  8
0
 10
13.9372
 20
-22.1751
 11
14.0635
 21
-22.2016
  0
LINE
  8
0
 10
14.0635
 20
-22.2016
 11
14.1868
 21
-22.2384
  0
LINE
  8
0
 10
14.1868
 20
-22.2384
 11
14.3064
 21
-22.2855
  0
LINE
  8
0
 10
14.3064
 20
-22.2855
 11
14.4215
 21
-22.3427
  0
LINE
  8
0
 10
14.4215
 20
-22.3427
 11
14.5315
 21
-22.4099
  0
LINE
  8
0
 10
14.5315
 20
-22.4099
 11
14.6357
 21
-22.4869
  0
LINE
  8
0
 10
14.6357
 20
-22.4869
 11
14.7333
 21
-22.5737
  0
LINE
  8
0
 10
14.7333
 20
-22.5737
 11
14.8237
 21
-22.6702
  0
LINE
  8
0
 10
14.8237
 20
-22.6702
 11
15.1628
 21
-23.1734
  0
LINE
  8
0
 10
15.1628
 20
-23.1734
 11
15.2812
 21
-23.2692
  0
LINE
  8
0
 10
15.2812
 20
-23.2692
 11
15.424
 21
-23.3168
  0
LINE
  8
0
 10
15.424
 20
-23.3168
 11
15.5772
 21
-23.3139
  0
LINE
  8
0
 10
15.5772
 20
-23.3139
 11
15.7013
 21
-23.2679
  0
LINE
  8
0
 10
15.7013
 20
-23.2679
 11
16.1039
 21
-22.9988
  0
LINE
  8
0
 10
16.1039
 20
-22.9988
 11
16.4945
 21
-22.7124
  0
LINE
  8
0
 10
16.4945
 20
-22.7124
 11
16.5802
 21
-22.6116
  0
LINE
  8
0
 10
16.5802
 20
-22.6116
 11
16.6353
 21
-22.4687
  0
LINE
  8
0
 10
16.6353
 20
-22.4687
 11
16.6394
 21
-22.3182
  0
LINE
  8
0
 10
16.6394
 20
-22.3182
 11
16.5899
 21
-22.1741
  0
LINE
  8
0
 10
16.5899
 20
-22.1741
 11
16.233
 21
-21.6834
  0
LINE
  8
0
 10
16.233
 20
-21.6834
 11
16.1733
 21
-21.5655
  0
LINE
  8
0
 10
16.1733
 20
-21.5655
 11
16.1252
 21
-21.4441
  0
LINE
  8
0
 10
16.1252
 20
-21.4441
 11
16.0885
 21
-21.3198
  0
LINE
  8
0
 10
16.0885
 20
-21.3198
 11
16.0631
 21
-21.1935
  0
LINE
  8
0
 10
16.0631
 20
-21.1935
 11
16.0488
 21
-21.0657
  0
LINE
  8
0
 10
16.0488
 20
-21.0657
 11
16.0455
 21
-20.9373
  0
LINE
  8
0
 10
16.0455
 20
-20.9373
 11
16.053
 21
-20.8088
  0
LINE
  8
0
 10
16.053
 20
-20.8088
 11
16.0713
 21
-20.6811
  0
LINE
  8
0
 10
16.0713
 20
-20.6811
 11
16.1002
 21
-20.5548
  0
LINE
  8
0
 10
16.1002
 20
-20.5548
 11
16.1396
 21
-20.4306
  0
LINE
  8
0
 10
16.1396
 20
-20.4306
 11
16.1893
 21
-20.3092
  0
LINE
  8
0
 10
16.1893
 20
-20.3092
 11
16.2492
 21
-20.1914
  0
LINE
  8
0
 10
16.2492
 20
-20.1914
 11
16.3192
 21
-20.0778
  0
LINE
  8
0
 10
16.3192
 20
-20.0778
 11
16.3992
 21
-19.9692
  0
LINE
  8
0
 10
16.3992
 20
-19.9692
 11
16.489
 21
-19.8662
  0
LINE
  8
0
 10
16.489
 20
-19.8662
 11
16.5884
 21
-19.7696
  0
LINE
  8
0
 10
16.5884
 20
-19.7696
 11
16.7009
 21
-19.6883
  0
LINE
  8
0
 10
16.7009
 20
-19.6883
 11
16.8179
 21
-19.6176
  0
LINE
  8
0
 10
16.8179
 20
-19.6176
 11
16.9389
 21
-19.5577
  0
LINE
  8
0
 10
16.9389
 20
-19.5577
 11
17.0629
 21
-19.5084
  0
LINE
  8
0
 10
17.0629
 20
-19.5084
 11
17.1894
 21
-19.4697
  0
LINE
  8
0
 10
17.1894
 20
-19.4697
 11
17.3176
 21
-19.4418
  0
LINE
  8
0
 10
17.3176
 20
-19.4418
 11
17.4467
 21
-19.4246
  0
LINE
  8
0
 10
17.4467
 20
-19.4246
 11
17.5762
 21
-19.418
  0
LINE
  8
0
 10
17.5762
 20
-19.418
 11
17.7051
 21
-19.4222
  0
LINE
  8
0
 10
17.7051
 20
-19.4222
 11
17.8329
 21
-19.4371
  0
LINE
  8
0
 10
17.8329
 20
-19.4371
 11
17.9589
 21
-19.4627
  0
LINE
  8
0
 10
17.9589
 20
-19.4627
 11
18.0822
 21
-19.499
  0
LINE
  8
0
 10
18.0822
 20
-19.499
 11
18.2022
 21
-19.546
  0
LINE
  8
0
 10
18.2022
 20
-19.546
 11
18.3182
 21
-19.6038
  0
LINE
  8
0
 10
18.3182
 20
-19.6038
 11
18.4294
 21
-19.6723
  0
LINE
  8
0
 10
18.4294
 20
-19.6723
 11
18.5351
 21
-19.7516
  0
LINE
  8
0
 10
18.5351
 20
-19.7516
 11
18.9564
 21
-20.1884
  0
LINE
  8
0
 10
18.9564
 20
-20.1884
 11
19.0897
 21
-20.2621
  0
LINE
  8
0
 10
19.0897
 20
-20.2621
 11
19.2386
 21
-20.2842
  0
LINE
  8
0
 10
19.2386
 20
-20.2842
 11
19.3889
 21
-20.2548
  0
LINE
  8
0
 10
19.3889
 20
-20.2548
 11
19.5032
 21
-20.1879
  0
LINE
  8
0
 10
19.5032
 20
-20.1879
 11
19.853
 21
-19.853
  0
LINE
  8
0
 10
19.853
 20
-19.853
 11
20.1879
 21
-19.5032
  0
LINE
  8
0
 10
20.1879
 20
-19.5032
 11
20.2548
 21
-19.3889
  0
LINE
  8
0
 10
20.2548
 20
-19.3889
 11
20.2842
 21
-19.2386
  0
LINE
  8
0
 10
20.2842
 20
-19.2386
 11
20.2621
 21
-19.0897
  0
LINE
  8
0
 10
20.2621
 20
-19.0897
 11
20.1884
 21
-18.9564
  0
LINE
  8
0
 10
20.1884
 20
-18.9564
 11
19.7516
 21
-18.5351
  0
LINE
  8
0
 10
19.7516
 20
-18.5351
 11
19.6724
 21
-18.4294
  0
LINE
  8
0
 10
19.6724
 20
-18.4294
 11
19.604
 21
-18.3182
  0
LINE
  8
0
 10
19.604
 20
-18.3182
 11
19.5462
 21
-18.2022
  0
LINE
  8
0
 10
19.5462
 20
-18.2022
 11
19.4993
 21
-18.0822
  0
LINE
  8
0
 10
19.4993
 20
-18.0822
 11
19.463
 21
-17.9588
  0
LINE
  8
0
 10
19.463
 20
-17.9588
 11
19.4374
 21
-17.8329
  0
LINE
  8
0
 10
19.4374
 20
-17.8329
 11
19.4225
 21
-17.7051
  0
LINE
  8
0
 10
19.4225
 20
-17.7051
 11
19.4184
 21
-17.5761
  0
LINE
  8
0
 10
19.4184
 20
-17.5761
 11
19.4249
 21
-17.4467
  0
LINE
  8
0
 10
19.4249
 20
-17.4467
 11
19.4421
 21
-17.3176
  0
LINE
  8
0
 10
19.4421
 20
-17.3176
 11
19.47
 21
-17.1894
  0
LINE
  8
0
 10
19.47
 20
-17.1894
 11
19.5085
 21
-17.063
  0
LINE
  8
0
 10
19.5085
 20
-17.063
 11
19.5578
 21
-16.939
  0
LINE
  8
0
 10
19.5578
 20
-16.939
 11
19.6176
 21
-16.8181
  0
LINE
  8
0
 10
19.6176
 20
-16.8181
 11
19.6882
 21
-16.7011
  0
LINE
  8
0
 10
19.6882
 20
-16.7011
 11
19.7694
 21
-16.5887
  0
LINE
  8
0
 10
19.7694
 20
-16.5887
 11
19.866
 21
-16.4891
  0
LINE
  8
0
 10
19.866
 20
-16.4891
 11
19.969
 21
-16.3992
  0
LINE
  8
0
 10
19.969
 20
-16.3992
 11
20.0777
 21
-16.3191
  0
LINE
  8
0
 10
20.0777
 20
-16.3191
 11
20.1913
 21
-16.249
  0
LINE
  8
0
 10
20.1913
 20
-16.249
 11
20.3091
 21
-16.189
  0
LINE
  8
0
 10
20.3091
 20
-16.189
 11
20.4305
 21
-16.1393
  0
LINE
  8
0
 10
20.4305
 20
-16.1393
 11
20.5547
 21
-16.0999
  0
LINE
  8
0
 10
20.5547
 20
-16.0999
 11
20.681
 21
-16.071
  0
LINE
  8
0
 10
20.681
 20
-16.071
 11
20.8088
 21
-16.0527
  0
LINE
  8
0
 10
20.8088
 20
-16.0527
 11
20.9372
 21
-16.0451
  0
LINE
  8
0
 10
20.9372
 20
-16.0451
 11
21.0657
 21
-16.0484
  0
LINE
  8
0
 10
21.0657
 20
-16.0484
 11
21.1935
 21
-16.0628
  0
LINE
  8
0
 10
21.1935
 20
-16.0628
 11
21.3198
 21
-16.0883
  0
LINE
  8
0
 10
21.3198
 20
-16.0883
 11
21.4441
 21
-16.1251
  0
LINE
  8
0
 10
21.4441
 20
-16.1251
 11
21.5655
 21
-16.1732
  0
LINE
  8
0
 10
21.5655
 20
-16.1732
 11
21.6834
 21
-16.233
  0
LINE
  8
0
 10
21.6834
 20
-16.233
 11
22.1741
 21
-16.5899
  0
LINE
  8
0
 10
22.1741
 20
-16.5899
 11
22.3182
 21
-16.6394
  0
LINE
  8
0
 10
22.3182
 20
-16.6394
 11
22.4687
 21
-16.6353
  0
LINE
  8
0
 10
22.4687
 20
-16.6353
 11
22.6116
 21
-16.5802
  0
LINE
  8
0
 10
22.6116
 20
-16.5802
 11
22.7124
 21
-16.4945
  0
LINE
  8
0
 10
22.7124
 20
-16.4945
 11
22.9988
 21
-16.1039
  0
LINE
  8
0
 10
22.9988
 20
-16.1039
 11
23.2679
 21
-15.7013
  0
LINE
  8
0
 10
23.2679
 20
-15.7013
 11
23.3139
 21
-15.5772
  0
LINE
  8
0
 10
23.3139
 20
-15.5772
 11
23.3168
 21
-15.424
  0
LINE
  8
0
 10
23.3168
 20
-15.424
 11
23.2692
 21
-15.2812
  0
LINE
  8
0
 10
23.2692
 20
-15.2812
 11
23.1734
 21
-15.1628
  0
LINE
  8
0
 10
23.1734
 20
-15.1628
 11
22.6702
 21
-14.8237
  0
LINE
  8
0
 10
22.6702
 20
-14.8237
 11
22.5738
 21
-14.7333
  0
LINE
  8
0
 10
22.5738
 20
-14.7333
 11
22.4871
 21
-14.6357
  0
LINE
  8
0
 10
22.4871
 20
-14.6357
 11
22.4101
 21
-14.5315
  0
LINE
  8
0
 10
22.4101
 20
-14.5315
 11
22.343
 21
-14.4215
  0
LINE
  8
0
 10
22.343
 20
-14.4215
 11
22.2858
 21
-14.3063
  0
LINE
  8
0
 10
22.2858
 20
-14.3063
 11
22.2388
 21
-14.1867
  0
LINE
  8
0
 10
22.2388
 20
-14.1867
 11
22.2019
 21
-14.0634
  0
LINE
  8
0
 10
22.2019
 20
-14.0634
 11
22.1754
 21
-13.9371
  0
LINE
  8
0
 10
22.1754
 20
-13.9371
 11
22.1594
 21
-13.8086
  0
LINE
  8
0
 10
22.1594
 20
-13.8086
 11
22.1539
 21
-13.6784
  0
LINE
  8
0
 10
22.1539
 20
-13.6784
 11
22.1591
 21
-13.5473
  0
LINE
  8
0
 10
22.1591
 20
-13.5473
 11
22.1751
 21
-13.4161
  0
LINE
  8
0
 10
22.1751
 20
-13.4161
 11
22.2021
 21
-13.2855
  0
LINE
  8
0
 10
22.2021
 20
-13.2855
 11
22.2401
 21
-13.156
  0
LINE
  8
0
 10
22.2401
 20
-13.156
 11
22.2892
 21
-13.0286
  0
LINE
  8
0
 10
22.2892
 20
-13.0286
 11
22.3496
 21
-12.9038
  0
LINE
  8
0
 10
22.3496
 20
-12.9038
 11
22.4275
 21
-12.7889
  0
LINE
  8
0
 10
22.4275
 20
-12.7889
 11
22.5133
 21
-12.6825
  0
LINE
  8
0
 10
22.5133
 20
-12.6825
 11
22.6064
 21
-12.5848
  0
LINE
  8
0
 10
22.6064
 20
-12.5848
 11
22.7061
 21
-12.496
  0
LINE
  8
0
 10
22.7061
 20
-12.496
 11
22.8118
 21
-12.4165
  0
LINE
  8
0
 10
22.8118
 20
-12.4165
 11
22.9227
 21
-12.3464
  0
LINE
  8
0
 10
22.9227
 20
-12.3464
 11
23.0381
 21
-12.286
  0
LINE
  8
0
 10
23.0381
 20
-12.286
 11
23.1575
 21
-12.2356
  0
LINE
  8
0
 10
23.1575
 20
-12.2356
 11
23.2802
 21
-12.1954
  0
LINE
  8
0
 10
23.2802
 20
-12.1954
 11
23.4053
 21
-12.1656
  0
LINE
  8
0
 10
23.4053
 20
-12.1656
 11
23.5324
 21
-12.1466
  0
LINE
  8
0
 10
23.5324
 20
-12.1466
 11
23.6608
 21
-12.1385
  0
LINE
  8
0
 10
23.6608
 20
-12.1385
 11
23.7896
 21
-12.1417
  0
LINE
  8
0
 10
23.7896
 20
-12.1417
 11
23.9184
 21
-12.1564
  0
LINE
  8
0
 10
23.9184
 20
-12.1564
 11
24.0463
 21
-12.1827
  0
LINE
  8
0
 10
24.0463
 20
-12.1827
 11
24.1728
 21
-12.2211
  0
LINE
  8
0
 10
24.1728
 20
-12.2211
 11
24.718
 21
-12.4874
  0
LINE
  8
0
 10
24.718
 20
-12.4874
 11
24.8685
 21
-12.5111
  0
LINE
  8
0
 10
24.8685
 20
-12.5111
 11
25.016
 21
-12.4809
  0
LINE
  8
0
 10
25.016
 20
-12.4809
 11
25.1472
 21
-12.4019
  0
LINE
  8
0
 10
25.1472
 20
-12.4019
 11
25.2316
 21
-12.2999
  0
LINE
  8
0
 10
25.2316
 20
-12.2999
 11
25.4458
 21
-11.8656
  0
LINE
  8
0
 10
25.4458
 20
-11.8656
 11
25.6409
 21
-11.4223
  0
LINE
  8
0
 10
25.6409
 20
-11.4223
 11
25.6647
 21
-11.2921
  0
LINE
  8
0
 10
25.6647
 20
-11.2921
 11
25.6409
 21
-11.1408
  0
LINE
  8
0
 10
25.6409
 20
-11.1408
 11
25.5692
 21
-11.0084
  0
LINE
  8
0
 10
25.5692
 20
-11.0084
 11
25.4543
 21
-10.9084
  0
LINE
  8
0
 10
25.4543
 20
-10.9084
 11
24.8998
 21
-10.6619
  0
LINE
  8
0
 10
24.8998
 20
-10.6619
 11
24.7893
 21
-10.5896
  0
LINE
  8
0
 10
24.7893
 20
-10.5896
 11
24.6869
 21
-10.5085
  0
LINE
  8
0
 10
24.6869
 20
-10.5085
 11
24.593
 21
-10.4193
  0
LINE
  8
0
 10
24.593
 20
-10.4193
 11
24.5078
 21
-10.3225
  0
LINE
  8
0
 10
24.5078
 20
-10.3225
 11
24.4315
 21
-10.2191
  0
LINE
  8
0
 10
24.4315
 20
-10.2191
 11
24.3644
 21
-10.1095
  0
LINE
  8
0
 10
24.3644
 20
-10.1095
 11
24.3067
 21
-9.99445
  0
LINE
  8
0
 10
24.3067
 20
-9.99445
 11
24.2587
 21
-9.87469
  0
LINE
  8
0
 10
24.2587
 20
-9.87469
 11
24.2206
 21
-9.75085
  0
LINE
  8
0
 10
24.2206
 20
-9.75085
 11
24.1926
 21
-9.62361
  0
LINE
  8
0
 10
24.1926
 20
-9.62361
 11
24.1749
 21
-9.49364
  0
LINE
  8
0
 10
24.1749
 20
-9.49364
 11
24.1679
 21
-9.36165
  0
LINE
  8
0
 10
24.1679
 20
-9.36165
 11
24.1718
 21
-9.22829
  0
LINE
  8
0
 10
24.1718
 20
-9.22829
 11
24.1867
 21
-9.09422
  0
LINE
  8
0
 10
24.1867
 20
-9.09422
 11
24.213
 21
-8.96016
  0
LINE
  8
0
 10
24.213
 20
-8.96016
 11
24.2508
 21
-8.82675
  0
LINE
  8
0
 10
24.2508
 20
-8.82675
 11
24.3076
 21
-8.70012
  0
LINE
  8
0
 10
24.3076
 20
-8.70012
 11
24.3736
 21
-8.5804
  0
LINE
  8
0
 10
24.3736
 20
-8.5804
 11
24.4483
 21
-8.468
  0
LINE
  8
0
 10
24.4483
 20
-8.468
 11
24.5311
 21
-8.36328
  0
LINE
  8
0
 10
24.5311
 20
-8.36328
 11
24.6213
 21
-8.2666
  0
LINE
  8
0
 10
24.6213
 20
-8.2666
 11
24.7183
 21
-8.17831
  0
LINE
  8
0
 10
24.7183
 20
-8.17831
 11
24.8216
 21
-8.0988
  0
LINE
  8
0
 10
24.8216
 20
-8.0988
 11
24.9304
 21
-8.02843
  0
LINE
  8
0
 10
24.9304
 20
-8.02843
 11
25.0442
 21
-7.96754
  0
LINE
  8
0
 10
25.0442
 20
-7.96754
 11
25.1623
 21
-7.9165
  0
LINE
  8
0
 10
25.1623
 20
-7.9165
 11
25.2842
 21
-7.87572
  0
LINE
  8
0
 10
25.2842
 20
-7.87572
 11
25.4091
 21
-7.84549
  0
LINE
  8
0
 10
25.4091
 20
-7.84549
 11
25.5366
 21
-7.82625
  0
LINE
  8
0
 10
25.5366
 20
-7.82625
 11
25.6659
 21
-7.8183
  0
LINE
  8
0
 10
25.6659
 20
-7.8183
 11
25.7965
 21
-7.82204
  0
LINE
  8
0
 10
25.7965
 20
-7.82204
 11
25.9277
 21
-7.83783
  0
LINE
  8
0
 10
25.9277
 20
-7.83783
 11
26.5109
 21
-8.00543
  0
LINE
  8
0
 10
26.5109
 20
-8.00543
 11
26.6632
 21
-8.00266
  0
LINE
  8
0
 10
26.6632
 20
-8.00266
 11
26.8032
 21
-7.9473
  0
LINE
  8
0
 10
26.8032
 20
-7.9473
 11
26.9187
 21
-7.84668
  0
LINE
  8
0
 10
26.9187
 20
-7.84668
 11
26.9842
 21
-7.73164
  0
LINE
  8
0
 10
26.9842
 20
-7.73164
 11
27.1197
 21
-7.26669
  0
LINE
  8
0
 10
27.1197
 20
-7.26669
 11
27.2348
 21
-6.79628
  0
LINE
  8
0
 10
27.2348
 20
-6.79628
 11
27.2356
 21
-6.66393
  0
LINE
  8
0
 10
27.2356
 20
-6.66393
 11
27.1859
 21
-6.51904
  0
LINE
  8
0
 10
27.1859
 20
-6.51904
 11
27.0924
 21
-6.40111
  0
LINE
  8
0
 10
27.0924
 20
-6.40111
 11
26.9619
 21
-6.32256
  0
LINE
  8
0
 10
26.9619
 20
-6.32256
 11
26.373
 21
-6.17609
  0
LINE
  8
0
 10
26.373
 20
-6.17609
 11
26.2515
 21
-6.1241
  0
LINE
  8
0
 10
26.2515
 20
-6.1241
 11
26.1366
 21
-6.06201
  0
LINE
  8
0
 10
26.1366
 20
-6.06201
 11
26.0287
 21
-5.99043
  0
LINE
  8
0
 10
26.0287
 20
-5.99043
 11
25.9279
 21
-5.90999
  0
LINE
  8
0
 10
25.9279
 20
-5.90999
 11
25.8349
 21
-5.82132
  0
LINE
  8
0
 10
25.8349
 20
-5.82132
 11
25.7498
 21
-5.72505
  0
LINE
  8
0
 10
25.7498
 20
-5.72505
 11
25.673
 21
-5.6218
  0
LINE
  8
0
 10
25.673
 20
-5.6218
 11
25.6049
 21
-5.51219
  0
LINE
  8
0
 10
25.6049
 20
-5.51219
 11
25.5458
 21
-5.39685
  0
LINE
  8
0
 10
25.5458
 20
-5.39685
 11
25.4961
 21
-5.27641
  0
LINE
  8
0
 10
25.4961
 20
-5.27641
 11
25.4562
 21
-5.15147
  0
LINE
  8
0
 10
25.4562
 20
-5.15147
 11
25.4264
 21
-5.02271
  0
LINE
  8
0
 10
25.4264
 20
-5.02271
 11
25.407
 21
-4.8907
  0
LINE
  8
0
 10
25.407
 20
-4.8907
 11
25.3984
 21
-4.75609
  0
LINE
  8
0
 10
25.3984
 20
-4.75609
 11
25.401
 21
-4.61949
  0
LINE
  8
0
 10
25.401
 20
-4.61949
 11
25.4151
 21
-4.48155
  0
LINE
  8
0
 10
25.4151
 20
-4.48155
 11
25.449
 21
-4.34698
  0
LINE
  8
0
 10
25.449
 20
-4.34698
 11
25.4933
 21
-4.21762
  0
LINE
  8
0
 10
25.4933
 20
-4.21762
 11
25.5473
 21
-4.09395
  0
LINE
  8
0
 10
25.5473
 20
-4.09395
 11
25.6107
 21
-3.97644
  0
LINE
  8
0
 10
25.6107
 20
-3.97644
 11
25.6827
 21
-3.86555
  0
LINE
  8
0
 10
25.6827
 20
-3.86555
 11
25.763
 21
-3.76178
  0
LINE
  8
0
 10
25.763
 20
-3.76178
 11
25.8508
 21
-3.66554
  0
LINE
  8
0
 10
25.8508
 20
-3.66554
 11
25.9458
 21
-3.57733
  0
LINE
  8
0
 10
25.9458
 20
-3.57733
 11
26.0473
 21
-3.49762
  0
LINE
  8
0
 10
26.0473
 20
-3.49762
 11
26.1547
 21
-3.42685
  0
LINE
  8
0
 10
26.1547
 20
-3.42685
 11
26.2677
 21
-3.36551
  0
LINE
  8
0
 10
26.2677
 20
-3.36551
 11
26.3855
 21
-3.31406
  0
LINE
  8
0
 10
26.3855
 20
-3.31406
 11
26.5077
 21
-3.27296
  0
LINE
  8
0
 10
26.5077
 20
-3.27296
 11
26.6336
 21
-3.24268
  0
LINE
  8
0
 10
26.6336
 20
-3.24268
 11
26.7629
 21
-3.22369
  0
LINE
  8
0
 10
26.7629
 20
-3.22369
 11
26.8948
 21
-3.21646
  0
LINE
  8
0
 10
26.8948
 20
-3.21646
 11
27.4983
 21
-3.28023
  0
LINE
  8
0
 10
27.4983
 20
-3.28023
 11
27.6478
 21
-3.25105
  0
LINE
  8
0
 10
27.6478
 20
-3.25105
 11
27.7761
 21
-3.17223
  0
LINE
  8
0
 10
27.7761
 20
-3.17223
 11
27.8723
 21
-3.05309
  0
LINE
  8
0
 10
27.8723
 20
-3.05309
 11
27.9168
 21
-2.92844
  0
LINE
  8
0
 10
27.9168
 20
-2.92844
 11
27.9695
 21
-2.44701
  0
LINE
  8
0
 10
27.9695
 20
-2.44701
 11
28.0012
 21
-1.96375
  0
LINE
  8
0
 10
28.0012
 20
-1.96375
 11
27.979
 21
-1.83325
  0
LINE
  8
0
 10
27.979
 20
-1.83325
 11
27.9049
 21
-1.69922
  0
LINE
  8
0
 10
27.9049
 20
-1.69922
 11
27.7923
 21
-1.59932
  0
LINE
  8
0
 10
27.7923
 20
-1.59932
 11
27.6501
 21
-1.54462
  0
LINE
  8
0
 10
27.6501
 20
-1.54462
 11
27.0448
 21
-1.50264
  0
LINE
  8
0
 10
27.0448
 20
-1.50264
 11
26.9161
 21
-1.47253
  0
LINE
  8
0
 10
26.9161
 20
-1.47253
 11
26.7922
 21
-1.43134
  0
LINE
  8
0
 10
26.7922
 20
-1.43134
 11
26.6734
 21
-1.37959
  0
LINE
  8
0
 10
26.6734
 20
-1.37959
 11
26.5603
 21
-1.31787
  0
LINE
  8
0
 10
26.5603
 20
-1.31787
 11
26.4532
 21
-1.2467
  0
LINE
  8
0
 10
26.4532
 20
-1.2467
 11
26.3527
 21
-1.16669
  0
LINE
  8
0
 10
26.3527
 20
-1.16669
 11
26.2592
 21
-1.07832
  0
LINE
  8
0
 10
26.2592
 20
-1.07832
 11
26.1731
 21
-0.982208
  0
LINE
  8
0
 10
26.1731
 20
-0.982208
 11
26.0949
 21
-0.878876
  0
LINE
  8
0
 10
26.0949
 20
-0.878876
 11
26.025
 21
-0.76889
  0
LINE
  8
0
 10
26.025
 20
-0.76889
 11
25.964
 21
-0.652786
  0
LINE
  8
0
 10
25.964
 20
-0.652786
 11
25.9123
 21
-0.531143
  0
LINE
  8
0
 10
25.9123
 20
-0.531143
 11
25.8703
 21
-0.40451
  0
LINE
  8
0
 10
25.8703
 20
-0.40451
 11
25.8385
 21
-0.273438
  0
LINE
  8
0
 10
25.8385
 20
-0.273438
 11
25.8173
 21
-0.138458
  0
LINE
  8
0
 10
25.8173
 20
-0.138458
 11
25.8072
 21
-0.000167847
  0
LINE
  8
0
 10
25.8072
 20
-0.000167847
 11
25.8172
 21
0.138229
  0
LINE
  8
0
 10
25.8172
 20
0.138229
 11
25.8384
 21
0.2733
  0
LINE
  8
0
 10
25.8384
 20
0.2733
 11
25.8701
 21
0.40448
  0
LINE
  8
0
 10
25.8701
 20
0.40448
 11
25.9121
 21
0.531189
  0
LINE
  8
0
 10
25.9121
 20
0.531189
 11
25.9638
 21
0.652908
  0
LINE
  8
0
 10
25.9638
 20
0.652908
 11
26.0248
 21
0.769058
  0
LINE
  8
0
 10
26.0248
 20
0.769058
 11
26.0946
 21
0.879089
  0
LINE
  8
0
 10
26.0946
 20
0.879089
 11
26.1728
 21
0.982437
  0
LINE
  8
0
 10
26.1728
 20
0.982437
 11
26.2589
 21
1.07857
  0
LINE
  8
0
 10
26.2589
 20
1.07857
 11
26.3524
 21
1.16693
  0
LINE
  8
0
 10
26.3524
 20
1.16693
 11
26.453
 21
1.24693
  0
LINE
  8
0
 10
26.453
 20
1.24693
 11
26.5601
 21
1.31807
  0
LINE
  8
0
 10
26.5601
 20
1.31807
 11
26.6733
 21
1.37975
  0
LINE
  8
0
 10
26.6733
 20
1.37975
 11
26.7921
 21
1.43144
  0
LINE
  8
0
 10
26.7921
 20
1.43144
 11
26.9161
 21
1.4726
  0
LINE
  8
0
 10
26.9161
 20
1.4726
 11
27.0448
 21
1.50264
  0
LINE
  8
0
 10
27.0448
 20
1.50264
 11
27.6501
 21
1.54462
  0
LINE
  8
0
 10
27.6501
 20
1.54462
 11
27.7923
 21
1.59932
  0
LINE
  8
0
 10
27.7923
 20
1.59932
 11
27.9049
 21
1.69922
  0
LINE
  8
0
 10
27.9049
 20
1.69922
 11
27.979
 21
1.83325
  0
LINE
  8
0
 10
27.979
 20
1.83325
 11
28.0012
 21
1.96375
  0
LINE
  8
0
 10
28.0012
 20
1.96375
 11
27.9695
 21
2.44701
  0
LINE
  8
0
 10
27.9695
 20
2.44701
 11
27.9168
 21
2.92844
  0
LINE
  8
0
 10
27.9168
 20
2.92844
 11
27.8723
 21
3.05309
  0
LINE
  8
0
 10
27.8723
 20
3.05309
 11
27.7761
 21
3.17223
  0
LINE
  8
0
 10
27.7761
 20
3.17223
 11
27.6478
 21
3.25105
  0
LINE
  8
0
 10
27.6478
 20
3.25105
 11
27.4983
 21
3.28023
  0
LINE
  8
0
 10
27.4983
 20
3.28023
 11
26.8948
 21
3.21646
  0
LINE
  8
0
 10
26.8948
 20
3.21646
 11
26.7629
 21
3.22377
  0
LINE
  8
0
 10
26.7629
 20
3.22377
 11
26.6337
 21
3.24281
  0
LINE
  8
0
 10
26.6337
 20
3.24281
 11
26.5078
 21
3.27315
  0
LINE
  8
0
 10
26.5078
 20
3.27315
 11
26.3856
 21
3.31429
  0
LINE
  8
0
 10
26.3856
 20
3.31429
 11
26.2678
 21
3.36577
  0
LINE
  8
0
 10
26.2678
 20
3.36577
 11
26.1549
 21
3.42712
  0
LINE
  8
0
 10
26.1549
 20
3.42712
 11
26.0475
 21
3.49789
  0
LINE
  8
0
 10
26.0475
 20
3.49789
 11
25.946
 21
3.57759
  0
LINE
  8
0
 10
25.946
 20
3.57759
 11
25.8511
 21
3.66579
  0
LINE
  8
0
 10
25.8511
 20
3.66579
 11
25.7632
 21
3.76198
  0
LINE
  8
0
 10
25.7632
 20
3.76198
 11
25.6829
 21
3.86572
  0
LINE
  8
0
 10
25.6829
 20
3.86572
 11
25.6109
 21
3.97653
  0
LINE
  8
0
 10
25.6109
 20
3.97653
 11
25.5475
 21
4.09395
  0
LINE
  8
0
 10
25.5475
 20
4.09395
 11
25.4934
 21
4.21751
  0
LINE
  8
0
 10
25.4934
 20
4.21751
 11
25.4491
 21
4.34676
  0
LINE
  8
0
 10
25.4491
 20
4.34676
 11
25.4152
 21
4.4812
  0
LINE
  8
0
 10
25.4152
 20
4.4812
 11
25.401
 21
4.61925
  0
LINE
  8
0
 10
25.401
 20
4.61925
 11
25.3984
 21
4.75594
  0
LINE
  8
0
 10
25.3984
 20
4.75594
 11
25.4069
 21
4.89064
  0
LINE
  8
0
 10
25.4069
 20
4.89064
 11
25.4262
 21
5.02272
  0
LINE
  8
0
 10
25.4262
 20
5.02272
 11
25.456
 21
5.15157
  0
LINE
  8
0
 10
25.456
 20
5.15157
 11
25.4959
 21
5.27652
  0
LINE
  8
0
 10
25.4959
 20
5.27652
 11
25.5455
 21
5.39702
  0
LINE
  8
0
 10
25.5455
 20
5.39702
 11
25.6046
 21
5.51237
  0
LINE
  8
0
 10
25.6046
 20
5.51237
 11
25.6727
 21
5.62198
  0
LINE
  8
0
 10
25.6727
 20
5.62198
 11
25.7495
 21
5.72525
  0
LINE
  8
0
 10
25.7495
 20
5.72525
 11
25.8346
 21
5.8215
  0
LINE
  8
0
 10
25.8346
 20
5.8215
 11
25.9277
 21
5.91016
  0
LINE
  8
0
 10
25.9277
 20
5.91016
 11
26.0285
 21
5.99055
  0
LINE
  8
0
 10
26.0285
 20
5.99055
 11
26.1365
 21
6.0621
  0
LINE
  8
0
 10
26.1365
 20
6.0621
 11
26.2514
 21
6.12415
  0
LINE
  8
0
 10
26.2514
 20
6.12415
 11
26.373
 21
6.17609
  0
LINE
  8
0
 10
26.373
 20
6.17609
 11
26.9619
 21
6.32256
  0
LINE
  8
0
 10
26.9619
 20
6.32256
 11
27.0924
 21
6.40111
  0
LINE
  8
0
 10
27.0924
 20
6.40111
 11
27.1859
 21
6.51904
  0
LINE
  8
0
 10
27.1859
 20
6.51904
 11
27.2356
 21
6.66393
  0
LINE
  8
0
 10
27.2356
 20
6.66393
 11
27.2348
 21
6.79628
  0
LINE
  8
0
 10
27.2348
 20
6.79628
 11
27.1197
 21
7.26669
  0
LINE
  8
0
 10
27.1197
 20
7.26669
 11
26.9842
 21
7.73164
  0
LINE
  8
0
 10
26.9842
 20
7.73164
 11
26.9187
 21
7.84668
  0
LINE
  8
0
 10
26.9187
 20
7.84668
 11
26.8032
 21
7.9473
  0
LINE
  8
0
 10
26.8032
 20
7.9473
 11
26.6632
 21
8.00266
  0
LINE
  8
0
 10
26.6632
 20
8.00266
 11
26.5109
 21
8.00543
  0
LINE
  8
0
 10
26.5109
 20
8.00543
 11
25.9277
 21
7.83783
  0
LINE
  8
0
 10
25.9277
 20
7.83783
 11
25.7965
 21
7.82213
  0
LINE
  8
0
 10
25.7965
 20
7.82213
 11
25.666
 21
7.81845
  0
LINE
  8
0
 10
25.666
 20
7.81845
 11
25.5367
 21
7.82645
  0
LINE
  8
0
 10
25.5367
 20
7.82645
 11
25.4093
 21
7.84576
  0
LINE
  8
0
 10
25.4093
 20
7.84576
 11
25.2843
 21
7.87601
  0
LINE
  8
0
 10
25.2843
 20
7.87601
 11
25.1625
 21
7.91682
  0
LINE
  8
0
 10
25.1625
 20
7.91682
 11
25.0443
 21
7.96785
  0
LINE
  8
0
 10
25.0443
 20
7.96785
 11
24.9306
 21
8.02872
  0
LINE
  8
0
 10
24.9306
 20
8.02872
 11
24.8218
 21
8.09909
  0
LINE
  8
0
 10
24.8218
 20
8.09909
 11
24.7185
 21
8.17856
  0
LINE
  8
0
 10
24.7185
 20
8.17856
 11
24.6215
 21
8.2668
  0
LINE
  8
0
 10
24.6215
 20
8.2668
 11
24.5312
 21
8.3634
  0
LINE
  8
0
 10
24.5312
 20
8.3634
 11
24.4485
 21
8.46802
  0
LINE
  8
0
 10
24.4485
 20
8.46802
 11
24.3737
 21
8.58032
  0
LINE
  8
0
 10
24.3737
 20
8.58032
 11
24.3077
 21
8.69991
  0
LINE
  8
0
 10
24.3077
 20
8.69991
 11
24.2509
 21
8.82642
  0
LINE
  8
0
 10
24.2509
 20
8.82642
 11
24.213
 21
8.9599
  0
LINE
  8
0
 10
24.213
 20
8.9599
 11
24.1866
 21
9.09407
  0
LINE
  8
0
 10
24.1866
 20
9.09407
 11
24.1716
 21
9.2282
  0
LINE
  8
0
 10
24.1716
 20
9.2282
 11
24.1677
 21
9.36162
  0
LINE
  8
0
 10
24.1677
 20
9.36162
 11
24.1747
 21
9.49368
  0
LINE
  8
0
 10
24.1747
 20
9.49368
 11
24.1923
 21
9.62367
  0
LINE
  8
0
 10
24.1923
 20
9.62367
 11
24.2202
 21
9.75096
  0
LINE
  8
0
 10
24.2202
 20
9.75096
 11
24.2584
 21
9.87482
  0
LINE
  8
0
 10
24.2584
 20
9.87482
 11
24.3064
 21
9.99458
  0
LINE
  8
0
 10
24.3064
 20
9.99458
 11
24.3641
 21
10.1096
  0
LINE
  8
0
 10
24.3641
 20
10.1096
 11
24.4312
 21
10.2192
  0
LINE
  8
0
 10
24.4312
 20
10.2192
 11
24.5075
 21
10.3227
  0
LINE
  8
0
 10
24.5075
 20
10.3227
 11
24.5928
 21
10.4193
  0
LINE
  8
0
 10
24.5928
 20
10.4193
 11
24.6868
 21
10.5086
  0
LINE
  8
0
 10
24.6868
 20
10.5086
 11
24.7892
 21
10.5896
  0
LINE
  8
0
 10
24.7892
 20
10.5896
 11
24.8998
 21
10.6619
  0
LINE
  8
0
 10
24.8998
 20
10.6619
 11
25.4543
 21
10.9084
  0
LINE
  8
0
 10
25.4543
 20
10.9084
 11
25.5692
 21
11.0084
  0
LINE
  8
0
 10
25.5692
 20
11.0084
 11
25.6409
 21
11.1408
  0
LINE
  8
0
 10
25.6409
 20
11.1408
 11
25.6647
 21
11.2921
  0
LINE
  8
0
 10
25.6647
 20
11.2921
 11
25.6409
 21
11.4223
  0
LINE
  8
0
 10
25.6409
 20
11.4223
 11
25.4458
 21
11.8656
  0
LINE
  8
0
 10
25.4458
 20
11.8656
 11
25.2316
 21
12.2999
  0
LINE
  8
0
 10
25.2316
 20
12.2999
 11
25.1472
 21
12.4019
  0
LINE
  8
0
 10
25.1472
 20
12.4019
 11
25.016
 21
12.4809
  0
LINE
  8
0
 10
25.016
 20
12.4809
 11
24.8685
 21
12.5111
  0
LINE
  8
0
 10
24.8685
 20
12.5111
 11
24.718
 21
12.4874
  0
LINE
  8
0
 10
24.718
 20
12.4874
 11
24.1728
 21
12.2211
  0
LINE
  8
0
 10
24.1728
 20
12.2211
 11
24.0463
 21
12.1828
  0
LINE
  8
0
 10
24.0463
 20
12.1828
 11
23.9184
 21
12.1565
  0
LINE
  8
0
 10
23.9184
 20
12.1565
 11
23.7897
 21
12.142
  0
LINE
  8
0
 10
23.7897
 20
12.142
 11
23.6608
 21
12.1388
  0
LINE
  8
0
 10
23.6608
 20
12.1388
 11
23.5325
 21
12.1469
  0
LINE
  8
0
 10
23.5325
 20
12.1469
 11
23.4055
 21
12.166
  0
LINE
  8
0
 10
23.4055
 20
12.166
 11
23.2803
 21
12.1957
  0
LINE
  8
0
 10
23.2803
 20
12.1957
 11
23.1577
 21
12.2359
  0
LINE
  8
0
 10
23.1577
 20
12.2359
 11
23.0383
 21
12.2863
  0
LINE
  8
0
 10
23.0383
 20
12.2863
 11
22.9228
 21
12.3466
  0
LINE
  8
0
 10
22.9228
 20
12.3466
 11
22.8119
 21
12.4167
  0
LINE
  8
0
 10
22.8119
 20
12.4167
 11
22.7063
 21
12.4961
  0
LINE
  8
0
 10
22.7063
 20
12.4961
 11
22.6066
 21
12.5848
  0
LINE
  8
0
 10
22.6066
 20
12.5848
 11
22.5135
 21
12.6824
  0
LINE
  8
0
 10
22.5135
 20
12.6824
 11
22.4277
 21
12.7887
  0
LINE
  8
0
 10
22.4277
 20
12.7887
 11
22.3498
 21
12.9035
  0
LINE
  8
0
 10
22.3498
 20
12.9035
 11
22.2893
 21
13.0283
  0
LINE
  8
0
 10
22.2893
 20
13.0283
 11
22.24
 21
13.1559
  0
LINE
  8
0
 10
22.24
 20
13.1559
 11
22.202
 21
13.2854
  0
LINE
  8
0
 10
22.202
 20
13.2854
 11
22.1749
 21
13.4161
  0
LINE
  8
0
 10
22.1749
 20
13.4161
 11
22.1589
 21
13.5473
  0
LINE
  8
0
 10
22.1589
 20
13.5473
 11
22.1536
 21
13.6784
  0
LINE
  8
0
 10
22.1536
 20
13.6784
 11
22.1591
 21
13.8086
  0
LINE
  8
0
 10
22.1591
 20
13.8086
 11
22.1751
 21
13.9372
  0
LINE
  8
0
 10
22.1751
 20
13.9372
 11
22.2016
 21
14.0635
  0
LINE
  8
0
 10
22.2016
 20
14.0635
 11
22.2384
 21
14.1868
  0
LINE
  8
0
 10
22.2384
 20
14.1868
 11
22.2855
 21
14.3064
  0
LINE
  8
0
 10
22.2855
 20
14.3064
 11
22.3427
 21
14.4215
  0
LINE
  8
0
 10
22.3427
 20
14.4215
 11
22.4099
 21
14.5315
  0
LINE
  8
0
 10
22.4099
 20
14.5315
 11
22.4869
 21
14.6357
  0
LINE
  8
0
 10
22.4869
 20
14.6357
 11
22.5737
 21
14.7333
  0
LINE
  8
0
 10
22.5737
 20
14.7333
 11
22.6702
 21
14.8237
  0
LINE
  8
0
 10
22.6702
 20
14.8237
 11
23.1734
 21
15.1628
  0
LINE
  8
0
 10
23.1734
 20
15.1628
 11
23.2692
 21
15.2812
  0
LINE
  8
0
 10
23.2692
 20
15.2812
 11
23.3168
 21
15.424
  0
LINE
  8
0
 10
23.3168
 20
15.424
 11
23.3139
 21
15.5772
  0
LINE
  8
0
 10
23.3139
 20
15.5772
 11
23.2679
 21
15.7013
  0
LINE
  8
0
 10
23.2679
 20
15.7013
 11
22.9988
 21
16.1039
  0
LINE
  8
0
 10
22.9988
 20
16.1039
 11
22.7124
 21
16.4945
  0
LINE
  8
0
 10
22.7124
 20
16.4945
 11
22.6116
 21
16.5802
  0
LINE
  8
0
 10
22.6116
 20
16.5802
 11
22.4687
 21
16.6353
  0
LINE
  8
0
 10
22.4687
 20
16.6353
 11
22.3182
 21
16.6394
  0
LINE
  8
0
 10
22.3182
 20
16.6394
 11
22.1741
 21
16.5899
  0
LINE
  8
0
 10
22.1741
 20
16.5899
 11
21.6834
 21
16.233
  0
LINE
  8
0
 10
21.6834
 20
16.233
 11
21.5655
 21
16.1733
  0
LINE
  8
0
 10
21.5655
 20
16.1733
 11
21.4441
 21
16.1252
  0
LINE
  8
0
 10
21.4441
 20
16.1252
 11
21.3198
 21
16.0885
  0
LINE
  8
0
 10
21.3198
 20
16.0885
 11
21.1935
 21
16.0631
  0
LINE
  8
0
 10
21.1935
 20
16.0631
 11
21.0657
 21
16.0488
  0
LINE
  8
0
 10
21.0657
 20
16.0488
 11
20.9373
 21
16.0455
  0
LINE
  8
0
 10
20.9373
 20
16.0455
 11
20.8088
 21
16.053
  0
LINE
  8
0
 10
20.8088
 20
16.053
 11
20.6811
 21
16.0713
  0
LINE
  8
0
 10
20.6811
 20
16.0713
 11
20.5548
 21
16.1002
  0
LINE
  8
0
 10
20.5548
 20
16.1002
 11
20.4306
 21
16.1396
  0
LINE
  8
0
 10
20.4306
 20
16.1396
 11
20.3092
 21
16.1893
  0
LINE
  8
0
 10
20.3092
 20
16.1893
 11
20.1914
 21
16.2492
  0
LINE
  8
0
 10
20.1914
 20
16.2492
 11
20.0778
 21
16.3192
  0
LINE
  8
0
 10
20.0778
 20
16.3192
 11
19.9692
 21
16.3992
  0
LINE
  8
0
 10
19.9692
 20
16.3992
 11
19.8662
 21
16.489
  0
LINE
  8
0
 10
19.8662
 20
16.489
 11
19.7696
 21
16.5884
  0
LINE
  8
0
 10
19.7696
 20
16.5884
 11
19.6883
 21
16.7009
  0
LINE
  8
0
 10
19.6883
 20
16.7009
 11
19.6176
 21
16.8179
  0
LINE
  8
0
 10
19.6176
 20
16.8179
 11
19.5577
 21
16.9389
  0
LINE
  8
0
 10
19.5577
 20
16.9389
 11
19.5084
 21
17.0629
  0
LINE
  8
0
 10
19.5084
 20
17.0629
 11
19.4697
 21
17.1894
  0
LINE
  8
0
 10
19.4697
 20
17.1894
 11
19.4418
 21
17.3176
  0
LINE
  8
0
 10
19.4418
 20
17.3176
 11
19.4246
 21
17.4467
  0
LINE
  8
0
 10
19.4246
 20
17.4467
 11
19.418
 21
17.5762
  0
LINE
  8
0
 10
19.418
 20
17.5762
 11
19.4222
 21
17.7051
  0
LINE
  8
0
 10
19.4222
 20
17.7051
 11
19.4371
 21
17.8329
  0
LINE
  8
0
 10
19.4371
 20
17.8329
 11
19.4627
 21
17.9589
  0
LINE
  8
0
 10
19.4627
 20
17.9589
 11
19.499
 21
18.0822
  0
LINE
  8
0
 10
19.499
 20
18.0822
 11
19.546
 21
18.2022
  0
LINE
  8
0
 10
19.546
 20
18.2022
 11
19.6038
 21
18.3182
  0
LINE
  8
0
 10
19.6038
 20
18.3182
 11
19.6723
 21
18.4294
  0
LINE
  8
0
 10
19.6723
 20
18.4294
 11
19.7516
 21
18.5351
  0
LINE
  8
0
 10
19.7516
 20
18.5351
 11
20.1884
 21
18.9564
  0
LINE
  8
0
 10
20.1884
 20
18.9564
 11
20.2621
 21
19.0897
  0
LINE
  8
0
 10
20.2621
 20
19.0897
 11
20.2842
 21
19.2386
  0
LINE
  8
0
 10
20.2842
 20
19.2386
 11
20.2548
 21
19.3889
  0
LINE
  8
0
 10
20.2548
 20
19.3889
 11
20.1879
 21
19.5032
  0
LINE
  8
0
 10
20.1879
 20
19.5032
 11
19.853
 21
19.853
  0
LINE
  8
0
 10
19.853
 20
19.853
 11
19.5032
 21
20.1879
  0
LINE
  8
0
 10
19.5032
 20
20.1879
 11
19.3889
 21
20.2548
  0
LINE
  8
0
 10
19.3889
 20
20.2548
 11
19.2386
 21
20.2842
  0
LINE
  8
0
 10
19.2386
 20
20.2842
 11
19.0897
 21
20.2621
  0
LINE
  8
0
 10
19.0897
 20
20.2621
 11
18.9564
 21
20.1884
  0
LINE
  8
0
 10
18.9564
 20
20.1884
 11
18.5351
 21
19.7516
  0
LINE
  8
0
 10
18.5351
 20
19.7516
 11
18.4294
 21
19.6724
  0
LINE
  8
0
 10
18.4294
 20
19.6724
 11
18.3182
 21
19.604
  0
LINE
  8
0
 10
18.3182
 20
19.604
 11
18.2022
 21
19.5462
  0
LINE
  8
0
 10
18.2022
 20
19.5462
 11
18.0822
 21
19.4993
  0
LINE
  8
0
 10
18.0822
 20
19.4993
 11
17.9588
 21
19.463
  0
LINE
  8
0
 10
17.9588
 20
19.463
 11
17.8329
 21
19.4374
  0
LINE
  8
0
 10
17.8329
 20
19.4374
 11
17.7051
 21
19.4225
  0
LINE
  8
0
 10
17.7051
 20
19.4225
 11
17.5761
 21
19.4184
  0
LINE
  8
0
 10
17.5761
 20
19.4184
 11
17.4467
 21
19.4249
  0
LINE
  8
0
 10
17.4467
 20
19.4249
 11
17.3176
 21
19.4421
  0
LINE
  8
0
 10
17.3176
 20
19.4421
 11
17.1894
 21
19.47
  0
LINE
  8
0
 10
17.1894
 20
19.47
 11
17.063
 21
19.5085
  0
LINE
  8
0
 10
17.063
 20
19.5085
 11
16.939
 21
19.5578
  0
LINE
  8
0
 10
16.939
 20
19.5578
 11
16.8181
 21
19.6176
  0
LINE
  8
0
 10
16.8181
 20
19.6176
 11
16.7011
 21
19.6882
  0
LINE
  8
0
 10
16.7011
 20
19.6882
 11
16.5887
 21
19.7694
  0
LINE
  8
0
 10
16.5887
 20
19.7694
 11
16.4891
 21
19.866
  0
LINE
  8
0
 10
16.4891
 20
19.866
 11
16.3992
 21
19.969
  0
LINE
  8
0
 10
16.3992
 20
19.969
 11
16.3191
 21
20.0777
  0
LINE
  8
0
 10
16.3191
 20
20.0777
 11
16.249
 21
20.1913
  0
LINE
  8
0
 10
16.249
 20
20.1913
 11
16.189
 21
20.3091
  0
LINE
  8
0
 10
16.189
 20
20.3091
 11
16.1393
 21
20.4305
  0
LINE
  8
0
 10
16.1393
 20
20.4305
 11
16.0999
 21
20.5547
  0
LINE
  8
0
 10
16.0999
 20
20.5547
 11
16.071
 21
20.681
  0
LINE
  8
0
 10
16.071
 20
20.681
 11
16.0527
 21
20.8088
  0
LINE
  8
0
 10
16.0527
 20
20.8088
 11
16.0451
 21
20.9372
  0
LINE
  8
0
 10
16.0451
 20
20.9372
 11
16.0484
 21
21.0657
  0
LINE
  8
0
 10
16.0484
 20
21.0657
 11
16.0628
 21
21.1935
  0
LINE
  8
0
 10
16.0628
 20
21.1935
 11
16.0883
 21
21.3198
  0
LINE
  8
0
 10
16.0883
 20
21.3198
 11
16.1251
 21
21.4441
  0
LINE
  8
0
 10
16.1251
 20
21.4441
 11
16.1732
 21
21.5655
  0
LINE
  8
0
 10
16.1732
 20
21.5655
 11
16.233
 21
21.6834
  0
LINE
  8
0
 10
16.233
 20
21.6834
 11
16.5899
 21
22.1741
  0
LINE
  8
0
 10
16.5899
 20
22.1741
 11
16.6394
 21
22.3182
  0
LINE
  8
0
 10
16.6394
 20
22.3182
 11
16.6353
 21
22.4687
  0
LINE
  8
0
 10
16.6353
 20
22.4687
 11
16.5802
 21
22.6116
  0
LINE
  8
0
 10
16.5802
 20
22.6116
 11
16.4945
 21
22.7124
  0
LINE
  8
0
 10
16.4945
 20
22.7124
 11
16.1039
 21
22.9988
  0
LINE
  8
0
 10
16.1039
 20
22.9988
 11
15.7013
 21
23.2679
  0
LINE
  8
0
 10
15.7013
 20
23.2679
 11
15.5772
 21
23.3139
  0
LINE
  8
0
 10
15.5772
 20
23.3139
 11
15.424
 21
23.3168
  0
LINE
  8
0
 10
15.424
 20
23.3168
 11
15.2812
 21
23.2692
  0
LINE
  8
0
 10
15.2812
 20
23.2692
 11
15.1628
 21
23.1734
  0
LINE
  8
0
 10
15.1628
 20
23.1734
 11
14.8237
 21
22.6702
  0
LINE
  8
0
 10
14.8237
 20
22.6702
 11
14.7333
 21
22.5738
  0
LINE
  8
0
 10
14.7333
 20
22.5738
 11
14.6357
 21
22.4871
  0
LINE
  8
0
 10
14.6357
 20
22.4871
 11
14.5315
 21
22.4101
  0
LINE
  8
0
 10
14.5315
 20
22.4101
 11
14.4215
 21
22.343
  0
LINE
  8
0
 10
14.4215
 20
22.343
 11
14.3063
 21
22.2858
  0
LINE
  8
0
 10
14.3063
 20
22.2858
 11
14.1867
 21
22.2388
  0
LINE
  8
0
 10
14.1867
 20
22.2388
 11
14.0634
 21
22.2019
  0
LINE
  8
0
 10
14.0634
 20
22.2019
 11
13.9371
 21
22.1754
  0
LINE
  8
0
 10
13.9371
 20
22.1754
 11
13.8086
 21
22.1594
  0
LINE
  8
0
 10
13.8086
 20
22.1594
 11
13.6784
 21
22.1539
  0
LINE
  8
0
 10
13.6784
 20
22.1539
 11
13.5473
 21
22.1591
  0
LINE
  8
0
 10
13.5473
 20
22.1591
 11
13.4161
 21
22.1751
  0
LINE
  8
0
 10
13.4161
 20
22.1751
 11
13.2855
 21
22.2021
  0
LINE
  8
0
 10
13.2855
 20
22.2021
 11
13.156
 21
22.2401
  0
LINE
  8
0
 10
13.156
 20
22.2401
 11
13.0286
 21
22.2892
  0
LINE
  8
0
 10
13.0286
 20
22.2892
 11
12.9038
 21
22.3496
  0
LINE
  8
0
 10
12.9038
 20
22.3496
 11
12.7889
 21
22.4275
  0
LINE
  8
0
 10
12.7889
 20
22.4275
 11
12.6825
 21
22.5133
  0
LINE
  8
0
 10
12.6825
 20
22.5133
 11
12.5848
 21
22.6064
  0
LINE
  8
0
 10
12.5848
 20
22.6064
 11
12.496
 21
22.7061
  0
LINE
  8
0
 10
12.496
 20
22.7061
 11
12.4165
 21
22.8118
  0
LINE
  8
0
 10
12.4165
 20
22.8118
 11
12.3464
 21
22.9227
  0
LINE
  8
0
 10
12.3464
 20
22.9227
 11
12.286
 21
23.0381
  0
LINE
  8
0
 10
12.286
 20
23.0381
 11
12.2356
 21
23.1575
  0
LINE
  8
0
 10
12.2356
 20
23.1575
 11
12.1954
 21
23.2802
  0
LINE
  8
0
 10
12.1954
 20
23.2802
 11
12.1656
 21
23.4053
  0
LINE
  8
0
 10
12.1656
 20
23.4053
 11
12.1466
 21
23.5324
  0
LINE
  8
0
 10
12.1466
 20
23.5324
 11
12.1385
 21
23.6608
  0
LINE
  8
0
 10
12.1385
 20
23.6608
 11
12.1417
 21
23.7896
  0
LINE
  8
0
 10
12.1417
 20
23.7896
 11
12.1564
 21
23.9184
  0
LINE
  8
0
 10
12.1564
 20
23.9184
 11
12.1827
 21
24.0463
  0
LINE
  8
0
 10
12.1827
 20
24.0463
 11
12.2211
 21
24.1728
  0
LINE
  8
0
 10
12.2211
 20
24.1728
 11
12.4874
 21
24.718
  0
LINE
  8
0
 10
12.4874
 20
24.718
 11
12.5111
 21
24.8685
  0
LINE
  8
0
 10
12.5111
 20
24.8685
 11
12.4809
 21
25.016
  0
LINE
  8
0
 10
12.4809
 20
25.016
 11
12.4019
 21
25.1472
  0
LINE
  8
0
 10
12.4019
 20
25.1472
 11
12.2999
 21
25.2316
  0
LINE
  8
0
 10
12.2999
 20
25.2316
 11
11.8656
 21
25.4458
  0
LINE
  8
0
 10
11.8656
 20
25.4458
 11
11.4223
 21
25.6409
  0
LINE
  8
0
 10
11.4223
 20
25.6409
 11
11.2921
 21
25.6647
  0
LINE
  8
0
 10
11.2921
 20
25.6647
 11
11.1408
 21
25.6409
  0
LINE
  8
0
 10
11.1408
 20
25.6409
 11
11.0084
 21
25.5692
  0
LINE
  8
0
 10
11.0084
 20
25.5692
 11
10.9084
 21
25.4543
  0
LINE
  8
0
 10
10.9084
 20
25.4543
 11
10.6619
 21
24.8998
  0
LINE
  8
0
 10
10.6619
 20
24.8998
 11
10.5896
 21
24.7893
  0
LINE
  8
0
 10
10.5896
 20
24.7893
 11
10.5085
 21
24.6869
  0
LINE
  8
0
 10
10.5085
 20
24.6869
 11
10.4193
 21
24.593
  0
LINE
  8
0
 10
10.4193
 20
24.593
 11
10.3225
 21
24.5078
  0
LINE
  8
0
 10
10.3225
 20
24.5078
 11
10.2191
 21
24.4315
  0
LINE
  8
0
 10
10.2191
 20
24.4315
 11
10.1095
 21
24.3644
  0
LINE
  8
0
 10
10.1095
 20
24.3644
 11
9.99445
 21
24.3067
  0
LINE
  8
0
 10
9.99445
 20
24.3067
 11
9.87469
 21
24.2587
  0
LINE
  8
0
 10
9.87469
 20
24.2587
 11
9.75085
 21
24.2206
  0
LINE
  8
0
 10
9.75085
 20
24.2206
 11
9.62361
 21
24.1926
  0
LINE
  8
0
 10
9.62361
 20
24.1926
 11
9.49364
 21
24.1749
  0
LINE
  8
0
 10
9.49364
 20
24.1749
 11
9.36165
 21
24.1679
  0
LINE
  8
0
 10
9.36165
 20
24.1679
 11
9.22829
 21
24.1718
  0
LINE
  8
0
 10
9.22829
 20
24.1718
 11
9.09422
 21
24.1867
  0
LINE
  8
0
 10
9.09422
 20
24.1867
 11
8.96016
 21
24.213
  0
LINE
  8
0
 10
8.96016
 20
24.213
 11
8.82675
 21
24.2508
  0
LINE
  8
0
 10
8.82675
 20
24.2508
 11
8.70012
 21
24.3076
  0
LINE
  8
0
 10
8.70012
 20
24.3076
 11
8.5804
 21
24.3736
  0
LINE
  8
0
 10
8.5804
 20
24.3736
 11
8.468
 21
24.4483
  0
LINE
  8
0
 10
8.468
 20
24.4483
 11
8.36328
 21
24.5311
  0
LINE
  8
0
 10
8.36328
 20
24.5311
 11
8.2666
 21
24.6213
  0
LINE
  8
0
 10
8.2666
 20
24.6213
 11
8.17831
 21
24.7183
  0
LINE
  8
0
 10
8.17831
 20
24.7183
 11
8.0988
 21
24.8216
  0
LINE
  8
0
 10
8.0988
 20
24.8216
 11
8.02843
 21
24.9304
  0
LINE
  8
0
 10
8.02843
 20
24.9304
 11
7.96754
 21
25.0442
  0
LINE
  8
0
 10
7.96754
 20
25.0442
 11
7.9165
 21
25.1623
  0
LINE
  8
0
 10
7.9165
 20
25.1623
 11
7.87572
 21
25.2842
  0
LINE
  8
0
 10
7.87572
 20
25.2842
 11
7.84549
 21
25.4091
  0
LINE
  8
0
 10
7.84549
 20
25.4091
 11
7.82625
 21
25.5366
  0
LINE
  8
0
 10
7.82625
 20
25.5366
 11
7.8183
 21
25.6659
  0
LINE
  8
0
 10
7.8183
 20
25.6659
 11
7.82204
 21
25.7965
  0
LINE
  8
0
 10
7.82204
 20
25.7965
 11
7.83783
 21
25.9277
  0
LINE
  8
0
 10
7.83783
 20
25.9277
 11
8.00543
 21
26.5109
  0
LINE
  8
0
 10
8.00543
 20
26.5109
 11
8.00266
 21
26.6632
  0
LINE
  8
0
 10
8.00266
 20
26.6632
 11
7.9473
 21
26.8032
  0
LINE
  8
0
 10
7.9473
 20
26.8032
 11
7.84668
 21
26.9187
  0
LINE
  8
0
 10
7.84668
 20
26.9187
 11
7.73164
 21
26.9842
  0
LINE
  8
0
 10
7.73164
 20
26.9842
 11
7.26669
 21
27.1197
  0
LINE
  8
0
 10
7.26669
 20
27.1197
 11
6.79628
 21
27.2348
  0
LINE
  8
0
 10
6.79628
 20
27.2348
 11
6.66393
 21
27.2356
  0
LINE
  8
0
 10
6.66393
 20
27.2356
 11
6.51904
 21
27.1859
  0
LINE
  8
0
 10
6.51904
 20
27.1859
 11
6.40111
 21
27.0924
  0
LINE
  8
0
 10
6.40111
 20
27.0924
 11
6.32256
 21
26.9619
  0
LINE
  8
0
 10
6.32256
 20
26.9619
 11
6.17609
 21
26.373
  0
LINE
  8
0
 10
6.17609
 20
26.373
 11
6.1241
 21
26.2515
  0
LINE
  8
0
 10
6.1241
 20
26.2515
 11
6.06201
 21
26.1366
  0
LINE
  8
0
 10
6.06201
 20
26.1366
 11
5.99043
 21
26.0287
  0
LINE
  8
0
 10
5.99043
 20
26.0287
 11
5.90999
 21
25.9279
  0
LINE
  8
0
 10
5.90999
 20
25.9279
 11
5.82132
 21
25.8349
  0
LINE
  8
0
 10
5.82132
 20
25.8349
 11
5.72505
 21
25.7498
  0
LINE
  8
0
 10
5.72505
 20
25.7498
 11
5.6218
 21
25.673
  0
LINE
  8
0
 10
5.6218
 20
25.673
 11
5.51219
 21
25.6049
  0
LINE
  8
0
 10
5.51219
 20
25.6049
 11
5.39685
 21
25.5458
  0
LINE
  8
0
 10
5.39685
 20
25.5458
 11
5.27641
 21
25.4961
  0
LINE
  8
0
 10
5.27641
 20
25.4961
 11
5.15147
 21
25.4562
  0
LINE
  8
0
 10
5.15147
 20
25.4562
 11
5.02271
 21
25.4264
  0
LINE
  8
0
 10
5.02271
 20
25.4264
 11
4.8907
 21
25.407
  0
LINE
  8
0
 10
4.8907
 20
25.407
 11
4.75609
 21
25.3984
  0
LINE
  8
0
 10
4.75609
 20
25.3984
 11
4.61949
 21
25.401
  0
LINE
  8
0
 10
4.61949
 20
25.401
 11
4.48155
 21
25.4151
  0
LINE
  8
0
 10
4.48155
 20
25.4151
 11
4.34698
 21
25.449
  0
LINE
  8
0
 10
4.34698
 20
25.449
 11
4.21762
 21
25.4933
  0
LINE
  8
0
 10
4.21762
 20
25.4933
 11
4.09395
 21
25.5473
  0
LINE
  8
0
 10
4.09395
 20
25.5473
 11
3.97644
 21
25.6107
  0
LINE
  8
0
 10
3.97644
 20
25.6107
 11
3.86555
 21
25.6827
  0
LINE
  8
0
 10
3.86555
 20
25.6827
 11
3.76178
 21
25.763
  0
LINE
  8
0
 10
3.76178
 20
25.763
 11
3.66554
 21
25.8508
  0
LINE
  8
0
 10
3.66554
 20
25.8508
 11
3.57733
 21
25.9458
  0
LINE
  8
0
 10
3.57733
 20
25.9458
 11
3.49762
 21
26.0473
  0
LINE
  8
0
 10
3.49762
 20
26.0473
 11
3.42685
 21
26.1547
  0
LINE
  8
0
 10
3.42685
 20
26.1547
 11
3.36551
 21
26.2677
  0
LINE
  8
0
 10
3.36551
 20
26.2677
 11
3.31406
 21
26.3855
  0
LINE
  8
0
 10
3.31406
 20
26.3855
 11
3.27296
 21
26.5077
  0
LINE
  8
0
 10
3.27296
 20
26.5077
 11
3.24268
 21
26.6336
  0
LINE
  8
0
 10
3.24268
 20
26.6336
 11
3.22369
 21
26.7629
  0
LINE
  8
0
 10
3.22369
 20
26.7629
 11
3.21646
 21
26.8948
  0
LINE
  8
0
 10
3.21646
 20
26.8948
 11
3.28023
 21
27.4983
  0
LINE
  8
0
 10
3.28023
 20
27.4983
 11
3.25105
 21
27.6478
  0
LINE
  8
0
 10
3.25105
 20
27.6478
 11
3.17223
 21
27.7761
  0
LINE
  8
0
 10
3.17223
 20
27.7761
 11
3.05309
 21
27.8723
  0
LINE
  8
0
 10
3.05309
 20
27.8723
 11
2.92844
 21
27.9168
  0
LINE
  8
0
 10
2.92844
 20
27.9168
 11
2.44701
 21
27.9695
  0
LINE
  8
0
 10
2.44701
 20
27.9695
 11
1.96375
 21
28.0012
  0
LINE
  8
0
 10
1.96375
 20
28.0012
 11
1.83325
 21
27.979
  0
LINE
  8
0
 10
1.83325
 20
27.979
 11
1.69922
 21
27.9049
  0
LINE
  8
0
 10
1.69922
 20
27.9049
 11
1.59932
 21
27.7923
  0
LINE
  8
0
 10
1.59932
 20
27.7923
 11
1.54462
 21
27.6501
  0
LINE
  8
0
 10
1.54462
 20
27.6501
 11
1.50264
 21
27.0448
  0
LINE
  8
0
 10
1.50264
 20
27.0448
 11
1.47253
 21
26.9161
  0
LINE
  8
0
 10
1.47253
 20
26.9161
 11
1.43134
 21
26.7922
  0
LINE
  8
0
 10
1.43134
 20
26.7922
 11
1.37959
 21
26.6734
  0
LINE
  8
0
 10
1.37959
 20
26.6734
 11
1.31787
 21
26.5603
  0
LINE
  8
0
 10
1.31787
 20
26.5603
 11
1.2467
 21
26.4532
  0
LINE
  8
0
 10
1.2467
 20
26.4532
 11
1.16669
 21
26.3527
  0
LINE
  8
0
 10
1.16669
 20
26.3527
 11
1.07832
 21
26.2592
  0
LINE
  8
0
 10
1.07832
 20
26.2592
 11
0.982208
 21
26.1731
  0
LINE
  8
0
 10
0.982208
 20
26.1731
 11
0.878876
 21
26.0949
  0
LINE
  8
0
 10
0.878876
 20
26.0949
 11
0.76889
 21
26.025
  0
LINE
  8
0
 10
0.76889
 20
26.025
 11
0.652786
 21
25.964
  0
LINE
  8
0
 10
0.652786
 20
25.964
 11
0.531143
 21
25.9123
  0
LINE
  8
0
 10
0.531143
 20
25.9123
 11
0.40451
 21
25.8703
  0
LINE
  8
0
 10
0.40451
 20
25.8703
 11
0.273438
 21
25.8385
  0
LINE
  8
0
 10
0.273438
 20
25.8385
 11
0.138458
 21
25.8173
  0
LINE
  8
0
 10
0.138458
 20
25.8173
 11
0.000167847
 21
25.8072
  0
LINE
  8
0
 10
0.000167847
 20
25.8072
 11
-0.138229
 21
25.8172
  0
LINE
  8
0
 10
-0.138229
 20
25.8172
 11
-0.2733
 21
25.8384
  0
LINE
  8
0
 10
-0.2733
 20
25.8384
 11
-0.40448
 21
25.8701
  0
LINE
  8
0
 10
-0.40448
 20
25.8701
 11
-0.531189
 21
25.9121
  0
LINE
  8
0
 10
-0.531189
 20
25.9121
 11
-0.652908
 21
25.9638
  0
LINE
  8
0
 10
-0.652908
 20
25.9638
 11
-0.769058
 21
26.0248
  0
LINE
  8
0
 10
-0.769058
 20
26.0248
 11
-0.879089
 21
26.0946
  0
LINE
  8
0
 10
-0.879089
 20
26.0946
 11
-0.982437
 21
26.1728
  0
LINE
  8
0
 10
-0.982437
 20
26.1728
 11
-1.07857
 21
26.2589
  0
LINE
  8
0
 10
-1.07857
 20
26.2589
 11
-1.16693
 21
26.3524
  0
LINE
  8
0
 10
-1.16693
 20
26.3524
 11
-1.24693
 21
26.453
  0
LINE
  8
0
 10
-1.24693
 20
26.453
 11
-1.31807
 21
26.5601
  0
LINE
  8
0
 10
-1.31807
 20
26.5601
 11
-1.37975
 21
26.6733
  0
LINE
  8
0
 10
-1.37975
 20
26.6733
 11
-1.43144
 21
26.7921
  0
LINE
  8
0
 10
-1.43144
 20
26.7921
 11
-1.4726
 21
26.9161
  0
LINE
  8
0
 10
-1.4726
 20
26.9161
 11
-1.50264
 21
27.0448
  0
LINE
  8
0
 10
-1.50264
 20
27.0448
 11
-1.54462
 21
27.6501
  0
LINE
  8
0
 10
-1.54462
 20
27.6501
 11
-1.59932
 21
27.7923
  0
LINE
  8
0
 10
-1.59932
 20
27.7923
 11
-1.69922
 21
27.9049
  0
LINE
  8
0
 10
-1.69922
 20
27.9049
 11
-1.83325
 21
27.979
  0
LINE
  8
0
 10
-1.83325
 20
27.979
 11
-1.96375
 21
28.0012
  0
LINE
  8
0
 10
-1.96375
 20
28.0012
 11
-2.44701
 21
27.9695
  0
LINE
  8
0
 10
-2.44701
 20
27.9695
 11
-2.92844
 21
27.9168
  0
LINE
  8
0
 10
-2.92844
 20
27.9168
 11
-3.05309
 21
27.8723
  0
LINE
  8
0
 10
-3.05309
 20
27.8723
 11
-3.17223
 21
27.7761
  0
LINE
  8
0
 10
-3.17223
 20
27.7761
 11
-3.25105
 21
27.6478
  0
LINE
  8
0
 10
-3.25105
 20
27.6478
 11
-3.28023
 21
27.4983
  0
LINE
  8
0
 10
-3.28023
 20
27.4983
 11
-3.21646
 21
26.8948
  0
LINE
  8
0
 10
-3.21646
 20
26.8948
 11
-3.22377
 21
26.7629
  0
LINE
  8
0
 10
-3.22377
 20
26.7629
 11
-3.24281
 21
26.6337
  0
LINE
  8
0
 10
-3.24281
 20
26.6337
 11
-3.27315
 21
26.5078
  0
LINE
  8
0
 10
-3.27315
 20
26.5078
 11
-3.31429
 21
26.3856
  0
LINE
  8
0
 10
-3.31429
 20
26.3856
 11
-3.36577
 21
26.2678
  0
LINE
  8
0
 10
-3.36577
 20
26.2678
 11
-3.42712
 21
26.1549
  0
LINE
  8
0
 10
-3.42712
 20
26.1549
 11
-3.49789
 21
26.0475
  0
LINE
  8
0
 10
-3.49789
 20
26.0475
 11
-3.57759
 21
25.946
  0
LINE
  8
0
 10
-3.57759
 20
25.946
 11
-3.66579
 21
25.8511
  0
LINE
  8
0
 10
-3.66579
 20
25.8511
 11
-3.76198
 21
25.7632
  0
LINE
  8
0
 10
-3.76198
 20
25.7632
 11
-3.86572
 21
25.6829
  0
LINE
  8
0
 10
-3.86572
 20
25.6829
 11
-3.97653
 21
25.6109
  0
LINE
  8
0
 10
-3.97653
 20
25.6109
 11
-4.09395
 21
25.5475
  0
LINE
  8
0
 10
-4.09395
 20
25.5475
 11
-4.21751
 21
25.4934
  0
LINE
  8
0
 10
-4.21751
 20
25.4934
 11
-4.34676
 21
25.4491
  0
LINE
  8
0
 10
-4.34676
 20
25.4491
 11
-4.4812
 21
25.4152
  0
LINE
  8
0
 10
-4.4812
 20
25.4152
 11
-4.61925
 21
25.401
  0
LINE
  8
0
 10
-4.61925
 20
25.401
 11
-4.75594
 21
25.3984
  0
LINE
  8
0
 10
-4.75594
 20
25.3984
 11
-4.89064
 21
25.4069
  0
LINE
  8
0
 10
-4.89064
 20
25.4069
 11
-5.02272
 21
25.4262
  0
LINE
  8
0
 10
-5.02272
 20
25.4262
 11
-5.15157
 21
25.456
  0
LINE
  8
0
 10
-5.15157
 20
25.456
 11
-5.27652
 21
25.4959
  0
LINE
  8
0
 10
-5.27652
 20
25.4959
 11
-5.39702
 21
25.5455
  0
LINE
  8
0
 10
-5.39702
 20
25.5455
 11
-5.51237
 21
25.6046
  0
LINE
  8
0
 10
-5.51237
 20
25.6046
 11
-5.62198
 21
25.6727
  0
LINE
  8
0
 10
-5.62198
 20
25.6727
 11
-5.72525
 21
25.7495
  0
LINE
  8
0
 10
-5.72525
 20
25.7495
 11
-5.8215
 21
25.8346
  0
LINE
  8
0
 10
-5.8215
 20
25.8346
 11
-5.91016
 21
25.9277
  0
LINE
  8
0
 10
-5.91016
 20
25.9277
 11
-5.99055
 21
26.0285
  0
LINE
  8
0
 10
-5.99055
 20
26.0285
 11
-6.0621
 21
26.1365
  0
LINE
  8
0
 10
-6.0621
 20
26.1365
 11
-6.12415
 21
26.2514
  0
LINE
  8
0
 10
-6.12415
 20
26.2514
 11
-6.17609
 21
26.373
  0
LINE
  8
0
 10
-6.17609
 20
26.373
 11
-6.32256
 21
26.9619
  0
LINE
  8
0
 10
-6.32256
 20
26.9619
 11
-6.40111
 21
27.0924
  0
LINE
  8
0
 10
-6.40111
 20
27.0924
 11
-6.51904
 21
27.1859
  0
LINE
  8
0
 10
-6.51904
 20
27.1859
 11
-6.66393
 21
27.2356
  0
LINE
  8
0
 10
-6.66393
 20
27.2356
 11
-6.79628
 21
27.2348
  0
LINE
  8
0
 10
-6.79628
 20
27.2348
 11
-7.26669
 21
27.1197
  0
LINE
  8
0
 10
-7.26669
 20
27.1197
 11
-7.73164
 21
26.9842
  0
LINE
  8
0
 10
-7.73164
 20
26.9842
 11
-7.84668
 21
26.9187
  0
LINE
  8
0
 10
-7.84668
 20
26.9187
 11
-7.9473
 21
26.8032
  0
LINE
  8
0
 10
-7.9473
 20
26.8032
 11
-8.00266
 21
26.6632
  0
LINE
  8
0
 10
-8.00266
 20
26.6632
 11
-8.00543
 21
26.5109
  0
LINE
  8
0
 10
-8.00543
 20
26.5109
 11
-7.83783
 21
25.9277
  0
LINE
  8
0
 10
-7.83783
 20
25.9277
 11
-7.82213
 21
25.7965
  0
LINE
  8
0
 10
-7.82213
 20
25.7965
 11
-7.81845
 21
25.666
  0
LINE
  8
0
 10
-7.81845
 20
25.666
 11
-7.82645
 21
25.5367
  0
LINE
  8
0
 10
-7.82645
 20
25.5367
 11
-7.84576
 21
25.4093
  0
LINE
  8
0
 10
-7.84576
 20
25.4093
 11
-7.87601
 21
25.2843
  0
LINE
  8
0
 10
-7.87601
 20
25.2843
 11
-7.91682
 21
25.1625
  0
LINE
  8
0
 10
-7.91682
 20
25.1625
 11
-7.96785
 21
25.0443
  0
LINE
  8
0
 10
-7.96785
 20
25.0443
 11
-8.02872
 21
24.9306
  0
LINE
  8
0
 10
-8.02872
 20
24.9306
 11
-8.09909
 21
24.8218
  0
LINE
  8
0
 10
-8.09909
 20
24.8218
 11
-8.17856
 21
24.7185
  0
LINE
  8
0
 10
-8.17856
 20
24.7185
 11
-8.2668
 21
24.6215
  0
LINE
  8
0
 10
-8.2668
 20
24.6215
 11
-8.3634
 21
24.5312
  0
LINE
  8
0
 10
-8.3634
 20
24.5312
 11
-8.46802
 21
24.4485
  0
LINE
  8
0
 10
-8.46802
 20
24.4485
 11
-8.58032
 21
24.3737
  0
LINE
  8
0
 10
-8.58032
 20
24.3737
 11
-8.69991
 21
24.3077
  0
LINE
  8
0
 10
-8.69991
 20
24.3077
 11
-8.82642
 21
24.2509
  0
LINE
  8
0
 10
-8.82642
 20
24.2509
 11
-8.9599
 21
24.213
  0
LINE
  8
0
 10
-8.9599
 20
24.213
 11
-9.09407
 21
24.1866
  0
LINE
  8
0
 10
-9.09407
 20
24.1866
 11
-9.2282
 21
24.1716
  0
LINE
  8
0
 10
-9.2282
 20
24.1716
 11
-9.36162
 21
24.1677
  0
LINE
  8
0
 10
-9.36162
 20
24.1677
 11
-9.49368
 21
24.1747
  0
LINE
  8
0
 10
-9.49368
 20
24.1747
 11
-9.62367
 21
24.1923
  0
LINE
  8
0
 10
-9.62367
 20
24.1923
 11
-9.75096
 21
24.2202
  0
LINE
  8
0
 10
-9.75096
 20
24.2202
 11
-9.87482
 21
24.2584
  0
LINE
  8
0
 10
-9.87482
 20
24.2584
 11
-9.99458
 21
24.3064
  0
LINE
  8
0
 10
-9.99458
 20
24.3064
 11
-10.1096
 21
24.3641
  0
LINE
  8
0
 10
-10.1096
 20
24.3641
 11
-10.2192
 21
24.4312
  0
LINE
  8
0
 10
-10.2192
 20
24.4312
 11
-10.3227
 21
24.5075
  0
LINE
  8
0
 10
-10.3227
 20
24.5075
 11
-10.4193
 21
24.5928
  0
LINE
  8
0
 10
-10.4193
 20
24.5928
 11
-10.5086
 21
24.6868
  0
LINE
  8
0
 10
-10.5086
 20
24.6868
 11
-10.5896
 21
24.7892
  0
LINE
  8
0
 10
-10.5896
 20
24.7892
 11
-10.6619
 21
24.8998
  0
LINE
  8
0
 10
-10.6619
 20
24.8998
 11
-10.9084
 21
25.4543
  0
LINE
  8
0
 10
-10.9084
 20
25.4543
 11
-11.0084
 21
25.5692
  0
LINE
  8
0
 10
-11.0084
 20
25.5692
 11
-11.1408
 21
25.6409
  0
LINE
  8
0
 10
-11.1408
 20
25.6409
 11
-11.2921
 21
25.6647
  0
LINE
  8
0
 10
-11.2921
 20
25.6647
 11
-11.4223
 21
25.6409
  0
LINE
  8
0
 10
-11.4223
 20
25.6409
 11
-11.8656
 21
25.4458
  0
LINE
  8
0
 10
-11.8656
 20
25.4458
 11
-12.2999
 21
25.2316
  0
LINE
  8
0
 10
-12.2999
 20
25.2316
 11
-12.4019
 21
25.1472
  0
LINE
  8
0
 10
-12.4019
 20
25.1472
 11
-12.4809
 21
25.016
  0
LINE
  8
0
 10
-12.4809
 20
25.016
 11
-12.5111
 21
24.8685
  0
LINE
  8
0
 10
-12.5111
 20
24.8685
 11
-12.4874
 21
24.718
  0
LINE
  8
0
 10
-12.4874
 20
24.718
 11
-12.2211
 21
24.1728
  0
LINE
  8
0
 10
-12.2211
 20
24.1728
 11
-12.1828
 21
24.0463
  0
LINE
  8
0
 10
-12.1828
 20
24.0463
 11
-12.1565
 21
23.9184
  0
LINE
  8
0
 10
-12.1565
 20
23.9184
 11
-12.142
 21
23.7897
  0
LINE
  8
0
 10
-12.142
 20
23.7897
 11
-12.1388
 21
23.6608
  0
LINE
  8
0
 10
-12.1388
 20
23.6608
 11
-12.1469
 21
23.5325
  0
LINE
  8
0
 10
-12.1469
 20
23.5325
 11
-12.166
 21
23.4055
  0
LINE
  8
0
 10
-12.166
 20
23.4055
 11
-12.1957
 21
23.2803
  0
LINE
  8
0
 10
-12.1957
 20
23.2803
 11
-12.2359
 21
23.1577
  0
LINE
  8
0
 10
-12.2359
 20
23.1577
 11
-12.2863
 21
23.0383
  0
LINE
  8
0
 10
-12.2863
 20
23.0383
 11
-12.3466
 21
22.9228
  0
LINE
  8
0
 10
-12.3466
 20
22.9228
 11
-12.4167
 21
22.8119
  0
LINE
  8
0
 10
-12.4167
 20
22.8119
 11
-12.4961
 21
22.7063
  0
LINE
  8
0
 10
-12.4961
 20
22.7063
 11
-12.5848
 21
22.6066
  0
LINE
  8
0
 10
-12.5848
 20
22.6066
 11
-12.6824
 21
22.5135
  0
LINE
  8
0
 10
-12.6824
 20
22.5135
 11
-12.7887
 21
22.4277
  0
LINE
  8
0
 10
-12.7887
 20
22.4277
 11
-12.9035
 21
22.3498
  0
LINE
  8
0
 10
-12.9035
 20
22.3498
 11
-13.0283
 21
22.2893
  0
LINE
  8
0
 10
-13.0283
 20
22.2893
 11
-13.1559
 21
22.24
  0
LINE
  8
0
 10
-13.1559
 20
22.24
 11
-13.2854
 21
22.202
  0
LINE
  8
0
 10
-13.2854
 20
22.202
 11
-13.4161
 21
22.1749
  0
LINE
  8
0
 10
-13.4161
 20
22.1749
 11
-13.5473
 21
22.1589
  0
LINE
  8
0
 10
-13.5473
 20
22.1589
 11
-13.6784
 21
22.1536
  0
LINE
  8
0
 10
-13.6784
 20
22.1536
 11
-13.8086
 21
22.1591
  0
LINE
  8
0
 10
-13.8086
 20
22.1591
 11
-13.9372
 21
22.1751
  0
LINE
  8
0
 10
-13.9372
 20
22.1751
 11
-14.0635
 21
22.2016
  0
LINE
  8
0
 10
-14.0635
 20
22.2016
 11
-14.1868
 21
22.2384
  0
LINE
  8
0
 10
-14.1868
 20
22.2384
 11
-14.3064
 21
22.2855
  0
LINE
  8
0
 10
-14.3064
 20
22.2855
 11
-14.4215
 21
22.3427
  0
LINE
  8
0
 10
-14.4215
 20
22.3427
 11
-14.5315
 21
22.4099
  0
LINE
  8
0
 10
-14.5315
 20
22.4099
 11
-14.6357
 21
22.4869
  0
LINE
  8
0
 10
-14.6357
 20
22.4869
 11
-14.7333
 21
22.5737
  0
LINE
  8
0
 10
-14.7333
 20
22.5737
 11
-14.8237
 21
22.6702
  0
LINE
  8
0
 10
-14.8237
 20
22.6702
 11
-15.1628
 21
23.1734
  0
LINE
  8
0
 10
-15.1628
 20
23.1734
 11
-15.2812
 21
23.2692
  0
LINE
  8
0
 10
-15.2812
 20
23.2692
 11
-15.424
 21
23.3168
  0
LINE
  8
0
 10
-15.424
 20
23.3168
 11
-15.5772
 21
23.3139
  0
LINE
  8
0
 10
-15.5772
 20
23.3139
 11
-15.7013
 21
23.2679
  0
LINE
  8
0
 10
-15.7013
 20
23.2679
 11
-16.1039
 21
22.9988
  0
LINE
  8
0
 10
-16.1039
 20
22.9988
 11
-16.4945
 21
22.7124
  0
LINE
  8
0
 10
-16.4945
 20
22.7124
 11
-16.5802
 21
22.6116
  0
LINE
  8
0
 10
-16.5802
 20
22.6116
 11
-16.6353
 21
22.4687
  0
LINE
  8
0
 10
-16.6353
 20
22.4687
 11
-16.6394
 21
22.3182
  0
LINE
  8
0
 10
-16.6394
 20
22.3182
 11
-16.5899
 21
22.1741
  0
LINE
  8
0
 10
-16.5899
 20
22.1741
 11
-16.233
 21
21.6834
  0
LINE
  8
0
 10
-16.233
 20
21.6834
 11
-16.1733
 21
21.5655
  0
LINE
  8
0
 10
-16.1733
 20
21.5655
 11
-16.1252
 21
21.4441
  0
LINE
  8
0
 10
-16.1252
 20
21.4441
 11
-16.0885
 21
21.3198
  0
LINE
  8
0
 10
-16.0885
 20
21.3198
 11
-16.0631
 21
21.1935
  0
LINE
  8
0
 10
-16.0631
 20
21.1935
 11
-16.0488
 21
21.0657
  0
LINE
  8
0
 10
-16.0488
 20
21.0657
 11
-16.0455
 21
20.9373
  0
LINE
  8
0
 10
-16.0455
 20
20.9373
 11
-16.053
 21
20.8088
  0
LINE
  8
0
 10
-16.053
 20
20.8088
 11
-16.0713
 21
20.6811
  0
LINE
  8
0
 10
-16.0713
 20
20.6811
 11
-16.1002
 21
20.5548
  0
LINE
  8
0
 10
-16.1002
 20
20.5548
 11
-16.1396
 21
20.4306
  0
LINE
  8
0
 10
-16.1396
 20
20.4306
 11
-16.1893
 21
20.3092
  0
LINE
  8
0
 10
-16.1893
 20
20.3092
 11
-16.2492
 21
20.1914
  0
LINE
  8
0
 10
-16.2492
 20
20.1914
 11
-16.3192
 21
20.0778
  0
LINE
  8
0
 10
-16.3192
 20
20.0778
 11
-16.3992
 21
19.9692
  0
LINE
  8
0
 10
-16.3992
 20
19.9692
 11
-16.489
 21
19.8662
  0
LINE
  8
0
 10
-16.489
 20
19.8662
 11
-16.5884
 21
19.7696
  0
LINE
  8
0
 10
-16.5884
 20
19.7696
 11
-16.7009
 21
19.6883
  0
LINE
  8
0
 10
-16.7009
 20
19.6883
 11
-16.8179
 21
19.6176
  0
LINE
  8
0
 10
-16.8179
 20
19.6176
 11
-16.9389
 21
19.5577
  0
LINE
  8
0
 10
-16.9389
 20
19.5577
 11
-17.0629
 21
19.5084
  0
LINE
  8
0
 10
-17.0629
 20
19.5084
 11
-17.1894
 21
19.4697
  0
LINE
  8
0
 10
-17.1894
 20
19.4697
 11
-17.3176
 21
19.4418
  0
LINE
  8
0
 10
-17.3176
 20
19.4418
 11
-17.4467
 21
19.4246
  0
LINE
  8
0
 10
-17.4467
 20
19.4246
 11
-17.5762
 21
19.418
  0
LINE
  8
0
 10
-17.5762
 20
19.418
 11
-17.7051
 21
19.4222
  0
LINE
  8
0
 10
-17.7051
 20
19.4222
 11
-17.8329
 21
19.4371
  0
LINE
  8
0
 10
-17.8329
 20
19.4371
 11
-17.9589
 21
19.4627
  0
LINE
  8
0
 10
-17.9589
 20
19.4627
 11
-18.0822
 21
19.499
  0
LINE
  8
0
 10
-18.0822
 20
19.499
 11
-18.2022
 21
19.546
  0
LINE
  8
0
 10
-18.2022
 20
19.546
 11
-18.3182
 21
19.6038
  0
LINE
  8
0
 10
-18.3182
 20
19.6038
 11
-18.4294
 21
19.6723
  0
LINE
  8
0
 10
-18.4294
 20
19.6723
 11
-18.5351
 21
19.7516
  0
LINE
  8
0
 10
-18.5351
 20
19.7516
 11
-18.9564
 21
20.1884
  0
LINE
  8
0
 10
-18.9564
 20
20.1884
 11
-19.0897
 21
20.2621
  0
LINE
  8
0
 10
-19.0897
 20
20.2621
 11
-19.2386
 21
20.2842
  0
LINE
  8
0
 10
-19.2386
 20
20.2842
 11
-19.3889
 21
20.2548
  0
LINE
  8
0
 10
-19.3889
 20
20.2548
 11
-19.5032
 21
20.1879
  0
LINE
  8
0
 10
-19.5032
 20
20.1879
 11
-19.853
 21
19.853
  0
LINE
  8
0
 10
-19.853
 20
19.853
 11
-20.1879
 21
19.5032
  0
LINE
  8
0
 10
-20.1879
 20
19.5032
 11
-20.2548
 21
19.3889
  0
LINE
  8
0
 10
-20.2548
 20
19.3889
 11
-20.2842
 21
19.2386
  0
LINE
  8
0
 10
-20.2842
 20
19.2386
 11
-20.2621
 21
19.0897
  0
LINE
  8
0
 10
-20.2621
 20
19.0897
 11
-20.1884
 21
18.9564
  0
LINE
  8
0
 10
-20.1884
 20
18.9564
 11
-19.7516
 21
18.5351
  0
LINE
  8
0
 10
-19.7516
 20
18.5351
 11
-19.6724
 21
18.4294
  0
LINE
  8
0
 10
-19.6724
 20
18.4294
 11
-19.604
 21
18.3182
  0
LINE
  8
0
 10
-19.604
 20
18.3182
 11
-19.5462
 21
18.2022
  0
LINE
  8
0
 10
-19.5462
 20
18.2022
 11
-19.4993
 21
18.0822
  0
LINE
  8
0
 10
-19.4993
 20
18.0822
 11
-19.463
 21
17.9588
  0
LINE
  8
0
 10
-19.463
 20
17.9588
 11
-19.4374
 21
17.8329
  0
LINE
  8
0
 10
-19.4374
 20
17.8329
 11
-19.4225
 21
17.7051
  0
LINE
  8
0
 10
-19.4225
 20
17.7051
 11
-19.4184
 21
17.5761
  0
LINE
  8
0
 10
-19.4184
 20
17.5761
 11
-19.4249
 21
17.4467
  0
LINE
  8
0
 10
-19.4249
 20
17.4467
 11
-19.4421
 21
17.3176
  0
LINE
  8
0
 10
-19.4421
 20
17.3176
 11
-19.47
 21
17.1894
  0
LINE
  8
0
 10
-19.47
 20
17.1894
 11
-19.5085
 21
17.063
  0
LINE
  8
0
 10
-19.5085
 20
17.063
 11
-19.5578
 21
16.939
  0
LINE
  8
0
 10
-19.5578
 20
16.939
 11
-19.6176
 21
16.8181
  0
LINE
  8
0
 10
-19.6176
 20
16.8181
 11
-19.6882
 21
16.7011
  0
LINE
  8
0
 10
-19.6882
 20
16.7011
 11
-19.7694
 21
16.5887
  0
LINE
  8
0
 10
-19.7694
 20
16.5887
 11
-19.866
 21
16.4891
  0
LINE
  8
0
 10
-19.866
 20
16.4891
 11
-19.969
 21
16.3992
  0
LINE
  8
0
 10
-19.969
 20
16.3992
 11
-20.0777
 21
16.3191
  0
LINE
  8
0
 10
-20.0777
 20
16.3191
 11
-20.1913
 21
16.249
  0
LINE
  8
0
 10
-20.1913
 20
16.249
 11
-20.3091
 21
16.189
  0
LINE
  8
0
 10
-20.3091
 20
16.189
 11
-20.4305
 21
16.1393
  0
LINE
  8
0
 10
-20.4305
 20
16.1393
 11
-20.5547
 21
16.0999
  0
LINE
  8
0
 10
-20.5547
 20
16.0999
 11
-20.681
 21
16.071
  0
LINE
  8
0
 10
-20.681
 20
16.071
 11
-20.8088
 21
16.0527
  0
LINE
  8
0
 10
-20.8088
 20
16.0527
 11
-20.9372
 21
16.0451
  0
LINE
  8
0
 10
-20.9372
 20
16.0451
 11
-21.0657
 21
16.0484
  0
LINE
  8
0
 10
-21.0657
 20
16.0484
 11
-21.1935
 21
16.0628
  0
LINE
  8
0
 10
-21.1935
 20
16.0628
 11
-21.3198
 21
16.0883
  0
LINE
  8
0
 10
-21.3198
 20
16.0883
 11
-21.4441
 21
16.1251
  0
LINE
  8
0
 10
-21.4441
 20
16.1251
 11
-21.5655
 21
16.1732
  0
LINE
  8
0
 10
-21.5655
 20
16.1732
 11
-21.6834
 21
16.233
  0
LINE
  8
0
 10
-21.6834
 20
16.233
 11
-22.1741
 21
16.5899
  0
LINE
  8
0
 10
-22.1741
 20
16.5899
 11
-22.3182
 21
16.6394
  0
LINE
  8
0
 10
-22.3182
 20
16.6394
 11
-22.4687
 21
16.6353
  0
LINE
  8
0
 10
-22.4687
 20
16.6353
 11
-22.6116
 21
16.5802
  0
LINE
  8
0
 10
-22.6116
 20
16.5802
 11
-22.7124
 21
16.4945
  0
LINE
  8
0
 10
-22.7124
 20
16.4945
 11
-22.9988
 21
16.1039
  0
LINE
  8
0
 10
-22.9988
 20
16.1039
 11
-23.2679
 21
15.7013
  0
LINE
  8
0
 10
-23.2679
 20
15.7013
 11
-23.3139
 21
15.5772
  0
LINE
  8
0
 10
-23.3139
 20
15.5772
 11
-23.3168
 21
15.424
  0
LINE
  8
0
 10
-23.3168
 20
15.424
 11
-23.2692
 21
15.2812
  0
LINE
  8
0
 10
-23.2692
 20
15.2812
 11
-23.1734
 21
15.1628
  0
LINE
  8
0
 10
-23.1734
 20
15.1628
 11
-22.6702
 21
14.8237
  0
LINE
  8
0
 10
-22.6702
 20
14.8237
 11
-22.5738
 21
14.7333
  0
LINE
  8
0
 10
-22.5738
 20
14.7333
 11
-22.4871
 21
14.6357
  0
LINE
  8
0
 10
-22.4871
 20
14.6357
 11
-22.4101
 21
14.5315
  0
LINE
  8
0
 10
-22.4101
 20
14.5315
 11
-22.343
 21
14.4215
  0
LINE
  8
0
 10
-22.343
 20
14.4215
 11
-22.2858
 21
14.3063
  0
LINE
  8
0
 10
-22.2858
 20
14.3063
 11
-22.2388
 21
14.1867
  0
LINE
  8
0
 10
-22.2388
 20
14.1867
 11
-22.2019
 21
14.0634
  0
LINE
  8
0
 10
-22.2019
 20
14.0634
 11
-22.1754
 21
13.9371
  0
LINE
  8
0
 10
-22.1754
 20
13.9371
 11
-22.1594
 21
13.8086
  0
LINE
  8
0
 10
-22.1594
 20
13.8086
 11
-22.1539
 21
13.6784
  0
LINE
  8
0
 10
-22.1539
 20
13.6784
 11
-22.1591
 21
13.5473
  0
LINE
  8
0
 10
-22.1591
 20
13.5473
 11
-22.1751
 21
13.4161
  0
LINE
  8
0
 10
-22.1751
 20
13.4161
 11
-22.2021
 21
13.2855
  0
LINE
  8
0
 10
-22.2021
 20
13.2855
 11
-22.2401
 21
13.156
  0
LINE
  8
0
 10
-22.2401
 20
13.156
 11
-22.2892
 21
13.0286
  0
LINE
  8
0
 10
-22.2892
 20
13.0286
 11
-22.3496
 21
12.9038
  0
LINE
  8
0
 10
-22.3496
 20
12.9038
 11
-22.4275
 21
12.7889
  0
LINE
  8
0
 10
-22.4275
 20
12.7889
 11
-22.5133
 21
12.6825
  0
LINE
  8
0
 10
-22.5133
 20
12.6825
 11
-22.6064
 21
12.5848
  0
LINE
  8
0
 10
-22.6064
 20
12.5848
 11
-22.7061
 21
12.496
  0
LINE
  8
0
 10
-22.7061
 20
12.496
 11
-22.8118
 21
12.4165
  0
LINE
  8
0
 10
-22.8118
 20
12.4165
 11
-22.9227
 21
12.3464
  0
LINE
  8
0
 10
-22.9227
 20
12.3464
 11
-23.0381
 21
12.286
  0
LINE
  8
0
 10
-23.0381
 20
12.286
 11
-23.1575
 21
12.2356
  0
LINE
  8
0
 10
-23.1575
 20
12.2356
 11
-23.2802
 21
12.1954
  0
LINE
  8
0
 10
-23.2802
 20
12.1954
 11
-23.4053
 21
12.1656
  0
LINE
  8
0
 10
-23.4053
 20
12.1656
 11
-23.5324
 21
12.1466
  0
LINE
  8
0
 10
-23.5324
 20
12.1466
 11
-23.6608
 21
12.1385
  0
LINE
  8
0
 10
-23.6608
 20
12.1385
 11
-23.7896
 21
12.1417
  0
LINE
  8
0
 10
-23.7896
 20
12.1417
 11
-23.9184
 21
12.1564
  0
LINE
  8
0
 10
-23.9184
 20
12.1564
 11
-24.0463
 21
12.1827
  0
LINE
  8
0
 10
-24.0463
 20
12.1827
 11
-24.1728
 21
12.2211
  0
LINE
  8
0
 10
-24.1728
 20
12.2211
 11
-24.718
 21
12.4874
  0
LINE
  8
0
 10
-24.718
 20
12.4874
 11
-24.8685
 21
12.5111
  0
LINE
  8
0
 10
-24.8685
 20
12.5111
 11
-25.016
 21
12.4809
  0
LINE
  8
0
 10
-25.016
 20
12.4809
 11
-25.1472
 21
12.4019
  0
LINE
  8
0
 10
-25.1472
 20
12.4019
 11
-25.2316
 21
12.2999
  0
LINE
  8
0
 10
-25.2316
 20
12.2999
 11
-25.4458
 21
11.8656
  0
LINE
  8
0
 10
-25.4458
 20
11.8656
 11
-25.6409
 21
11.4223
  0
LINE
  8
0
 10
-25.6409
 20
11.4223
 11
-25.6647
 21
11.2921
  0
LINE
  8
0
 10
-25.6647
 20
11.2921
 11
-25.6409
 21
11.1408
  0
LINE
  8
0
 10
-25.6409
 20
11.1408
 11
-25.5692
 21
11.0084
  0
LINE
  8
0
 10
-25.5692
 20
11.0084
 11
-25.4543
 21
10.9084
  0
LINE
  8
0
 10
-25.4543
 20
10.9084
 11
-24.8998
 21
10.6619
  0
LINE
  8
0
 10
-24.8998
 20
10.6619
 11
-24.7893
 21
10.5896
  0
LINE
  8
0
 10
-24.7893
 20
10.5896
 11
-24.6869
 21
10.5085
  0
LINE
  8
0
 10
-24.6869
 20
10.5085
 11
-24.593
 21
10.4193
  0
LINE
  8
0
 10
-24.593
 20
10.4193
 11
-24.5078
 21
10.3225
  0
LINE
  8
0
 10
-24.5078
 20
10.3225
 11
-24.4315
 21
10.2191
  0
LINE
  8
0
 10
-24.4315
 20
10.2191
 11
-24.3644
 21
10.1095
  0
LINE
  8
0
 10
-24.3644
 20
10.1095
 11
-24.3067
 21
9.99445
  0
LINE
  8
0
 10
-24.3067
 20
9.99445
 11
-24.2587
 21
9.87469
  0
LINE
  8
0
 10
-24.2587
 20
9.87469
 11
-24.2206
 21
9.75085
  0
LINE
  8
0
 10
-24.2206
 20
9.75085
 11
-24.1926
 21
9.62361
  0
LINE
  8
0
 10
-24.1926
 20
9.62361
 11
-24.1749
 21
9.49364
  0
LINE
  8
0
 10
-24.1749
 20
9.49364
 11
-24.1679
 21
9.36165
  0
LINE
  8
0
 10
-24.1679
 20
9.36165
 11
-24.1718
 21
9.22829
  0
LINE
  8
0
 10
-24.1718
 20
9.22829
 11
-24.1867
 21
9.09422
  0
LINE
  8
0
 10
-24.1867
 20
9.09422
 11
-24.213
 21
8.96016
  0
LINE
  8
0
 10
-24.213
 20
8.96016
 11
-24.2508
 21
8.82675
  0
LINE
  8
0
 10
-24.2508
 20
8.82675
 11
-24.3076
 21
8.70012
  0
LINE
  8
0
 10
-24.3076
 20
8.70012
 11
-24.3736
 21
8.5804
  0
LINE
  8
0
 10
-24.3736
 20
8.5804
 11
-24.4483
 21
8.468
  0
LINE
  8
0
 10
-24.4483
 20
8.468
 11
-24.5311
 21
8.36328
  0
LINE
  8
0
 10
-24.5311
 20
8.36328
 11
-24.6213
 21
8.2666
  0
LINE
  8
0
 10
-24.6213
 20
8.2666
 11
-24.7183
 21
8.17831
  0
LINE
  8
0
 10
-24.7183
 20
8.17831
 11
-24.8216
 21
8.0988
  0
LINE
  8
0
 10
-24.8216
 20
8.0988
 11
-24.9304
 21
8.02843
  0
LINE
  8
0
 10
-24.9304
 20
8.02843
 11
-25.0442
 21
7.96754
  0
LINE
  8
0
 10
-25.0442
 20
7.96754
 11
-25.1623
 21
7.9165
  0
LINE
  8
0
 10
-25.1623
 20
7.9165
 11
-25.2842
 21
7.87572
  0
LINE
  8
0
 10
-25.2842
 20
7.87572
 11
-25.4091
 21
7.84549
  0
LINE
  8
0
 10
-25.4091
 20
7.84549
 11
-25.5366
 21
7.82625
  0
LINE
  8
0
 10
-25.5366
 20
7.82625
 11
-25.6659
 21
7.8183
  0
LINE
  8
0
 10
-25.6659
 20
7.8183
 11
-25.7965
 21
7.82204
  0
LINE
  8
0
 10
-25.7965
 20
7.82204
 11
-25.9277
 21
7.83783
  0
LINE
  8
0
 10
-25.9277
 20
7.83783
 11
-26.5109
 21
8.00543
  0
LINE
  8
0
 10
-26.5109
 20
8.00543
 11
-26.6632
 21
8.00266
  0
LINE
  8
0
 10
-26.6632
 20
8.00266
 11
-26.8032
 21
7.9473
  0
LINE
  8
0
 10
-26.8032
 20
7.9473
 11
-26.9187
 21
7.84668
  0
LINE
  8
0
 10
-26.9187
 20
7.84668
 11
-26.9842
 21
7.73164
  0
LINE
  8
0
 10
-26.9842
 20
7.73164
 11
-27.1197
 21
7.26669
  0
LINE
  8
0
 10
-27.1197
 20
7.26669
 11
-27.2348
 21
6.79628
  0
LINE
  8
0
 10
-27.2348
 20
6.79628
 11
-27.2356
 21
6.66393
  0
LINE
  8
0
 10
-27.2356
 20
6.66393
 11
-27.1859
 21
6.51904
  0
LINE
  8
0
 10
-27.1859
 20
6.51904
 11
-27.0924
 21
6.40111
  0
LINE
  8
0
 10
-27.0924
 20
6.40111
 11
-26.9619
 21
6.32256
  0
LINE
  8
0
 10
-26.9619
 20
6.32256
 11
-26.373
 21
6.17609
  0
LINE
  8
0
 10
-26.373
 20
6.17609
 11
-26.2515
 21
6.1241
  0
LINE
  8
0
 10
-26.2515
 20
6.1241
 11
-26.1366
 21
6.06201
  0
LINE
  8
0
 10
-26.1366
 20
6.06201
 11
-26.0287
 21
5.99043
  0
LINE
  8
0
 10
-26.0287
 20
5.99043
 11
-25.9279
 21
5.90999
  0
LINE
  8
0
 10
-25.9279
 20
5.90999
 11
-25.8349
 21
5.82132
  0
LINE
  8
0
 10
-25.8349
 20
5.82132
 11
-25.7498
 21
5.72505
  0
LINE
  8
0
 10
-25.7498
 20
5.72505
 11
-25.673
 21
5.6218
  0
LINE
  8
0
 10
-25.673
 20
5.6218
 11
-25.6049
 21
5.51219
  0
LINE
  8
0
 10
-25.6049
 20
5.51219
 11
-25.5458
 21
5.39685
  0
LINE
  8
0
 10
-25.5458
 20
5.39685
 11
-25.4961
 21
5.27641
  0
LINE
  8
0
 10
-25.4961
 20
5.27641
 11
-25.4562
 21
5.15147
  0
LINE
  8
0
 10
-25.4562
 20
5.15147
 11
-25.4264
 21
5.02271
  0
LINE
  8
0
 10
-25.4264
 20
5.02271
 11
-25.407
 21
4.8907
  0
LINE
  8
0
 10
-25.407
 20
4.8907
 11
-25.3984
 21
4.75609
  0
LINE
  8
0
 10
-25.3984
 20
4.75609
 11
-25.401
 21
4.61949
  0
LINE
  8
0
 10
-25.401
 20
4.61949
 11
-25.4151
 21
4.48155
  0
LINE
  8
0
 10
-25.4151
 20
4.48155
 11
-25.449
 21
4.34698
  0
LINE
  8
0
 10
-25.449
 20
4.34698
 11
-25.4933
 21
4.21762
  0
LINE
  8
0
 10
-25.4933
 20
4.21762
 11
-25.5473
 21
4.09395
  0
LINE
  8
0
 10
-25.5473
 20
4.09395
 11
-25.6107
 21
3.97644
  0
LINE
  8
0
 10
-25.6107
 20
3.97644
 11
-25.6827
 21
3.86555
  0
LINE
  8
0
 10
-25.6827
 20
3.86555
 11
-25.763
 21
3.76178
  0
LINE
  8
0
 10
-25.763
 20
3.76178
 11
-25.8508
 21
3.66554
  0
LINE
  8
0
 10
-25.8508
 20
3.66554
 11
-25.9458
 21
3.57733
  0
LINE
  8
0
 10
-25.9458
 20
3.57733
 11
-26.0473
 21
3.49762
  0
LINE
  8
0
 10
-26.0473
 20
3.49762
 11
-26.1547
 21
3.42685
  0
LINE
  8
0
 10
-26.1547
 20
3.42685
 11
-26.2677
 21
3.36551
  0
LINE
  8
0
 10
-26.2677
 20
3.36551
 11
-26.3855
 21
3.31406
  0
LINE
  8
0
 10
-26.3855
 20
3.31406
 11
-26.5077
 21
3.27296
  0
LINE
  8
0
 10
-26.5077
 20
3.27296
 11
-26.6336
 21
3.24268
  0
LINE
  8
0
 10
-26.6336
 20
3.24268
 11
-26.7629
 21
3.22369
  0
LINE
  8
0
 10
-26.7629
 20
3.22369
 11
-26.8948
 21
3.21646
  0
LINE
  8
0
 10
-26.8948
 20
3.21646
 11
-27.4983
 21
3.28023
  0
LINE
  8
0
 10
-27.4983
 20
3.28023
 11
-27.6478
 21
3.25105
  0
LINE
  8
0
 10
-27.6478
 20
3.25105
 11
-27.7761
 21
3.17223
  0
LINE
  8
0
 10
-27.7761
 20
3.17223
 11
-27.8723
 21
3.05309
  0
LINE
  8
0
 10
-27.8723
 20
3.05309
 11
-27.9168
 21
2.92844
  0
LINE
  8
0
 10
-27.9168
 20
2.92844
 11
-27.9695
 21
2.44701
  0
LINE
  8
0
 10
-27.9695
 20
2.44701
 11
-28.0012
 21
1.96375
  0
LINE
  8
0
 10
-28.0012
 20
1.96375
 11
-27.979
 21
1.83325
  0
LINE
  8
0
 10
-27.979
 20
1.83325
 11
-27.9049
 21
1.69922
  0
LINE
  8
0
 10
-27.9049
 20
1.69922
 11
-27.7923
 21
1.59932
  0
LINE
  8
0
 10
-27.7923
 20
1.59932
 11
-27.6501
 21
1.54462
  0
LINE
  8
0
 10
-27.6501
 20
1.54462
 11
-27.0448
 21
1.50264
  0
LINE
  8
0
 10
-27.0448
 20
1.50264
 11
-26.9161
 21
1.47253
  0
LINE
  8
0
 10
-26.9161
 20
1.47253
 11
-26.7922
 21
1.43134
  0
LINE
  8
0
 10
-26.7922
 20
1.43134
 11
-26.6734
 21
1.37959
  0
LINE
  8
0
 10
-26.6734
 20
1.37959
 11
-26.5603
 21
1.31787
  0
LINE
  8
0
 10
-26.5603
 20
1.31787
 11
-26.4532
 21
1.2467
  0
LINE
  8
0
 10
-26.4532
 20
1.2467
 11
-26.3527
 21
1.16669
  0
LINE
  8
0
 10
-26.3527
 20
1.16669
 11
-26.2592
 21
1.07832
  0
LINE
  8
0
 10
-26.2592
 20
1.07832
 11
-26.1731
 21
0.982208
  0
LINE
  8
0
 10
-26.1731
 20
0.982208
 11
-26.0949
 21
0.878876
  0
LINE
  8
0
 10
-26.0949
 20
0.878876
 11
-26.025
 21
0.76889
  0
LINE
  8
0
 10
-26.025
 20
0.76889
 11
-25.964
 21
0.652786
  0
LINE
  8
0
 10
-25.964
 20
0.652786
 11
-25.9123
 21
0.531143
  0
LINE
  8
0
 10
-25.9123
 20
0.531143
 11
-25.8703
 21
0.40451
  0
LINE
  8
0
 10
-25.8703
 20
0.40451
 11
-25.8385
 21
0.273438
  0
LINE
  8
0
 10
-25.8385
 20
0.273438
 11
-25.8173
 21
0.138458
  0
LINE
  8
0
 10
-25.8173
 20
0.138458
 11
-25.8072
 21
0.000167847
  0
LINE
  8
0
 10
-25.8072
 20
0.000167847
 11
-25.8172
 21
-0.138229
  0
LINE
  8
0
 10
-25.8172
 20
-0.138229
 11
-25.8384
 21
-0.2733
  0
LINE
  8
0
 10
-25.8384
 20
-0.2733
 11
-25.8701
 21
-0.40448
  0
LINE
  8
0
 10
-25.8701
 20
-0.40448
 11
-25.9121
 21
-0.531189
  0
LINE
  8
0
 10
-25.9121
 20
-0.531189
 11
-25.9638
 21
-0.652908
  0
LINE
  8
0
 10
-25.9638
 20
-0.652908
 11
-26.0248
 21
-0.769058
  0
LINE
  8
0
 10
-26.0248
 20
-0.769058
 11
-26.0946
 21
-0.879089
  0
LINE
  8
0
 10
-26.0946
 20
-0.879089
 11
-26.1728
 21
-0.982437
  0
LINE
  8
0
 10
-26.1728
 20
-0.982437
 11
-26.2589
 21
-1.07857
  0
LINE
  8
0
 10
-26.2589
 20
-1.07857
 11
-26.3524
 21
-1.16693
  0
LINE
  8
0
 10
-26.3524
 20
-1.16693
 11
-26.453
 21
-1.24693
  0
LINE
  8
0
 10
-26.453
 20
-1.24693
 11
-26.5601
 21
-1.31807
  0
LINE
  8
0
 10
-26.5601
 20
-1.31807
 11
-26.6733
 21
-1.37975
  0
LINE
  8
0
 10
-26.6733
 20
-1.37975
 11
-26.7921
 21
-1.43144
  0
LINE
  8
0
 10
-26.7921
 20
-1.43144
 11
-26.9161
 21
-1.4726
  0
LINE
  8
0
 10
-26.9161
 20
-1.4726
 11
-27.0448
 21
-1.50264
  0
LINE
  8
0
 10
-27.0448
 20
-1.50264
 11
-27.6501
 21
-1.54462
  0
LINE
  8
0
 10
-27.6501
 20
-1.54462
 11
-27.7923
 21
-1.59932
  0
LINE
  8
0
 10
-27.7923
 20
-1.59932
 11
-27.9049
 21
-1.69922
  0
LINE
  8
0
 10
-27.9049
 20
-1.69922
 11
-27.979
 21
-1.83325
  0
LINE
  8
0
 10
-27.979
 20
-1.83325
 11
-28.0012
 21
-1.96375
  0
LINE
  8
0
 10
-28.0012
 20
-1.96375
 11
-27.9695
 21
-2.44701
  0
LINE
  8
0
 10
-27.9695
 20
-2.44701
 11
-27.9168
 21
-2.92844
  0
LINE
  8
0
 10
-27.9168
 20
-2.92844
 11
-27.8723
 21
-3.05309
  0
LINE
  8
0
 10
-27.8723
 20
-3.05309
 11
-27.7761
 21
-3.17223
  0
LINE
  8
0
 10
-27.7761
 20
-3.17223
 11
-27.6478
 21
-3.25105
  0
LINE
  8
0
 10
-27.6478
 20
-3.25105
 11
-27.4983
 21
-3.28023
  0
LINE
  8
0
 10
-27.4983
 20
-3.28023
 11
-26.8948
 21
-3.21646
  0
LINE
  8
0
 10
-26.8948
 20
-3.21646
 11
-26.7629
 21
-3.22377
  0
LINE
  8
0
 10
-26.7629
 20
-3.22377
 11
-26.6337
 21
-3.24281
  0
LINE
  8
0
 10
-26.6337
 20
-3.24281
 11
-26.5078
 21
-3.27315
  0
LINE
  8
0
 10
-26.5078
 20
-3.27315
 11
-26.3856
 21
-3.31429
  0
LINE
  8
0
 10
-26.3856
 20
-3.31429
 11
-26.2678
 21
-3.36577
  0
LINE
  8
0
 10
-26.2678
 20
-3.36577
 11
-26.1549
 21
-3.42712
  0
LINE
  8
0
 10
-26.1549
 20
-3.42712
 11
-26.0475
 21
-3.49789
  0
LINE
  8
0
 10
-26.0475
 20
-3.49789
 11
-25.946
 21
-3.57759
  0
LINE
  8
0
 10
-25.946
 20
-3.57759
 11
-25.8511
 21
-3.66579
  0
LINE
  8
0
 10
-25.8511
 20
-3.66579
 11
-25.7632
 21
-3.76198
  0
LINE
  8
0
 10
-25.7632
 20
-3.76198
 11
-25.6829
 21
-3.86572
  0
LINE
  8
0
 10
-25.6829
 20
-3.86572
 11
-25.6109
 21
-3.97653
  0
LINE
  8
0
 10
-25.6109
 20
-3.97653
 11
-25.5475
 21
-4.09395
  0
LINE
  8
0
 10
-25.5475
 20
-4.09395
 11
-25.4934
 21
-4.21751
  0
LINE
  8
0
 10
-25.4934
 20
-4.21751
 11
-25.4491
 21
-4.34676
  0
LINE
  8
0
 10
-25.4491
 20
-4.34676
 11
-25.4152
 21
-4.4812
  0
LINE
  8
0
 10
-25.4152
 20
-4.4812
 11
-25.401
 21
-4.61925
  0
LINE
  8
0
 10
-25.401
 20
-4.61925
 11
-25.3984
 21
-4.75594
  0
LINE
  8
0
 10
-25.3984
 20
-4.75594
 11
-25.4069
 21
-4.89064
  0
LINE
  8
0
 10
-25.4069
 20
-4.89064
 11
-25.4262
 21
-5.02272
  0
LINE
  8
0
 10
-25.4262
 20
-5.02272
 11
-25.456
 21
-5.15157
  0
LINE
  8
0
 10
-25.456
 20
-5.15157
 11
-25.4959
 21
-5.27652
  0
LINE
  8
0
 10
-25.4959
 20
-5.27652
 11
-25.5455
 21
-5.39702
  0
LINE
  8
0
 10
-25.5455
 20
-5.39702
 11
-25.6046
 21
-5.51237
  0
LINE
  8
0
 10
-25.6046
 20
-5.51237
 11
-25.6727
 21
-5.62198
  0
LINE
  8
0
 10
-25.6727
 20
-5.62198
 11
-25.7495
 21
-5.72525
  0
LINE
  8
0
 10
-25.7495
 20
-5.72525
 11
-25.8346
 21
-5.8215
  0
LINE
  8
0
 10
-25.8346
 20
-5.8215
 11
-25.9277
 21
-5.91016
  0
LINE
  8
0
 10
-25.9277
 20
-5.91016
 11
-26.0285
 21
-5.99055
  0
LINE
  8
0
 10
-26.0285
 20
-5.99055
 11
-26.1365
 21
-6.0621
  0
LINE
  8
0
 10
-26.1365
 20
-6.0621
 11
-26.2514
 21
-6.12415
  0
LINE
  8
0
 10
-26.2514
 20
-6.12415
 11
-26.373
 21
-6.17609
  0
LINE
  8
0
 10
-26.373
 20
-6.17609
 11
-26.9619
 21
-6.32256
  0
LINE
  8
0
 10
-26.9619
 20
-6.32256
 11
-27.0924
 21
-6.40111
  0
LINE
  8
0
 10
-27.0924
 20
-6.40111
 11
-27.1859
 21
-6.51904
  0
LINE
  8
0
 10
-27.1859
 20
-6.51904
 11
-27.2356
 21
-6.66393
  0
LINE
  8
0
 10
-27.2356
 20
-6.66393
 11
-27.2348
 21
-6.79628
  0
LINE
  8
0
 10
-27.2348
 20
-6.79628
 11
-27.1197
 21
-7.26669
  0
LINE
  8
0
 10
-27.1197
 20
-7.26669
 11
-26.9842
 21
-7.73164
  0
LINE
  8
0
 10
-26.9842
 20
-7.73164
 11
-26.9187
 21
-7.84668
  0
LINE
  8
0
 10
-26.9187
 20
-7.84668
 11
-26.8032
 21
-7.9473
  0
LINE
  8
0
 10
-26.8032
 20
-7.9473
 11
-26.6632
 21
-8.00266
  0
LINE
  8
0
 10
-26.6632
 20
-8.00266
 11
-26.5109
 21
-8.00543
  0
LINE
  8
0
 10
-26.5109
 20
-8.00543
 11
-25.9277
 21
-7.83783
  0
LINE
  8
0
 10
-25.9277
 20
-7.83783
 11
-25.7965
 21
-7.82213
  0
LINE
  8
0
 10
-25.7965
 20
-7.82213
 11
-25.666
 21
-7.81845
  0
LINE
  8
0
 10
-25.666
 20
-7.81845
 11
-25.5367
 21
-7.82645
  0
LINE
  8
0
 10
-25.5367
 20
-7.82645
 11
-25.4093
 21
-7.84576
  0
LINE
  8
0
 10
-25.4093
 20
-7.84576
 11
-25.2843
 21
-7.87601
  0
LINE
  8
0
 10
-25.2843
 20
-7.87601
 11
-25.1625
 21
-7.91682
  0
LINE
  8
0
 10
-25.1625
 20
-7.91682
 11
-25.0443
 21
-7.96785
  0
LINE
  8
0
 10
-25.0443
 20
-7.96785
 11
-24.9306
 21
-8.02872
  0
LINE
  8
0
 10
-24.9306
 20
-8.02872
 11
-24.8218
 21
-8.09909
  0
LINE
  8
0
 10
-24.8218
 20
-8.09909
 11
-24.7185
 21
-8.17856
  0
LINE
  8
0
 10
-24.7185
 20
-8.17856
 11
-24.6215
 21
-8.2668
  0
LINE
  8
0
 10
-24.6215
 20
-8.2668
 11
-24.5312
 21
-8.3634
  0
LINE
  8
0
 10
-24.5312
 20
-8.3634
 11
-24.4485
 21
-8.46802
  0
LINE
  8
0
 10
-24.4485
 20
-8.46802
 11
-24.3737
 21
-8.58032
  0
LINE
  8
0
 10
-24.3737
 20
-8.58032
 11
-24.3077
 21
-8.69991
  0
LINE
  8
0
 10
-24.3077
 20
-8.69991
 11
-24.2509
 21
-8.82642
  0
LINE
  8
0
 10
-24.2509
 20
-8.82642
 11
-24.213
 21
-8.9599
  0
LINE
  8
0
 10
-24.213
 20
-8.9599
 11
-24.1866
 21
-9.09407
  0
LINE
  8
0
 10
-24.1866
 20
-9.09407
 11
-24.1716
 21
-9.2282
  0
LINE
  8
0
 10
-24.1716
 20
-9.2282
 11
-24.1677
 21
-9.36162
  0
LINE
  8
0
 10
-24.1677
 20
-9.36162
 11
-24.1747
 21
-9.49368
  0
LINE
  8
0
 10
-24.1747
 20
-9.49368
 11
-24.1923
 21
-9.62367
  0
LINE
  8
0
 10
-24.1923
 20
-9.62367
 11
-24.2202
 21
-9.75096
  0
LINE
  8
0
 10
-24.2202
 20
-9.75096
 11
-24.2584
 21
-9.87482
  0
LINE
  8
0
 10
-24.2584
 20
-9.87482
 11
-24.3064
 21
-9.99458
  0
LINE
  8
0
 10
-24.3064
 20
-9.99458
 11
-24.3641
 21
-10.1096
  0
LINE
  8
0
 10
-24.3641
 20
-10.1096
 11
-24.4312
 21
-10.2192
  0
LINE
  8
0
 10
-24.4312
 20
-10.2192
 11
-24.5075
 21
-10.3227
  0
LINE
  8
0
 10
-24.5075
 20
-10.3227
 11
-24.5928
 21
-10.4193
  0
LINE
  8
0
 10
-24.5928
 20
-10.4193
 11
-24.6868
 21
-10.5086
  0
LINE
  8
0
 10
-24.6868
 20
-10.5086
 11
-24.7892
 21
-10.5896
  0
LINE
  8
0
 10
-24.7892
 20
-10.5896
 11
-24.8998
 21
-10.6619
  0
LINE
  8
0
 10
-24.8998
 20
-10.6619
 11
-25.4543
 21
-10.9084
  0
LINE
  8
0
 10
-25.4543
 20
-10.9084
 11
-25.5692
 21
-11.0084
  0
LINE
  8
0
 10
-25.5692
 20
-11.0084
 11
-25.6409
 21
-11.1408
  0
LINE
  8
0
 10
-25.6409
 20
-11.1408
 11
-25.6647
 21
-11.2921
  0
LINE
  8
0
 10
-25.6647
 20
-11.2921
 11
-25.6409
 21
-11.4223
  0
LINE
  8
0
 10
-25.6409
 20
-11.4223
 11
-25.4458
 21
-11.8656
  0
LINE
  8
0
 10
-25.4458
 20
-11.8656
 11
-25.2316
 21
-12.2999
  0
LINE
  8
0
 10
-25.2316
 20
-12.2999
 11
-25.1472
 21
-12.4019
  0
LINE
  8
0
 10
-25.1472
 20
-12.4019
 11
-25.016
 21
-12.4809
  0
LINE
  8
0
 10
-25.016
 20
-12.4809
 11
-24.8685
 21
-12.5111
  0
LINE
  8
0
 10
-24.8685
 20
-12.5111
 11
-24.718
 21
-12.4874
  0
LINE
  8
0
 10
-24.718
 20
-12.4874
 11
-24.1728
 21
-12.2211
  0
LINE
  8
0
 10
-24.1728
 20
-12.2211
 11
-24.0463
 21
-12.1828
  0
LINE
  8
0
 10
-24.0463
 20
-12.1828
 11
-23.9184
 21
-12.1565
  0
LINE
  8
0
 10
-23.9184
 20
-12.1565
 11
-23.7897
 21
-12.142
  0
LINE
  8
0
 10
-23.7897
 20
-12.142
 11
-23.6608
 21
-12.1388
  0
LINE
  8
0
 10
-23.6608
 20
-12.1388
 11
-23.5325
 21
-12.1469
  0
LINE
  8
0
 10
-23.5325
 20
-12.1469
 11
-23.4055
 21
-12.166
  0
LINE
  8
0
 10
-23.4055
 20
-12.166
 11
-23.2803
 21
-12.1957
  0
LINE
  8
0
 10
-23.2803
 20
-12.1957
 11
-23.1577
 21
-12.2359
  0
LINE
  8
0
 10
-23.1577
 20
-12.2359
 11
-23.0383
 21
-12.2863
  0
LINE
  8
0
 10
-23.0383
 20
-12.2863
 11
-22.9228
 21
-12.3466
  0
LINE
  8
0
 10
-22.9228
 20
-12.3466
 11
-22.8119
 21
-12.4167
  0
LINE
  8
0
 10
-22.8119
 20
-12.4167
 11
-22.7063
 21
-12.4961
  0
LINE
  8
0
 10
-22.7063
 20
-12.4961
 11
-22.6066
 21
-12.5848
  0
LINE
  8
0
 10
-22.6066
 20
-12.5848
 11
-22.5135
 21
-12.6824
  0
LINE
  8
0
 10
-22.5135
 20
-12.6824
 11
-22.4277
 21
-12.7887
  0
LINE
  8
0
 10
-22.4277
 20
-12.7887
 11
-22.3498
 21
-12.9035
  0
LINE
  8
0
 10
-22.3498
 20
-12.9035
 11
-22.2893
 21
-13.0283
  0
LINE
  8
0
 10
-22.2893
 20
-13.0283
 11
-22.24
 21
-13.1559
  0
LINE
  8
0
 10
-22.24
 20
-13.1559
 11
-22.202
 21
-13.2854
  0
LINE
  8
0
 10
-22.202
 20
-13.2854
 11
-22.1749
 21
-13.4161
  0
LINE
  8
0
 10
-22.1749
 20
-13.4161
 11
-22.1589
 21
-13.5473
  0
LINE
  8
0
 10
-22.1589
 20
-13.5473
 11
-22.1536
 21
-13.6784
  0
LINE
  8
0
 10
-22.1536
 20
-13.6784
 11
-22.1591
 21
-13.8086
  0
LINE
  8
0
 10
-22.1591
 20
-13.8086
 11
-22.1751
 21
-13.9372
  0
LINE
  8
0
 10
-22.1751
 20
-13.9372
 11
-22.2016
 21
-14.0635
  0
LINE
  8
0
 10
-22.2016
 20
-14.0635
 11
-22.2384
 21
-14.1868
  0
LINE
  8
0
 10
-22.2384
 20
-14.1868
 11
-22.2855
 21
-14.3064
  0
LINE
  8
0
 10
-22.2855
 20
-14.3064
 11
-22.3427
 21
-14.4215
  0
LINE
  8
0
 10
-22.3427
 20
-14.4215
 11
-22.4099
 21
-14.5315
  0
LINE
  8
0
 10
-22.4099
 20
-14.5315
 11
-22.4869
 21
-14.6357
  0
LINE
  8
0
 10
-22.4869
 20
-14.6357
 11
-22.5737
 21
-14.7333
  0
LINE
  8
0
 10
-22.5737
 20
-14.7333
 11
-22.6702
 21
-14.8237
  0
LINE
  8
0
 10
-22.6702
 20
-14.8237
 11
-23.1734
 21
-15.1628
  0
LINE
  8
0
 10
-23.1734
 20
-15.1628
 11
-23.2692
 21
-15.2812
  0
LINE
  8
0
 10
-23.2692
 20
-15.2812
 11
-23.3168
 21
-15.424
  0
LINE
  8
0
 10
-23.3168
 20
-15.424
 11
-23.3139
 21
-15.5772
  0
LINE
  8
0
 10
-23.3139
 20
-15.5772
 11
-23.2679
 21
-15.7013
  0
LINE
  8
0
 10
-23.2679
 20
-15.7013
 11
-22.9988
 21
-16.1039
  0
LINE
  8
0
 10
-22.9988
 20
-16.1039
 11
-22.7124
 21
-16.4945
  0
LINE
  8
0
 10
-22.7124
 20
-16.4945
 11
-22.6116
 21
-16.5802
  0
LINE
  8
0
 10
-22.6116
 20
-16.5802
 11
-22.4687
 21
-16.6353
  0
LINE
  8
0
 10
-22.4687
 20
-16.6353
 11
-22.3182
 21
-16.6394
  0
LINE
  8
0
 10
-22.3182
 20
-16.6394
 11
-22.1741
 21
-16.5899
  0
LINE
  8
0
 10
-22.1741
 20
-16.5899
 11
-21.6834
 21
-16.233
  0
LINE
  8
0
 10
-21.6834
 20
-16.233
 11
-21.5655
 21
-16.1733
  0
LINE
  8
0
 10
-21.5655
 20
-16.1733
 11
-21.4441
 21
-16.1252
  0
LINE
  8
0
 10
-21.4441
 20
-16.1252
 11
-21.3198
 21
-16.0885
  0
LINE
  8
0
 10
-21.3198
 20
-16.0885
 11
-21.1935
 21
-16.0631
  0
LINE
  8
0
 10
-21.1935
 20
-16.0631
 11
-21.0657
 21
-16.0488
  0
LINE
  8
0
 10
-21.0657
 20
-16.0488
 11
-20.9373
 21
-16.0455
  0
LINE
  8
0
 10
-20.9373
 20
-16.0455
 11
-20.8088
 21
-16.053
  0
LINE
  8
0
 10
-20.8088
 20
-16.053
 11
-20.6811
 21
-16.0713
  0
LINE
  8
0
 10
-20.6811
 20
-16.0713
 11
-20.5548
 21
-16.1002
  0
LINE
  8
0
 10
-20.5548
 20
-16.1002
 11
-20.4306
 21
-16.1396
  0
LINE
  8
0
 10
-20.4306
 20
-16.1396
 11
-20.3092
 21
-16.1893
  0
LINE
  8
0
 10
-20.3092
 20
-16.1893
 11
-20.1914
 21
-16.2492
  0
LINE
  8
0
 10
-20.1914
 20
-16.2492
 11
-20.0778
 21
-16.3192
  0
LINE
  8
0
 10
-20.0778
 20
-16.3192
 11
-19.9692
 21
-16.3992
  0
LINE
  8
0
 10
-19.9692
 20
-16.3992
 11
-19.8662
 21
-16.489
  0
LINE
  8
0
 10
-19.8662
 20
-16.489
 11
-19.7696
 21
-16.5884
  0
LINE
  8
0
 10
-19.7696
 20
-16.5884
 11
-19.6883
 21
-16.7009
  0
LINE
  8
0
 10
-19.6883
 20
-16.7009
 11
-19.6176
 21
-16.8179
  0
LINE
  8
0
 10
-19.6176
 20
-16.8179
 11
-19.5577
 21
-16.9389
  0
LINE
  8
0
 10
-19.5577
 20
-16.9389
 11
-19.5084
 21
-17.0629
  0
LINE
  8
0
 10
-19.5084
 20
-17.0629
 11
-19.4697
 21
-17.1894
  0
LINE
  8
0
 10
-19.4697
 20
-17.1894
 11
-19.4418
 21
-17.3176
  0
LINE
  8
0
 10
-19.4418
 20
-17.3176
 11
-19.4246
 21
-17.4467
  0
LINE
  8
0
 10
-19.4246
 20
-17.4467
 11
-19.418
 21
-17.5762
  0
LINE
  8
0
 10
-19.418
 20
-17.5762
 11
-19.4222
 21
-17.7051
  0
LINE
  8
0
 10
-19.4222
 20
-17.7051
 11
-19.4371
 21
-17.8329
  0
LINE
  8
0
 10
-19.4371
 20
-17.8329
 11
-19.4627
 21
-17.9589
  0
LINE
  8
0
 10
-19.4627
 20
-17.9589
 11
-19.499
 21
-18.0822
  0
LINE
  8
0
 10
-19.499
 20
-18.0822
 11
-19.546
 21
-18.2022
  0
LINE
  8
0
 10
-19.546
 20
-18.2022
 11
-19.6038
 21
-18.3182
  0
LINE
  8
0
 10
-19.6038
 20
-18.3182
 11
-19.6723
 21
-18.4294
  0
LINE
  8
0
 10
-19.6723
 20
-18.4294
 11
-19.7516
 21
-18.5351
  0
LINE
  8
0
 10
-19.7516
 20
-18.5351
 11
-20.1884
 21
-18.9564
  0
LINE
  8
0
 10
-20.1884
 20
-18.9564
 11
-20.2621
 21
-19.0897
  0
LINE
  8
0
 10
-20.2621
 20
-19.0897
 11
-20.2842
 21
-19.2386
  0
LINE
  8
0
 10
-20.2842
 20
-19.2386
 11
-20.2548
 21
-19.3889
  0
LINE
  8
0
 10
-20.2548
 20
-19.3889
 11
-20.1879
 21
-19.5032
  0
LINE
  8
0
 10
-20.1879
 20
-19.5032
 11
-19.853
 21
-19.853
  0
LINE
  8
0
 10
-19.853
 20
-19.853
 11
-19.5032
 21
-20.1879
  0
LINE
  8
0
 10
-19.5032
 20
-20.1879
 11
-19.3889
 21
-20.2548
  0
LINE
  8
0
 10
-19.3889
 20
-20.2548
 11
-19.2386
 21
-20.2842
  0
LINE
  8
0
 10
-19.2386
 20
-20.2842
 11
-19.0897
 21
-20.2621
  0
LINE
  8
0
 10
-19.0897
 20
-20.2621
 11
-18.9564
 21
-20.1884
  0
LINE
  8
0
 10
-18.9564
 20
-20.1884
 11
-18.5351
 21
-19.7516
  0
LINE
  8
0
 10
-18.5351
 20
-19.7516
 11
-18.4294
 21
-19.6724
  0
LINE
  8
0
 10
-18.4294
 20
-19.6724
 11
-18.3182
 21
-19.604
  0
LINE
  8
0
 10
-18.3182
 20
-19.604
 11
-18.2022
 21
-19.5462
  0
LINE
  8
0
 10
-18.2022
 20
-19.5462
 11
-18.0822
 21
-19.4993
  0
LINE
  8
0
 10
-18.0822
 20
-19.4993
 11
-17.9588
 21
-19.463
  0
LINE
  8
0
 10
-17.9588
 20
-19.463
 11
-17.8329
 21
-19.4374
  0
LINE
  8
0
 10
-17.8329
 20
-19.4374
 11
-17.7051
 21
-19.4225
  0
LINE
  8
0
 10
-17.7051
 20
-19.4225
 11
-17.5761
 21
-19.4184
  0
LINE
  8
0
 10
-17.5761
 20
-19.4184
 11
-17.4467
 21
-19.4249
  0
LINE
  8
0
 10
-17.4467
 20
-19.4249
 11
-17.3176
 21
-19.4421
  0
LINE
  8
0
 10
-17.3176
 20
-19.4421
 11
-17.1894
 21
-19.47
  0
LINE
  8
0
 10
-17.1894
 20
-19.47
 11
-17.063
 21
-19.5085
  0
LINE
  8
0
 10
-17.063
 20
-19.5085
 11
-16.939
 21
-19.5578
  0
LINE
  8
0
 10
-16.939
 20
-19.5578
 11
-16.8181
 21
-19.6176
  0
LINE
  8
0
 10
-16.8181
 20
-19.6176
 11
-16.7011
 21
-19.6882
  0
LINE
  8
0
 10
-16.7011
 20
-19.6882
 11
-16.5887
 21
-19.7694
  0
LINE
  8
0
 10
-16.5887
 20
-19.7694
 11
-16.4891
 21
-19.866
  0
LINE
  8
0
 10
-16.4891
 20
-19.866
 11
-16.3992
 21
-19.969
  0
LINE
  8
0
 10
-16.3992
 20
-19.969
 11
-16.3191
 21
-20.0777
  0
LINE
  8
0
 10
-16.3191
 20
-20.0777
 11
-16.249
 21
-20.1913
  0
LINE
  8
0
 10
-16.249
 20
-20.1913
 11
-16.189
 21
-20.3091
  0
LINE
  8
0
 10
-16.189
 20
-20.3091
 11
-16.1393
 21
-20.4305
  0
LINE
  8
0
 10
-16.1393
 20
-20.4305
 11
-16.0999
 21
-20.5547
  0
LINE
  8
0
 10
-16.0999
 20
-20.5547
 11
-16.071
 21
-20.681
  0
LINE
  8
0
 10
-16.071
 20
-20.681
 11
-16.0527
 21
-20.8088
  0
LINE
  8
0
 10
-16.0527
 20
-20.8088
 11
-16.0451
 21
-20.9372
  0
LINE
  8
0
 10
-16.0451
 20
-20.9372
 11
-16.0484
 21
-21.0657
  0
LINE
  8
0
 10
-16.0484
 20
-21.0657
 11
-16.0628
 21
-21.1935
  0
LINE
  8
0
 10
-16.0628
 20
-21.1935
 11
-16.0883
 21
-21.3198
  0
LINE
  8
0
 10
-16.0883
 20
-21.3198
 11
-16.1251
 21
-21.4441
  0
LINE
  8
0
 10
-16.1251
 20
-21.4441
 11
-16.1732
 21
-21.5655
  0
LINE
  8
0
 10
-16.1732
 20
-21.5655
 11
-16.233
 21
-21.6834
  0
LINE
  8
0
 10
-16.233
 20
-21.6834
 11
-16.5899
 21
-22.1741
  0
LINE
  8
0
 10
-16.5899
 20
-22.1741
 11
-16.6394
 21
-22.3182
  0
LINE
  8
0
 10
-16.6394
 20
-22.3182
 11
-16.6353
 21
-22.4687
  0
LINE
  8
0
 10
-16.6353
 20
-22.4687
 11
-16.5802
 21
-22.6116
  0
LINE
  8
0
 10
-16.5802
 20
-22.6116
 11
-16.4945
 21
-22.7124
  0
LINE
  8
0
 10
-16.4945
 20
-22.7124
 11
-16.1039
 21
-22.9988
  0
LINE
  8
0
 10
-16.1039
 20
-22.9988
 11
-15.7013
 21
-23.2679
  0
LINE
  8
0
 10
-15.7013
 20
-23.2679
 11
-15.5772
 21
-23.3139
  0
LINE
  8
0
 10
-15.5772
 20
-23.3139
 11
-15.424
 21
-23.3168
  0
LINE
  8
0
 10
-15.424
 20
-23.3168
 11
-15.2812
 21
-23.2692
  0
LINE
  8
0
 10
-15.2812
 20
-23.2692
 11
-15.1628
 21
-23.1734
  0
LINE
  8
0
 10
-15.1628
 20
-23.1734
 11
-14.8237
 21
-22.6702
  0
LINE
  8
0
 10
-14.8237
 20
-22.6702
 11
-14.7333
 21
-22.5738
  0
LINE
  8
0
 10
-14.7333
 20
-22.5738
 11
-14.6357
 21
-22.4871
  0
LINE
  8
0
 10
-14.6357
 20
-22.4871
 11
-14.5315
 21
-22.4101
  0
LINE
  8
0
 10
-14.5315
 20
-22.4101
 11
-14.4215
 21
-22.343
  0
LINE
  8
0
 10
-14.4215
 20
-22.343
 11
-14.3063
 21
-22.2858
  0
LINE
  8
0
 10
-14.3063
 20
-22.2858
 11
-14.1867
 21
-22.2388
  0
LINE
  8
0
 10
-14.1867
 20
-22.2388
 11
-14.0634
 21
-22.2019
  0
LINE
  8
0
 10
-14.0634
 20
-22.2019
 11
-13.9371
 21
-22.1754
  0
LINE
  8
0
 10
-13.9371
 20
-22.1754
 11
-13.8086
 21
-22.1594
  0
LINE
  8
0
 10
-13.8086
 20
-22.1594
 11
-13.6784
 21
-22.1539
  0
LINE
  8
0
 10
-13.6784
 20
-22.1539
 11
-13.5473
 21
-22.1591
  0
LINE
  8
0
 10
-13.5473
 20
-22.1591
 11
-13.4161
 21
-22.1751
  0
LINE
  8
0
 10
-13.4161
 20
-22.1751
 11
-13.2855
 21
-22.2021
  0
LINE
  8
0
 10
-13.2855
 20
-22.2021
 11
-13.156
 21
-22.2401
  0
LINE
  8
0
 10
-13.156
 20
-22.2401
 11
-13.0286
 21
-22.2892
  0
LINE
  8
0
 10
-13.0286
 20
-22.2892
 11
-12.9038
 21
-22.3496
  0
LINE
  8
0
 10
-12.9038
 20
-22.3496
 11
-12.7889
 21
-22.4275
  0
LINE
  8
0
 10
-12.7889
 20
-22.4275
 11
-12.6825
 21
-22.5133
  0
LINE
  8
0
 10
-12.6825
 20
-22.5133
 11
-12.5848
 21
-22.6064
  0
LINE
  8
0
 10
-12.5848
 20
-22.6064
 11
-12.496
 21
-22.7061
  0
LINE
  8
0
 10
-12.496
 20
-22.7061
 11
-12.4165
 21
-22.8118
  0
LINE
  8
0
 10
-12.4165
 20
-22.8118
 11
-12.3464
 21
-22.9227
  0
LINE
  8
0
 10
-12.3464
 20
-22.9227
 11
-12.286
 21
-23.0381
  0
LINE
  8
0
 10
-12.286
 20
-23.0381
 11
-12.2356
 21
-23.1575
  0
LINE
  8
0
 10
-12.2356
 20
-23.1575
 11
-12.1954
 21
-23.2802
  0
LINE
  8
0
 10
-12.1954
 20
-23.2802
 11
-12.1656
 21
-23.4053
  0
LINE
  8
0
 10
-12.1656
 20
-23.4053
 11
-12.1466
 21
-23.5324
  0
LINE
  8
0
 10
-12.1466
 20
-23.5324
 11
-12.1385
 21
-23.6608
  0
LINE
  8
0
 10
-12.1385
 20
-23.6608
 11
-12.1417
 21
-23.7896
  0
LINE
  8
0
 10
-12.1417
 20
-23.7896
 11
-12.1564
 21
-23.9184
  0
LINE
  8
0
 10
-12.1564
 20
-23.9184
 11
-12.1827
 21
-24.0463
  0
LINE
  8
0
 10
-12.1827
 20
-24.0463
 11
-12.2211
 21
-24.1728
  0
LINE
  8
0
 10
-12.2211
 20
-24.1728
 11
-12.4874
 21
-24.718
  0
LINE
  8
0
 10
-12.4874
 20
-24.718
 11
-12.5111
 21
-24.8685
  0
LINE
  8
0
 10
-12.5111
 20
-24.8685
 11
-12.4809
 21
-25.016
  0
LINE
  8
0
 10
-12.4809
 20
-25.016
 11
-12.4019
 21
-25.1472
  0
LINE
  8
0
 10
-12.4019
 20
-25.1472
 11
-12.2999
 21
-25.2316
  0
LINE
  8
0
 10
-12.2999
 20
-25.2316
 11
-11.8656
 21
-25.4458
  0
LINE
  8
0
 10
-11.8656
 20
-25.4458
 11
-11.4223
 21
-25.6409
  0
LINE
  8
0
 10
-11.4223
 20
-25.6409
 11
-11.2921
 21
-25.6647
  0
LINE
  8
0
 10
-11.2921
 20
-25.6647
 11
-11.1408
 21
-25.6409
  0
LINE
  8
0
 10
-11.1408
 20
-25.6409
 11
-11.0084
 21
-25.5692
  0
LINE
  8
0
 10
-11.0084
 20
-25.5692
 11
-10.9084
 21
-25.4543
  0
LINE
  8
0
 10
-10.9084
 20
-25.4543
 11
-10.6619
 21
-24.8998
  0
LINE
  8
0
 10
-10.6619
 20
-24.8998
 11
-10.5896
 21
-24.7893
  0
LINE
  8
0
 10
-10.5896
 20
-24.7893
 11
-10.5085
 21
-24.6869
  0
LINE
  8
0
 10
-10.5085
 20
-24.6869
 11
-10.4193
 21
-24.593
  0
LINE
  8
0
 10
-10.4193
 20
-24.593
 11
-10.3225
 21
-24.5078
  0
LINE
  8
0
 10
-10.3225
 20
-24.5078
 11
-10.2191
 21
-24.4315
  0
LINE
  8
0
 10
-10.2191
 20
-24.4315
 11
-10.1095
 21
-24.3644
  0
LINE
  8
0
 10
-10.1095
 20
-24.3644
 11
-9.99445
 21
-24.3067
  0
LINE
  8
0
 10
-9.99445
 20
-24.3067
 11
-9.87469
 21
-24.2587
  0
LINE
  8
0
 10
-9.87469
 20
-24.2587
 11
-9.75085
 21
-24.2206
  0
LINE
  8
0
 10
-9.75085
 20
-24.2206
 11
-9.62361
 21
-24.1926
  0
LINE
  8
0
 10
-9.62361
 20
-24.1926
 11
-9.49364
 21
-24.1749
  0
LINE
  8
0
 10
-9.49364
 20
-24.1749
 11
-9.36165
 21
-24.1679
  0
LINE
  8
0
 10
-9.36165
 20
-24.1679
 11
-9.22829
 21
-24.1718
  0
LINE
  8
0
 10
-9.22829
 20
-24.1718
 11
-9.09422
 21
-24.1867
  0
LINE
  8
0
 10
-9.09422
 20
-24.1867
 11
-8.96016
 21
-24.213
  0
LINE
  8
0
 10
-8.96016
 20
-24.213
 11
-8.82675
 21
-24.2508
  0
LINE
  8
0
 10
-8.82675
 20
-24.2508
 11
-8.70012
 21
-24.3076
  0
LINE
  8
0
 10
-8.70012
 20
-24.3076
 11
-8.5804
 21
-24.3736
  0
LINE
  8
0
 10
-8.5804
 20
-24.3736
 11
-8.468
 21
-24.4483
  0
LINE
  8
0
 10
-8.468
 20
-24.4483
 11
-8.36328
 21
-24.5311
  0
LINE
  8
0
 10
-8.36328
 20
-24.5311
 11
-8.2666
 21
-24.6213
  0
LINE
  8
0
 10
-8.2666
 20
-24.6213
 11
-8.17831
 21
-24.7183
  0
LINE
  8
0
 10
-8.17831
 20
-24.7183
 11
-8.0988
 21
-24.8216
  0
LINE
  8
0
 10
-8.0988
 20
-24.8216
 11
-8.02843
 21
-24.9304
  0
LINE
  8
0
 10
-8.02843
 20
-24.9304
 11
-7.96754
 21
-25.0442
  0
LINE
  8
0
 10
-7.96754
 20
-25.0442
 11
-7.9165
 21
-25.1623
  0
LINE
  8
0
 10
-7.9165
 20
-25.1623
 11
-7.87572
 21
-25.2842
  0
LINE
  8
0
 10
-7.87572
 20
-25.2842
 11
-7.84549
 21
-25.4091
  0
LINE
  8
0
 10
-7.84549
 20
-25.4091
 11
-7.82625
 21
-25.5366
  0
LINE
  8
0
 10
-7.82625
 20
-25.5366
 11
-7.8183
 21
-25.6659
  0
LINE
  8
0
 10
-7.8183
 20
-25.6659
 11
-7.82204
 21
-25.7965
  0
LINE
  8
0
 10
-7.82204
 20
-25.7965
 11
-7.83783
 21
-25.9277
  0
LINE
  8
0
 10
-7.83783
 20
-25.9277
 11
-8.00543
 21
-26.5109
  0
LINE
  8
0
 10
-8.00543
 20
-26.5109
 11
-8.00266
 21
-26.6632
  0
LINE
  8
0
 10
-8.00266
 20
-26.6632
 11
-7.9473
 21
-26.8032
  0
LINE
  8
0
 10
-7.9473
 20
-26.8032
 11
-7.84668
 21
-26.9187
  0
LINE
  8
0
 10
-7.84668
 20
-26.9187
 11
-7.73164
 21
-26.9842
  0
LINE
  8
0
 10
-7.73164
 20
-26.9842
 11
-7.26669
 21
-27.1197
  0
LINE
  8
0
 10
-7.26669
 20
-27.1197
 11
-6.79628
 21
-27.2348
  0
LINE
  8
0
 10
-6.79628
 20
-27.2348
 11
-6.66393
 21
-27.2356
  0
LINE
  8
0
 10
-6.66393
 20
-27.2356
 11
-6.51904
 21
-27.1859
  0
LINE
  8
0
 10
-6.51904
 20
-27.1859
 11
-6.40111
 21
-27.0924
  0
LINE
  8
0
 10
-6.40111
 20
-27.0924
 11
-6.32256
 21
-26.9619
  0
LINE
  8
0
 10
-6.32256
 20
-26.9619
 11
-6.17609
 21
-26.373
  0
LINE
  8
0
 10
-6.17609
 20
-26.373
 11
-6.1241
 21
-26.2515
  0
LINE
  8
0
 10
-6.1241
 20
-26.2515
 11
-6.06201
 21
-26.1366
  0
LINE
  8
0
 10
-6.06201
 20
-26.1366
 11
-5.99043
 21
-26.0287
  0
LINE
  8
0
 10
-5.99043
 20
-26.0287
 11
-5.90999
 21
-25.9279
  0
LINE
  8
0
 10
-5.90999
 20
-25.9279
 11
-5.82132
 21
-25.8349
  0
LINE
  8
0
 10
-5.82132
 20
-25.8349
 11
-5.72505
 21
-25.7498
  0
LINE
  8
0
 10
-5.72505
 20
-25.7498
 11
-5.6218
 21
-25.673
  0
LINE
  8
0
 10
-5.6218
 20
-25.673
 11
-5.51219
 21
-25.6049
  0
LINE
  8
0
 10
-5.51219
 20
-25.6049
 11
-5.39685
 21
-25.5458
  0
LINE
  8
0
 10
-5.39685
 20
-25.5458
 11
-5.27641
 21
-25.4961
  0
LINE
  8
0
 10
-5.27641
 20
-25.4961
 11
-5.15147
 21
-25.4562
  0
LINE
  8
0
 10
-5.15147
 20
-25.4562
 11
-5.02271
 21
-25.4264
  0
LINE
  8
0
 10
-5.02271
 20
-25.4264
 11
-4.8907
 21
-25.407
  0
LINE
  8
0
 10
-4.8907
 20
-25.407
 11
-4.75609
 21
-25.3984
  0
LINE
  8
0
 10
-4.75609
 20
-25.3984
 11
-4.61949
 21
-25.401
  0
LINE
  8
0
 10
-4.61949
 20
-25.401
 11
-4.48155
 21
-25.4151
  0
LINE
  8
0
 10
-4.48155
 20
-25.4151
 11
-4.34698
 21
-25.449
  0
LINE
  8
0
 10
-4.34698
 20
-25.449
 11
-4.21762
 21
-25.4933
  0
LINE
  8
0
 10
-4.21762
 20
-25.4933
 11
-4.09395
 21
-25.5473
  0
LINE
  8
0
 10
-4.09395
 20
-25.5473
 11
-3.97644
 21
-25.6107
  0
LINE
  8
0
 10
-3.97644
 20
-25.6107
 11
-3.86555
 21
-25.6827
  0
LINE
  8
0
 10
-3.86555
 20
-25.6827
 11
-3.76178
 21
-25.763
  0
LINE
  8
0
 10
-3.76178
 20
-25.763
 11
-3.66554
 21
-25.8508
  0
LINE
  8
0
 10
-3.66554
 20
-25.8508
 11
-3.57733
 21
-25.9458
  0
LINE
  8
0
 10
-3.57733
 20
-25.9458
 11
-3.49762
 21
-26.0473
  0
LINE
  8
0
 10
-3.49762
 20
-26.0473
 11
-3.42685
 21
-26.1547
  0
LINE
  8
0
 10
-3.42685
 20
-26.1547
 11
-3.36551
 21
-26.2677
  0
LINE
  8
0
 10
-3.36551
 20
-26.2677
 11
-3.31406
 21
-26.3855
  0
LINE
  8
0
 10
-3.31406
 20
-26.3855
 11
-3.27296
 21
-26.5077
  0
LINE
  8
0
 10
-3.27296
 20
-26.5077
 11
-3.24268
 21
-26.6336
  0
LINE
  8
0
 10
-3.24268
 20
-26.6336
 11
-3.22369
 21
-26.7629
  0
LINE
  8
0
 10
-3.22369
 20
-26.7629
 11
-3.21646
 21
-26.8948
  0
LINE
  8
0
 10
-3.21646
 20
-26.8948
 11
-3.28023
 21
-27.4983
  0
LINE
  8
0
 10
-3.28023
 20
-27.4983
 11
-3.25105
 21
-27.6478
  0
LINE
  8
0
 10
-3.25105
 20
-27.6478
 11
-3.17223
 21
-27.7761
  0
LINE
  8
0
 10
-3.17223
 20
-27.7761
 11
-3.05309
 21
-27.8723
  0
LINE
  8
0
 10
-3.05309
 20
-27.8723
 11
-2.92844
 21
-27.9168
  0
LINE
  8
0
 10
-2.92844
 20
-27.9168
 11
-2.44701
 21
-27.9695
  0
LINE
  8
0
 10
-2.44701
 20
-27.9695
 11
-1.96375
 21
-28.0012
  0
LINE
  8
0
 10
-1.96375
 20
-28.0012
 11
-1.83325
 21
-27.979
  0
LINE
  8
0
 10
-1.83325
 20
-27.979
 11
-1.69922
 21
-27.9049
  0
LINE
  8
0
 10
-1.69922
 20
-27.9049
 11
-1.59932
 21
-27.7923
  0
LINE
  8
0
 10
-1.59932
 20
-27.7923
 11
-1.54462
 21
-27.6501
  0
LINE
  8
0
 10
-1.54462
 20
-27.6501
 11
-1.50264
 21
-27.0448
  0
LINE
  8
0
 10
-1.50264
 20
-27.0448
 11
-1.47253
 21
-26.9161
  0
LINE
  8
0
 10
-1.47253
 20
-26.9161
 11
-1.43134
 21
-26.7922
  0
LINE
  8
0
 10
-1.43134
 20
-26.7922
 11
-1.37959
 21
-26.6734
  0
LINE
  8
0
 10
-1.37959
 20
-26.6734
 11
-1.31787
 21
-26.5603
  0
LINE
  8
0
 10
-1.31787
 20
-26.5603
 11
-1.2467
 21
-26.4532
  0
LINE
  8
0
 10
-1.2467
 20
-26.4532
 11
-1.16669
 21
-26.3527
  0
LINE
  8
0
 10
-1.16669
 20
-26.3527
 11
-1.07832
 21
-26.2592
  0
LINE
  8
0
 10
-1.07832
 20
-26.2592
 11
-0.982208
 21
-26.1731
  0
LINE
  8
0
 10
-0.982208
 20
-26.1731
 11
-0.878876
 21
-26.0949
  0
LINE
  8
0
 10
-0.878876
 20
-26.0949
 11
-0.76889
 21
-26.025
  0
LINE
  8
0
 10
-0.76889
 20
-26.025
 11
-0.652786
 21
-25.964
  0
LINE
  8
0
 10
-0.652786
 20
-25.964
 11
-0.531143
 21
-25.9123
  0
LINE
  8
0
 10
-0.531143
 20
-25.9123
 11
-0.40451
 21
-25.8703
  0
LINE
  8
0
 10
-0.40451
 20
-25.8703
 11
-0.273438
 21
-25.8385
  0
LINE
  8
0
 10
-0.273438
 20
-25.8385
 11
-0.138458
 21
-25.8173
  0
LINE
  8
0
 10
-0.138458
 20
-25.8173
 11
-0.000167847
 21
-25.8072
  0
LINE
  8
0
 10
-0.000167847
 20
-25.8072
 11
0.138229
 21
-25.8172
  0
LINE
  8
0
 10
0.138229
 20
-25.8172
 11
0.2733
 21
-25.8384
  0
LINE
  8
0
 10
0.2733
 20
-25.8384
 11
0.40448
 21
-25.8701
  0
LINE
  8
0
 10
0.40448
 20
-25.8701
 11
0.531189
 21
-25.9121
  0
LINE
  8
0
 10
0.531189
 20
-25.9121
 11
0.652908
 21
-25.9638
  0
LINE
  8
0
 10
0.652908
 20
-25.9638
 11
0.769058
 21
-26.0248
  0
LINE
  8
0
 10
0.769058
 20
-26.0248
 11
0.879089
 21
-26.0946
  0
LINE
  8
0
 10
0.879089
 20
-26.0946
 11
0.982437
 21
-26.1728
  0
LINE
  8
0
 10
0.982437
 20
-26.1728
 11
1.07857
 21
-26.2589
  0
LINE
  8
0
 10
1.07857
 20
-26.2589
 11
1.16693
 21
-26.3524
  0
LINE
  8
0
 10
1.16693
 20
-26.3524
 11
1.24693
 21
-26.453
  0
LINE
  8
0
 10
1.24693
 20
-26.453
 11
1.31807
 21
-26.5601
  0
LINE
  8
0
 10
1.31807
 20
-26.5601
 11
1.37975
 21
-26.6733
  0
LINE
  8
0
 10
1.37975
 20
-26.6733
 11
1.43144
 21
-26.7921
  0
LINE
  8
0
 10
1.43144
 20
-26.7921
 11
1.4726
 21
-26.9161
  0
LINE
  8
0
 10
1.4726
 20
-26.9161
 11
1.50264
 21
-27.0448
  0
LINE
  8
0
 10
1.50264
 20
-27.0448
 11
1.54462
 21
-27.6501
  0
LINE
  8
0
 10
1.54462
 20
-27.6501
 11
1.59932
 21
-27.7923
  0
LINE
  8
0
 10
1.59932
 20
-27.7923
 11
1.69922
 21
-27.9049
  0
LINE
  8
0
 10
1.69922
 20
-27.9049
 11
1.83325
 21
-27.979
  0
LINE
  8
0
 10
1.83325
 20
-27.979
 11
1.96375
 21
-28.0012
  0
LINE
  8
0
 10
1.96375
 20
-28.0012
 11
2.44701
 21
-27.9695
  0
ENDSEC
  0
SECTION
  2
OBJECTS
  0
DICTIONARY
  0
ENDSEC
  0
EOF
